<svg xmlns="http://www.w3.org/2000/svg" xmlns:xlink="http://www.w3.org/1999/xlink" viewBox="0 0 471.12 427.52"><defs><style>.a,.b,.c,.i,.q{fill:none;}.b{clip-path:url(#a);}.c,.d,.e,.f,.g,.i,.k,.o,.q,.r{stroke:#cacaca;}.c,.d,.f,.k,.o,.q,.r{stroke-miterlimit:22.93;}.c{stroke-width:1.2px;}.d,.e,.g,.k,.o,.p,.r{fill:#fff;}.e,.i,.r{stroke-linecap:round;}.e,.i{stroke-linejoin:round;}.f{fill:#80ad5d;}.g{stroke-miterlimit:10;}.h{fill:#cacaca;}.j{opacity:0.1;}.k{opacity:0.5;}.k,.o{isolation:isolate;}.l{clip-path:url(#c);}.m{fill:url(#d);}.n{fill:url(#f);}.o{opacity:0.78;}</style><clipPath id="a"><polygon class="a" points="1 1 2 1 1 2 1 1"/></clipPath><clipPath id="c" transform="translate(-51.88 -54.78)"><polygon class="b" points="-1 -1 -2 -1 -1 -2 -1 -1"/></clipPath><linearGradient id="d" x1="288.42" y1="416.14" x2="333.03" y2="416.14" gradientTransform="matrix(0.96, -0.27, -0.27, -0.96, 17.52, 687.94)" gradientUnits="userSpaceOnUse"><stop offset="0" stop-color="#fff"/><stop offset="1" stop-color="gray"/></linearGradient><linearGradient id="f" x1="-10.71" y1="466.71" x2="33.9" y2="466.71" gradientTransform="translate(231.96 664.8) rotate(-176.57)" xlink:href="#d"/></defs><title>03_chel1</title><path class="c" d="M238.6,345.3c-24.5,0-45.8-7.2-57.3-17.9-0.6,7.1-.9,14.5-0.9,22,0,65.8,23.5,119.7,53.3,125.1-3-22.6-5.5-58.6-3.3-100.3V374a25.56,25.56,0,0,0,8.1,1.4,24.63,24.63,0,0,0,8.1-1.4v0.1c0,41.1,1,77.4-3.3,100.3,29.9-5.4,53.3-59.3,53.3-125.1,0-7.5-.3-14.8-0.9-22C284.4,338.1,263,345.3,238.6,345.3Z" transform="translate(-51.88 -54.78)"/><path class="c" d="M333,381.9a8.28,8.28,0,0,1-8.3,8.3H181.9a8.28,8.28,0,0,1-8.3-8.3l-9.7-192a8.28,8.28,0,0,1,8.3-8.3H331.6a8.28,8.28,0,0,1,8.3,8.3Z" transform="translate(-51.88 -54.78)"/><path class="c" d="M323.5,370.3a7.15,7.15,0,0,1-7.1,7.2H194.1a7.15,7.15,0,0,1-7.1-7.2l-3.6-117.6a7.15,7.15,0,0,1,7.1-7.2H317.1a7.15,7.15,0,0,1,7.1,7.2Z" transform="translate(-51.88 -54.78)"/><path class="c" d="M326.9,229.9a7.15,7.15,0,0,1-7.1,7.2H188.9a7.15,7.15,0,0,1-7.1-7.2L180,199.6a7.15,7.15,0,0,1,7.1-7.2H322.3a7.15,7.15,0,0,1,7.1,7.2Z" transform="translate(-51.88 -54.78)"/><path class="d" d="M313.4,365.4c-4.4-33.3-14.4-78.2-49.9-91.1-8.6-10.5-19.6-16.8-31.6-16.8-11.4,0-22,5.8-30.5,15.4-12.3,3.4-21.8,10.5-29.1,19.7l-1.2-.5a34.15,34.15,0,0,1-31.9,21.7,34.56,34.56,0,0,1-28.4-15L91,312.3a58.33,58.33,0,0,0,91.4,6.2,120.24,120.24,0,0,0-1,14.9,107.21,107.21,0,0,0,6.6,37.7c8.7,8.3,25,13.8,43.8,13.8s35.1-5.6,43.8-13.8a111,111,0,0,0,5.1-55.9c5.7,11.4,10.7,28,13.9,52.5Z" transform="translate(-51.88 -54.78)"/><path class="e" d="M128.7,270.5c-1.2-1.3-3.3-1.9-5.5-2.1h0c-0.4,0-.8-0.1-1.2-0.1h-1.5a1.7,1.7,0,0,0-.7.1c-0.4.1-.7,0.1-1,0.2-3,.8-6.1,4.1-8,6.4a24.33,24.33,0,0,0-2.8,4.7c-0.8,1.5-2.2,2.8-2.7,4.5L98,279.8c-0.1-.9-0.1-1.9-0.2-2.8v-3.4c0-5.8.4-11.7-.4-17.4-0.4-2.6-2.2-7.2-4.8-8.1-3.4-1.2-6,1.4-7.4,4.3h0c-0.2.5-.4,0.9-0.6,1.4-1,3-.5,6.6-0.3,9.6a12.42,12.42,0,0,1,.1,1.5,65.81,65.81,0,0,0,1.7,10.6c-4.7-10.4-6.7-14.7-7.1-15.2a0.1,0.1,0,0,0-.1-0.1,15.05,15.05,0,0,1-1-1.7,3,3,0,0,0-.5-0.7,0.1,0.1,0,0,0-.1-0.1c-1.8-2.4-5.8-5.5-8.2-2.6-2,2.5-1.1,7.1-.2,10.1h0c0.1,0.4.2,0.7,0.3,1a35.67,35.67,0,0,0,5.4,10.2,8.79,8.79,0,0,1,.6,1v0.1c0.5,0.8,1,1.8,1.6,2.7a0.76,0.76,0,0,1,.2.4h0l-3.9-3.9-0.8-.8c-1.3-1.3-2.7-2.6-4.1-3.9-2.7-2.4-5.9-6.1-9.9-5.8h0c-5.8.5-3.6,8.4-.3,13.6h0c0.2,0.3.3,0.5,0.5,0.8l0.1,0.1c0.3,0.3.5,0.7,0.8,1,0,0.1.1,0.1,0.1,0.2a6,6,0,0,0,.8.8l0.2,0.2c0.3,0.2.5,0.5,0.8,0.7l0.1,0.1a0.38,0.38,0,0,1,.2.2l-0.2-.1c0,0.1,9,5.4,9.1,5.2s-7.7-4.7-10.2-5.7h0a11.4,11.4,0,0,0-4-.8h0a5.84,5.84,0,0,0-1.8.4h0a4.16,4.16,0,0,0-2,2.7c-0.5,1.8.6,4,2.1,5.9h0c0.3,0.4.6,0.7,0.9,1.1h0c0.3,0.3.6,0.7,0.9,1h0l0.9,0.9h0a5.5,5.5,0,0,0,.9.7,94,94,0,0,0,11.5,8.4c3.8,2.3,6.9,5.2,11.1,7.1,6.8,3,15.4,4,21-1.3,1.4-1.3,2.2-2.6,4.1-3.5a18.33,18.33,0,0,0,4.2-2.1c2.8-2.2,3.4-5.5,4.5-8.6,1.2-3.3,2.7-6.8,5.2-9.1,2.3-2.2,5.1-3.8,7.4-6.3,0.2-.3.4-0.5,0.6-0.8h0C129.7,276.6,130.7,272.7,128.7,270.5Z" transform="translate(-51.88 -54.78)"/><polyline class="f" points="183.12 240.72 192.62 208.92 207.82 213.62 211.62 219.51 183.12 240.72"/><path class="d" d="M163.6,209.4c2,7.5-4.7,15.5-15,17.7s-20.2-2.1-22.2-9.6,4.7-15.5,15-17.7S161.7,201.9,163.6,209.4Z" transform="translate(-51.88 -54.78)"/><path class="d" d="M317,181.1c2,7.5-4.7,15.5-15,17.7s-20.2-2.1-22.2-9.6,4.7-15.5,15-17.7S315.1,173.6,317,181.1Z" transform="translate(-51.88 -54.78)"/><circle class="g" cx="165.5" cy="203.2" r="19.4" transform="translate(-94.72 -10.57) rotate(-13.49)"/><path class="d" d="M300.2,162c14,53.4-11.2,104.6-56.2,114.3s-92.9-25.6-106.9-79S148.3,92.7,193.4,83,286.2,108.6,300.2,162Z" transform="translate(-51.88 -54.78)"/><circle class="h" cx="188.29" cy="196.2" r="8.9" transform="translate(-82.41 -20.03) rotate(-9.76)"/><circle class="g" cx="186" cy="193.2" r="3" transform="translate(-81.93 -20.46) rotate(-9.76)"/><circle class="h" cx="259.7" cy="189.11" r="8.9" transform="translate(-80.17 -8.03) rotate(-9.76)"/><circle class="g" cx="257.38" cy="186" r="3" transform="translate(-79.68 -8.47) rotate(-9.76)"/><path class="d" d="M264.3,69.8c-10.9-5.8-30.5-20.5-39.7-6-1.1-4.7-3.9-8.8-10.5-8.5-9.6.4-18.6,6.9-26.4,11.1-21.2,11.5-44.8,21.8-60.5,38.9-7.3,7.9-14,16.5-17.3,26.4-3.2,9.3.6,22.2,2.5,31.7,1.1,5.3,3.4,10.3,5.1,15.4,2.2,6.5,3.8,13.1,6.4,19.4,3.5,8.6,9.3,13.6,18.4,17.8,2.2,1,4.4,2,6.5,3.1,0.5,0.3,1-.4.5-0.7h0c-0.9-5.4-3.4-10.8-5.2-15.9-2.1-6-4.3-12-6.4-18-1.1-3.3-2.9-7.1-2.9-10.6,0.1-4.1,2.1-8.8,3.3-12.7a20.94,20.94,0,0,1,.8-2.3c-0.9,6.3,0,13.1,1.4,19.1a9.15,9.15,0,0,0,.1,1.7,0.25,0.25,0,0,0,.5,0c2.7-16.9,12.1-30.7,25.2-42.9,7.4-6.9,17.1-13.4,23.4-21.6-0.8,1.4-1.6,2.7-2.5,4.1-3.5,5.2-8.2,9.8-11.7,15-0.1.1,0,.2,0.1,0.2a2.19,2.19,0,0,0-.5.3,0.11,0.11,0,1,0,.1.2c12.1-4.9,23.3-12.7,29.4-23.3-1.5,4.4-2.1,9-3.9,13.3l-0.1.1a0.21,0.21,0,0,0,.3.3,60.53,60.53,0,0,0,24.7-37.5,27.07,27.07,0,0,0,1.7,2.5c3.4,4.6,8.1,8.6,12.6,12.4a113.09,113.09,0,0,0,11,8.3c7,4.6,15.8,6.6,23,11,9.9,5.9,13.6,16.5,18.5,25.5,2,3.6,2.4,7.3,3.1,11.3,1.6,8.6,2.3,17.6,5,26,0,0.1-.1.2-0.1,0.3-0.2.6,0.8,0.8,1,.3,2.9-6.4,6.7-11.9,6.5-19-0.1-5.4-.4-10.8-0.7-16.2-0.8-14-1.6-28.3-4.6-42.2C298.2,90.1,281.2,78.8,264.3,69.8ZM217.1,56.4h-0.4" transform="translate(-51.88 -54.78)"/><path class="d" d="M208.3,249.6c3.8,0.4,14.7-.7,27.5-3.1,12.4-2.3,22.8-5,26.5-6.8" transform="translate(-51.88 -54.78)"/><path class="i" d="M266,233.6c-4.3,3.5-20.9,7.6-31.6,9.7s-27.1,4-32.4,2.2c10.2,9.1,21.3,9.3,32,7.7a2.77,2.77,0,0,0,.9-0.1,5,5,0,0,1,1.2-.2,5.85,5.85,0,0,1,1.3-.2c0.3-.1.6-0.1,0.9-0.2C248.8,250.1,260.5,245.6,266,233.6Z" transform="translate(-51.88 -54.78)"/><path class="i" d="M227.2,258.7a54.92,54.92,0,0,0,7-.5,2.77,2.77,0,0,0,.9-0.1,5,5,0,0,1,1.2-.2c0.4-.1.9-0.1,1.3-0.2s0.6-.1.9-0.2a53.7,53.7,0,0,0,7.5-2.3" transform="translate(-51.88 -54.78)"/><path class="g" d="M178.5,179.5c-3.3,1.4-6.1-1.3-2.7-2.8,8.4-3.6,20.8-1.1,26.9,5.3,2.5,2.6-2.2,5.2-4.7,2.6C193.7,180.3,184.3,177.1,178.5,179.5Z" transform="translate(-51.88 -54.78)"/><path class="g" d="M264.6,169.3c3.4,1.2,5.9-1.7,2.5-2.9-8.6-3-20.8.4-26.4,7.2-2.3,2.8,2.6,5,4.9,2.3C249.5,171.1,258.7,167.3,264.6,169.3Z" transform="translate(-51.88 -54.78)"/><path class="d" d="M239.7,215.8c2.5,1.1,0,6.8-9,8.5s-15.9-2.9-12.8-4.8,5.7-.8,10.9-1.7C234.5,216.9,236.8,214.6,239.7,215.8Z" transform="translate(-51.88 -54.78)"/><g class="j"><path class="k" d="M176.6,227.2c5.5-.2,20.4-2.3,28.4-3.6,3.5-.6,6.5-1.3,6.5-1.3s3.4-3.2,1.1-3.7c-1.4-.3-13,1.5-22.8,2.5-19.2,2-21.6,3.2-18.9,4.8A15.66,15.66,0,0,0,176.6,227.2Z" transform="translate(-51.88 -54.78)"/><path class="d" d="M209.6,217.8c-2,.2-39.3,5.3-39.3,5.3l-1.6.9s-0.1.6,1.7,1.8,4.5,1.7,7.6,1.5,32.2-3.7,34.4-5.2c1.8-1.2,3-2.9,2.7-3.2A14.41,14.41,0,0,0,209.6,217.8Zm-4.3,5.7c-7.9,1.4-23,3.4-28.5,3.6a12.36,12.36,0,0,1-4.8-.9c-1.5-.7-1.5-1-1.4-1.9l40.1-5.2s2.5,0.3,2.6.4C213.8,221.9,209.8,222.7,205.3,223.5Z" transform="translate(-51.88 -54.78)"/><path class="d" d="M169.3,224s40.8-5.3,41.1-5.4a9.68,9.68,0,0,1,3.1.4c0.7,0.4-1.3,0-2.8-.1s-40.6,5.3-40.6,5.3-0.3,0,0,.6-0.8-.1-0.9-0.4A1,1,0,0,1,169.3,224Z" transform="translate(-51.88 -54.78)"/><path class="d" d="M170.5,223.1l-1.3.8s40.1-5.4,41.4-5.5a20.17,20.17,0,0,1,3.1.3c1,0.1-2-.8-3.4-0.9C209.3,217.8,170.5,223.1,170.5,223.1Z" transform="translate(-51.88 -54.78)"/><path class="k" d="M279.8,216c-5.4,1-20.4,2.1-28.5,2.6-3.6.2-6.6,0.1-6.6,0.1s-4-2.4-1.9-3.4c1.3-.6,13-1.3,22.8-2.4,19.2-2.1,21.8-1.5,19.5.7A13.48,13.48,0,0,1,279.8,216Z" transform="translate(-51.88 -54.78)"/><path class="d" d="M240.6,216.1c-0.3.4,1.3,1.8,3.3,2.6,2.5,1,31.6-1.9,34.7-2.3a12.6,12.6,0,0,0,7.1-3c1.4-1.6,1.3-2.1,1.3-2.1l-1.8-.6s-37.6,3-39.5,3.2A13.06,13.06,0,0,0,240.6,216.1Zm1.8,0.2a12.23,12.23,0,0,1,2.4-1l40.3-3.4c0.2,0.8.3,1.1-1,2.1a11.49,11.49,0,0,1-4.5,1.9c-5.4,1-20.5,2.2-28.6,2.6C246.5,218.7,242.4,218.9,242.4,216.3Z" transform="translate(-51.88 -54.78)"/><path class="d" d="M286.3,211.4s-41,3.5-41.3,3.5a8.34,8.34,0,0,0-2.9,1c-0.6.5,1.3-.3,2.7-0.7s40.8-3.5,40.8-3.5,0.3-.1.1,0.6,0.7-.3.8-0.5A0.43,0.43,0,0,0,286.3,211.4Z" transform="translate(-51.88 -54.78)"/><path class="d" d="M285,210.8l1.4,0.5s-40.4,3.3-41.6,3.5a22.49,22.49,0,0,0-3,.9c-1,.3,1.8-1.2,3.1-1.6C246,213.9,285,210.8,285,210.8Z" transform="translate(-51.88 -54.78)"/><path class="d" d="M241.5,216.9s-5.2-5-14.3-4a18.77,18.77,0,0,0-13,7l0.2-.8s3-5.7,12.8-6.8c9.1-1,14.2,3.9,14.2,3.9Z" transform="translate(-51.88 -54.78)"/></g><path class="k" d="M176.4,224.8c5.6,0.9,20.4-2.5,28.3-5a27,27,0,0,0,6.3-3s2.6-10.7.1-13.1c-1.5-1.5-13,1.6-22.7,2.6-19.2,2-21.4,5.4-18.1,12.1C172.8,223.7,176.4,224.8,176.4,224.8Z" transform="translate(-51.88 -54.78)"/><path class="d" d="M207.7,200.5c-2,.1-39,7.9-39,7.9l-1.4,3s0.1,2,2.2,6.8,5.1,7.4,8.2,7.4,32.1-4.3,34-9c1.5-3.8,2.3-9.6,1.9-10.8S209.7,200.4,207.7,200.5Zm-2.8,19c-7.8,2.7-22.7,5.8-28.3,5,0,0-2.6-.4-5.2-4.7-1.8-2.9-1.8-4.1-2-7.2l39.8-7.6s2.7,1.8,2.8,2.3C213.2,216.4,209.3,218,204.9,219.5Z" transform="translate(-51.88 -54.78)"/><g class="l"><path class="m" d="M168.9,208.5l-1.1,2.6s39.8-8.3,41.1-8,2.5,1.4,3.3,1.9c1.1,0.6-2.3-3.5-3.7-4.1C207.4,200.3,168.9,208.5,168.9,208.5Z" transform="translate(-51.88 -54.78)"/></g><path class="d" d="M168.9,208.5l-1.1,2.6s39.8-8.3,41.1-8,2.5,1.4,3.3,1.9c1.1,0.6-2.3-3.5-3.7-4.1C207.4,200.3,168.9,208.5,168.9,208.5Z" transform="translate(-51.88 -54.78)"/><path class="k" d="M279.6,213.7c-5.3,2-20.4,1.9-28.7,1.2a26.19,26.19,0,0,1-6.8-1.6s-4.8-9.9-2.9-12.8c1.1-1.8,13-1.2,22.8-2.3,19.2-2.2,22.1.7,20.3,7.9C282.8,211.8,279.6,213.7,279.6,213.7Z" transform="translate(-51.88 -54.78)"/><path class="d" d="M239.2,203c-0.2,1.3,1.8,6.7,4.2,10.2,2.8,4.2,32.1,2.1,35.1,1.5s5.4-3.8,6.4-9,0.7-7.1.7-7.1l-2-2.6s-37.9.2-39.8,0.6S239.3,201.7,239.2,203Zm1.9,1.2c0-.6,2.2-2.9,2.2-2.9l40.5-1c0.4,3,.7,4.2-0.4,7.4-1.6,4.8-4,5.7-4,5.7-5.3,2-20.5,2.2-28.7,1.2C246,214,241.8,213.3,241.1,204.2Z" transform="translate(-51.88 -54.78)"/><g class="l"><path class="n" d="M283.4,196.1l1.6,2.4s-40.7.4-41.9,0.9-2.1,1.9-2.8,2.5c-0.9.8,1.5-3.9,2.8-4.8C244.1,196.4,283.4,196.1,283.4,196.1Z" transform="translate(-51.88 -54.78)"/></g><path class="d" d="M283.4,196.1l1.6,2.4s-40.7.4-41.9,0.9-2.1,1.9-2.8,2.5c-0.9.8,1.5-3.9,2.8-4.8C244.1,196.4,283.4,196.1,283.4,196.1Z" transform="translate(-51.88 -54.78)"/><path class="d" d="M240.4,206s-10.5-1.6-14-1.2-13.3,4.2-13.3,4.2v-2.8s10-2,13.4-2.3,13.6-.6,13.6-0.6Z" transform="translate(-51.88 -54.78)"/><path class="o" d="M212.5,205.3c0,0.1.4,1.1,0.1,1.3a0.56,0.56,0,0,1-.6-0.1l-2.9-2.1-39.9,7.8-1.2-1s36.2-7.7,41-8.1a4.21,4.21,0,0,1,1.4.8,13.4,13.4,0,0,0,1.7,1A0.89,0.89,0,0,0,212.5,205.3Z" transform="translate(-51.88 -54.78)"/><path class="o" d="M239.9,202.4a2.88,2.88,0,0,0,.1,1.3,0.85,0.85,0,0,0,.6-0.2l2.4-2.6,40.7-.9,0.9-1.2s-37.1.2-41.7,0.8a3.64,3.64,0,0,0-1.2,1.1l-1.4,1.4A3,3,0,0,0,239.9,202.4Z" transform="translate(-51.88 -54.78)"/><polygon class="p" points="119.92 140.01 152.52 132.62 131.72 128.12 119.92 140.01"/><line class="a" x1="116.82" y1="141.42" x2="119.92" y2="140.02"/><line class="q" x1="114.62" y1="141.42" x2="152.52" y2="132.62"/><path class="d" d="M183.5,444.4c17.1,0,40.2,9.7,50.2,30.1H155.5C154.9,453.7,166.4,444.4,183.5,444.4Z" transform="translate(-51.88 -54.78)"/><path class="d" d="M292.4,444.4c-17.1,0-40.2,9.7-50.2,30.1h78.2C320.9,453.7,309.5,444.4,292.4,444.4Z" transform="translate(-51.88 -54.78)"/><rect class="d" x="71.42" y="318.52" width="17.4" height="108.5"/><rect class="d" x="450.72" y="318.52" width="17.4" height="108.5"/><polygon class="d" points="467.92 301.92 425.32 280.92 371.92 281.12 371.42 280.92 114.72 282.12 56.42 301.81 414.02 301.92 414.02 301.92 467.92 301.92"/><polygon class="d" points="233.02 293.81 99.62 293.81 115.42 283.71 218.62 283.71 233.02 293.81"/><rect class="d" x="70.92" y="315.32" width="399.7" height="54.6"/><rect class="d" x="56.52" y="301.72" width="414.1" height="16.8"/><path class="r" d="M105,284.3c-7.2,0-13.1,4.1-13.1,9.2" transform="translate(-51.88 -54.78)"/><path class="r" d="M88.7,279.6a25.57,25.57,0,0,0-8.5,4.8,29.05,29.05,0,0,0-6.6,7.3" transform="translate(-51.88 -54.78)"/><path class="d" d="M344.9,351a29.84,29.84,0,0,0,.4-4.2c0-14.7-12.9-26.5-28.9-26.5s-28.9,11.9-28.9,26.5a29.84,29.84,0,0,0,.4,4.2h57Z" transform="translate(-51.88 -54.78)"/><path class="e" d="M342.1,342.4l0.8-.8,0.1-.1c0.3-.3.5-0.6,0.7-0.8,0-.1.1-0.1,0.1-0.2,0.2-.3.5-0.6,0.7-0.9l0.2-.2,0.6-.9c0.1-.1.1-0.2,0.2-0.3a4.05,4.05,0,0,0,.5-0.9c0.1-.1.1-0.2,0.2-0.3a9.29,9.29,0,0,0,.5-1c0.1-.1.1-0.2,0.2-0.3,0.2-.4.4-0.9,0.6-1.4,2.6-7.3-.4-21.9-4.1-23.7-5.4-2.5-12.7-3.9-18.3-3a14,14,0,0,0-5.7,1.9s-2.3,1.2-5.2,2.9c-5.1,1.3-14.4,3.9-15.4,6-1.5,3-4.6,7.7-6.1,8.7-1.2.8-3,4.6,0.8,6a1.88,1.88,0,0,0,.8.2,0.37,0.37,0,0,1,.3.1h0.2c-2.6,5.4-4.5,10.8-3.1,12.8a4.48,4.48,0,0,0,3.9,2.1h0.1a0.6,0.6,0,0,0,.4-0.1h0.1a6.12,6.12,0,0,0,1.2-.5c0.1-.1.2-0.1,0.3-0.2s0.2-.1.3-0.2l0.3-.3a0.38,0.38,0,0,0,.2-0.2,1.51,1.51,0,0,1,.4-0.4l0.2-.2a4.23,4.23,0,0,0,.5-0.7c0-.1.1-0.1,0.1-0.2l0.3-.6c0.1-.1.1-0.2,0.2-0.3a4.87,4.87,0,0,0,.3-0.7c0-.1.1-0.2,0.1-0.3,0.1-.3.3-0.7,0.4-1,2.2-6.3,7.4-15.9,10.2-14.7a0.35,0.35,0,0,1,.2.1l0.1,0.1,0.1,0.1v0.1a0.2,0.2,0,0,0,.1.2V330a0.37,0.37,0,0,1-.1.3v0.2a2.27,2.27,0,0,0-.1.4v0.2a1.06,1.06,0,0,1-.2.5v0.1c-0.1.2-.1,0.4-0.2,0.6a0.2,0.2,0,0,1-.1.2,0.76,0.76,0,0,1-.2.4,0.35,0.35,0,0,1-.1.2c-0.1.1-.1,0.3-0.2,0.4a0.35,0.35,0,0,1-.1.2c-0.1.1-.1,0.3-0.2,0.4s-0.1.1-.1,0.2-0.1.3-.2,0.5a0.2,0.2,0,0,1-.1.2,1.42,1.42,0,0,0-.2.6v0.1c-0.8,2-1.7,4.1-2.3,5.8h0c-0.1.2-.1,0.3-0.2,0.5v0.1a0.9,0.9,0,0,0-.1.5v0.1c0,0.1-.1.3-0.1,0.4v0.1c0,0.1-.1.3-0.1,0.4h0a3.62,3.62,0,0,0-.1,1.4c0.6,2.4,5.2,3.4,8.5-1.1a0.1,0.1,0,0,1,.1-0.1l0.6-.9a0.76,0.76,0,0,0,.2-0.4,5.94,5.94,0,0,0,.4-0.8c0.2-.4.4-0.9,0.6-1.4,3.1-8.4,5.1-13.4,6.5-11.5a1.47,1.47,0,0,1,.2.4v1.1c0,0.1-.1.3-0.1,0.4v0.1c-0.6,2-2.3,5.1-2.7,8.7h0a12.19,12.19,0,0,0,0,2.7c0.2,1.7.8,2.4,1.6,2.6h0.5a2.92,2.92,0,0,0,.9-0.2h0.1a2.66,2.66,0,0,0,1-.6l0.1-.1a7,7,0,0,0,1-.8l0.1-.1,1-1,0.1-.1a10.63,10.63,0,0,1,.9-1.1l0.1-.1c0.3-.4.5-0.8,0.8-1.2l0.1-.1a10.91,10.91,0,0,1,.6-1.1,0.1,0.1,0,0,1,.1-0.1,2.57,2.57,0,0,1,.2-0.5c1.3-4.1,6.6-12.2,9.2-10.1l0.4,0.4,0.1,0.1c0.1,0.1.1,0.2,0.2,0.3s0.1,0.1.1,0.2a0.6,0.6,0,0,1,.1.4v0.2a5.28,5.28,0,0,1,.1,1.3v0.9c0,0.2-.1.3-0.1,0.5v0.2a1.85,1.85,0,0,1-.2.7v0.1c-0.1.2-.1,0.4-0.2,0.6s-0.1.2-.1,0.3-0.1.3-.1,0.4-0.1.2-.1,0.3-0.1.2-.1,0.3a2.27,2.27,0,0,0-.1.4c0,0.1-.1.1-0.1,0.2-0.1.3-.3,0.6-0.4,0.9-0.3.7-.7,1.3-0.9,1.7-1.4,2-3.7,5.8-1.8,7.1,0.9,0.6,2.9-.2,5.1-1.9h0l0.8-.8h0Z" transform="translate(-51.88 -54.78)"/><rect class="d" x="99.62" y="293.82" width="133.4" height="3.9"/><path class="d" d="M491.4,188.5L334.1,172a12.35,12.35,0,0,0-5.1.5,11,11,0,0,0-4.2,2.4,12.42,12.42,0,0,0-2.9,3.9,11.81,11.81,0,0,0-1.1,5V320.3a11.81,11.81,0,0,0,1.1,5,12.42,12.42,0,0,0,2.9,3.9,11.77,11.77,0,0,0,4.2,2.4,12.35,12.35,0,0,0,5.1.5l157.3-16.5a7.65,7.65,0,0,0,3.2-1.1,9.79,9.79,0,0,0,2.6-2.4,12,12,0,0,0,1.7-3.4,12.9,12.9,0,0,0,.6-4v-105a13.36,13.36,0,0,0-.6-4,13.53,13.53,0,0,0-1.7-3.4,8.48,8.48,0,0,0-2.6-2.4A5.39,5.39,0,0,0,491.4,188.5Z" transform="translate(-51.88 -54.78)"/><path class="d" d="M496.9,188.5L339.6,172a12.35,12.35,0,0,0-5.1.5,11,11,0,0,0-4.2,2.4,12.42,12.42,0,0,0-2.9,3.9,11.81,11.81,0,0,0-1.1,5V320.3a11.81,11.81,0,0,0,1.1,5,12.42,12.42,0,0,0,2.9,3.9,11.77,11.77,0,0,0,4.2,2.4,12.35,12.35,0,0,0,5.1.5l157.3-16.5a7.65,7.65,0,0,0,3.2-1.1,9.79,9.79,0,0,0,2.6-2.4,12,12,0,0,0,1.7-3.4,12.9,12.9,0,0,0,.6-4v-105a13.36,13.36,0,0,0-.6-4,13.53,13.53,0,0,0-1.7-3.4,8.48,8.48,0,0,0-2.6-2.4A5.39,5.39,0,0,0,496.9,188.5Z" transform="translate(-51.88 -54.78)"/><path class="d" d="M463.4,318.9l-15.1-53.5-37.1-1.8s-9,48.8-12.1,62Z" transform="translate(-51.88 -54.78)"/><path class="d" d="M411.2,263.6s4.1,82.5-7.6,83.2c-8.9.6-20.6,0.6-20.6,0.6l-2.7,4.1s76.1-.2,80.5-0.2,1.9-5.1-.8-22.1c-4.5-27.6-11.7-63.9-11.7-63.9Z" transform="translate(-51.88 -54.78)"/><circle class="d" cx="377.52" cy="176.92" r="9.3"/><path class="f" d="M494.9,296.2v-12h4.8a1.16,1.16,0,0,0,1.2-1.2v-5.7a7.39,7.39,0,0,1,6.5-7.4h0.7a7.17,7.17,0,0,1,7.2,7.2v8.4a10.76,10.76,0,0,1-10.8,10.8h-9.6v-0.1Z" transform="translate(-51.88 -54.78)"/><path class="f" d="M508.1,271a6,6,0,0,1,6,6v8.4a9.6,9.6,0,0,1-9.6,9.6h-8.4v-9.6h3.6a2.43,2.43,0,0,0,2.4-2.4v-5.7a6.18,6.18,0,0,1,5.4-6.2,1.27,1.27,0,0,1,.6-0.1m0-2.4h-0.8a8.58,8.58,0,0,0-7.6,8.6v5.7h-6v14.4h10.8a12,12,0,0,0,12-12V277a8.39,8.39,0,0,0-8.4-8.4h0Z" transform="translate(-51.88 -54.78)"/><path class="f" d="M500.2,286.6h0.7a2.43,2.43,0,0,0,2.4-2.4v-5.7a6.16,6.16,0,0,1,5.1-6.2,6.24,6.24,0,0,1,4.5,1.1,6,6,0,0,0-5.3-2.4,6.26,6.26,0,0,0-5.5,6.2v5.7a2.43,2.43,0,0,1-2.4,2.4h-2.4A3.6,3.6,0,0,0,500.2,286.6Z" transform="translate(-51.88 -54.78)"/><path class="f" d="M474.5,308.2V271a13.2,13.2,0,0,1,26.4,0v37.2H474.5Z" transform="translate(-51.88 -54.78)"/><path class="f" d="M487.7,259a12,12,0,0,1,12,12v36h-24V271a11.91,11.91,0,0,1,12-12m0-2.4A14.47,14.47,0,0,0,473.3,271v38.4h28.8V271a14.4,14.4,0,0,0-14.4-14.4h0Z" transform="translate(-51.88 -54.78)"/><path class="f" d="M478.1,272.2a12,12,0,0,1,12-12c4.1,0,7.2,3.6,7.2,3.6a12,12,0,0,0-21.6,7.2v36h2.4V272.2Z" transform="translate(-51.88 -54.78)"/><path class="f" d="M498.5,271h0a1.16,1.16,0,0,1,1.2,1.2V307h-2.4V272.2A1.16,1.16,0,0,1,498.5,271Z" transform="translate(-51.88 -54.78)"/><path class="p" d="M470,354a1.52,1.52,0,0,1-1.4-1.7v-36a1.52,1.52,0,0,1,1.4-1.7h37a1.52,1.52,0,0,1,1.4,1.7v36A1.52,1.52,0,0,1,507,354H470Z" transform="translate(-51.88 -54.78)"/><path class="h" d="M507.1,315.1a1.06,1.06,0,0,1,.9,1.2v36a1.06,1.06,0,0,1-.9,1.2h-37a1.06,1.06,0,0,1-.9-1.2v-36a1.06,1.06,0,0,1,.9-1.2h37m0-1h-37a2,2,0,0,0-1.9,2.2v36a2,2,0,0,0,1.9,2.2h37a2,2,0,0,0,1.9-2.2v-36a2.11,2.11,0,0,0-1.9-2.2h0Z" transform="translate(-51.88 -54.78)"/><path class="p" d="M468.2,318a1.52,1.52,0,0,1-1.4-1.7v-7.2a1.58,1.58,0,0,1,1.4-1.7h40.7a1.58,1.58,0,0,1,1.4,1.7v7.2a1.52,1.52,0,0,1-1.4,1.7H468.2Z" transform="translate(-51.88 -54.78)"/><path class="h" d="M508.9,307.9a1.06,1.06,0,0,1,.9,1.2v7.2a1.06,1.06,0,0,1-.9,1.2H468.2a1.06,1.06,0,0,1-.9-1.2v-7.2a1.06,1.06,0,0,1,.9-1.2h40.7m0-1H468.2a2,2,0,0,0-1.9,2.2v7.2a2,2,0,0,0,1.9,2.2h40.7a2,2,0,0,0,1.9-2.2v-7.2a2,2,0,0,0-1.9-2.2h0Z" transform="translate(-51.88 -54.78)"/><rect class="d" x="417.22" y="265.12" width="38.9" height="2.4"/><polygon class="f" points="181.42 239.92 150.52 218.81 153.52 219.81 157.72 220.92 163.12 221.92 168.12 222.92 173.02 223.22 182.32 239.12 181.42 239.92"/></svg>