<svg xmlns="http://www.w3.org/2000/svg" viewBox="0 0 193.99 414"><defs><style>.a{fill:#fff;stroke:#c9c9c8;}.a,.b,.c{stroke-miterlimit:22.93;}.b{fill:#c9c9c8;stroke:#fff;opacity:0.57;isolation:isolate;}.c{fill:#80ad5d;stroke:#cacaca;}</style></defs><title>04_chel_a</title><ellipse class="a" cx="103.4" cy="412.1" rx="4.2" ry="1.4"/><path class="a" d="M461.9,407c0-1.8-1-3.2-1.8-3.2h0c-0.8,0-1.8,1.4-1.8,3.2v88.1c0,1.8,1,3.2,1.8,3.2h0c0.8,0,1.8-1.4,1.8-3.2V407Z" transform="translate(-356.7 -86)"/><ellipse class="a" cx="103.4" cy="365.1" rx="4.2" ry="5.7"/><ellipse class="a" cx="413.41" cy="494.82" rx="4.2" ry="1.4" transform="translate(-364.63 -79.27) rotate(-0.92)"/><path class="a" d="M448.8,410.9c0.7-1.7.2-3.4-.5-3.7h0c-0.7-.3-2.2.7-2.9,2.3l-32.5,81.9c-0.7,1.7-.2,3.4.5,3.7h0c0.7,0.3,2.2-.7,2.9-2.3Z" transform="translate(-356.7 -86)"/><ellipse class="a" cx="430.75" cy="451.08" rx="5.7" ry="4.2" transform="translate(-504.02 599.29) rotate(-68.38)"/><ellipse class="a" cx="506.58" cy="494.74" rx="1.4" ry="4.2" transform="translate(-352.96 907.27) rotate(-89.08)"/><path class="a" d="M471.3,410.9c-0.7-1.7-.2-3.4.5-3.7h0c0.7-.3,2.2.7,2.9,2.3l32.5,81.9c0.7,1.7.2,3.4-.5,3.7h0c-0.7.3-2.2-.7-2.9-2.3Z" transform="translate(-356.7 -86)"/><ellipse class="a" cx="489.21" cy="451.1" rx="4.2" ry="5.7" transform="translate(-488.53 126.08) rotate(-21.63)"/><path class="a" d="M454.6,89.7c0-1.8-.2-3.2-0.8-3.2h0c-0.6,0-.8,1.4-0.8,3.2v88.1c0,1.8.2,3.2,0.8,3.2h0c0.6,0,.8-1.4.8-3.2V89.7Z" transform="translate(-356.7 -86)"/><rect class="a" x="8.3" y="7.5" width="177.5" height="3.7"/><rect class="a" x="8.3" y="321" width="177.5" height="14.2"/><path class="a" d="M550.1,414.1s-47.3,5-62.2,5H377.8a128.31,128.31,0,0,1-20.5-1.8s2.9-13,2.9-18V98.2h187v293C547.3,398.2,550.1,414.1,550.1,414.1Z" transform="translate(-356.7 -86)"/><rect class="a" x="3.6" y="9.1" width="187" height="4.7"/><rect class="a" x="25.7" y="103.7" width="30.1" height="30.1"/><rect class="b" x="65.6" y="104.1" width="90.6" height="6"/><rect class="b" x="65.6" y="114.5" width="90.6" height="6"/><rect class="b" x="65.6" y="123.6" width="90.6" height="6"/><rect class="a" x="25.7" y="157" width="30.1" height="30.1"/><rect class="b" x="65.6" y="157.4" width="90.6" height="6"/><rect class="b" x="65.6" y="167.8" width="90.6" height="6"/><rect class="b" x="65.6" y="176.9" width="90.6" height="6"/><rect class="a" x="25.7" y="207.7" width="30.1" height="30.1"/><rect class="b" x="65.6" y="208.2" width="90.6" height="6"/><rect class="b" x="65.6" y="218.6" width="90.6" height="6"/><rect class="b" x="65.6" y="227.7" width="90.6" height="6"/><rect class="a" x="25.7" y="257.1" width="30.1" height="30.1"/><rect class="b" x="65.6" y="257.6" width="90.6" height="6"/><rect class="b" x="65.6" y="268" width="90.6" height="6"/><rect class="a" x="25.7" y="50.4" width="30.1" height="30.1"/><rect class="b" x="65.6" y="50.8" width="90.6" height="6"/><rect class="b" x="65.6" y="61.2" width="90.6" height="6"/><rect class="b" x="65.6" y="70.3" width="90.6" height="6"/><path class="c" d="M395.9,161.2l-2.4-3.5a70.4,70.4,0,0,0-5.7-7.2,2.26,2.26,0,0,1,3.3-3.1c1.3,1.4,2.7,3.1,3.9,4.6,1.9-3.6,5.4-8.6,10-9.4a2.28,2.28,0,1,1,.7,4.5c-3.2.5-6.7,6.5-8.2,10.1Z" transform="translate(-356.7 -86)"/><path class="c" d="M395.9,267.8l-2.4-3.5a70.4,70.4,0,0,0-5.7-7.2,2.26,2.26,0,0,1,3.3-3.1c1.3,1.4,2.7,3.1,3.9,4.6,1.9-3.6,5.4-8.6,10-9.4a2.28,2.28,0,0,1,.7,4.5c-3.2.5-6.7,6.5-8.2,10.1Z" transform="translate(-356.7 -86)"/><path class="c" d="M395.9,318.5l-2.4-3.5a70.4,70.4,0,0,0-5.7-7.2,2.26,2.26,0,0,1,3.3-3.1c1.3,1.4,2.7,3.1,3.9,4.6,1.9-3.6,5.4-8.6,10-9.4a2.28,2.28,0,1,1,.7,4.5c-3.2.5-6.7,6.5-8.2,10.1Z" transform="translate(-356.7 -86)"/><path class="c" d="M395.9,367.9l-2.4-3.5a70.4,70.4,0,0,0-5.7-7.2,2.26,2.26,0,0,1,3.3-3.1c1.3,1.4,2.7,3.1,3.9,4.6,1.9-3.6,5.4-8.6,10-9.4a2.28,2.28,0,0,1,.7,4.5c-3.2.5-6.7,6.5-8.2,10.1Z" transform="translate(-356.7 -86)"/></svg>