<svg xmlns="http://www.w3.org/2000/svg" xmlns:xlink="http://www.w3.org/1999/xlink" viewBox="0 0 312.86 448.1"><defs><style>.a,.b,.h{fill:none;}.b{clip-path:url(#a);}.c,.d,.e,.f{fill:#fff;}.c,.d,.e,.h{stroke:#c9c9c8;}.c,.d,.i{stroke-miterlimit:22.93;}.d{opacity:0.25;isolation:isolate;}.e,.h{stroke-miterlimit:10;}.g{fill:#c9c9c8;}.i{fill:#80ad5d;stroke:#cacaca;}.j{clip-path:url(#b);}.k{fill:url(#c);}</style><clipPath id="a"><polygon class="a" points="1 1 2 1 1 2 1 1"/></clipPath><clipPath id="b" transform="translate(-64.62 -39.2)"><polygon class="b" points="-1 -1 -2 -1 -1 -2 -1 -1"/></clipPath><linearGradient id="c" x1="-60.61" y1="372.83" x2="-50.94" y2="371.12" gradientTransform="matrix(0.96, 0.27, 0.27, -0.96, 188.3, 663.67)" gradientUnits="userSpaceOnUse"><stop offset="0"/><stop offset="0" stop-color="#0f0f0f"/><stop offset="0" stop-color="#373737"/><stop offset="0" stop-color="#777"/><stop offset="0" stop-color="#cfcfcf"/><stop offset="0" stop-color="#fff"/><stop offset="0.18" stop-color="#fff"/><stop offset="0.21" stop-color="#fff"/><stop offset="0.27" stop-color="#fff"/><stop offset="0.32" stop-color="#fff"/><stop offset="0.48" stop-color="#fff"/><stop offset="1" stop-color="#fff"/></linearGradient></defs><title>04_chel</title><ellipse class="c" cx="39.38" cy="72.6" rx="14.3" ry="11.3"/><polygon class="c" points="34.68 207.8 19.68 239.3 14.68 264.3 19.68 343.3 76.68 360.8 155.18 358.8 183.68 323.8 197.18 272.3 205.68 253.8 215.18 231.8 188.68 212.8 135.68 203.8 34.68 207.8"/><path class="c" d="M122.8,386.3c15.2,8,36.4,12.9,59.9,12.9,31.2,0,58.5-8.8,73-21.8a160.16,160.16,0,0,0,11.1-59.3,177,177,0,0,0-2.4-28.6c1.7,3.2,3.4,6.7,5,10.5" transform="translate(-64.62 -39.2)"/><path class="c" d="M174.6,387.6c-35,0-65.6-5.1-82.1-12.6a98,98,0,0,0-1.3,15.4c0,46.2,33.6,84.1,76.4,87.8-4.3-15.8-7.9-41.1-4.7-70.5v-0.1a74.86,74.86,0,0,0,11.7,1,64.46,64.46,0,0,0,11.7-1v0.1c0,28.9,1.4,54.4-4.7,70.5,42.8-3.8,76.4-41.6,76.4-87.8a97,97,0,0,0-1.3-15.4C240.2,382.6,209.7,387.6,174.6,387.6Z" transform="translate(-64.62 -39.2)"/><path class="c" d="M114.1,233.2C93.6,244.1,79,270.5,79,301.3" transform="translate(-64.62 -39.2)"/><path class="c" d="M281.8,271.8c-11.5-19.6-27.8-35.7-51.5-43.5-13.4-14.8-30.4-23.6-49-23.6-17.8,0-34.1,8.1-47.2,21.8a83.13,83.13,0,0,0-14.8,5.1" transform="translate(-64.62 -39.2)"/><path class="c" d="M337.3,267a38.77,38.77,0,0,1,10-4.2c15.1-4.4,15.7-15.3,15.9-23.2,0.2-7.1-7.5-7.8.8-19,0.9-1.3,14.7-11.2,12.8-17.6-0.5-1.9-4.5-2.4-6.8.8-2.8,3.9-8,6.9-12.2,9.9s-7.4,6.1-9.3,7.1c-3,1.6-8.7,6.2-13.9,11.2" transform="translate(-64.62 -39.2)"/><path class="c" d="M335.9,267.9c-2.6,1.7-2.4,1.7-4.5-3.1-3.6-8.2-8.5-16.1-7.4-19.4" transform="translate(-64.62 -39.2)"/><path class="c" d="M370,250c-0.4-2.8-5.1-4.3-10.5-3.4s-9.3,3.9-8.9,6.6,5.1,4.3,10.5,3.4S370.5,252.8,370,250Z" transform="translate(-64.62 -39.2)"/><path class="c" d="M370.6,239.9c-0.9-2.9-6.3-3.7-11.9-1.8s-9.5,5.9-8.6,8.8,6.3,3.7,11.9,1.8S371.5,242.8,370.6,239.9Z" transform="translate(-64.62 -39.2)"/><path class="c" d="M368.3,227.4c-2.1-2.7-8.1-1.3-13.3,3.2s-7.8,10.3-5.6,13,8.1,1.3,13.3-3.2S370.4,230.1,368.3,227.4Z" transform="translate(-64.62 -39.2)"/><path class="c" d="M341.9,245.1A2.89,2.89,0,0,0,343,244a37.21,37.21,0,0,0,5.4-10.3c-0.7,2.7-.5,6.8,3.3,8.9,5.3,2.9,4.8-3.6,7.2-9.2,2.5-6.1-.9-9.7-5.4-10.2s-3.3.7-10.5,0c-3.4-.3-9.6,4.4-10.8,9.4l-3.4,4.3-5,5.6,12,25.2" transform="translate(-64.62 -39.2)"/><path class="c" d="M348.5,234.2a7.29,7.29,0,0,1-1.8-5.3c0-.6-0.4,2,1.9,4.6C349.1,234,348.5,234.2,348.5,234.2Z" transform="translate(-64.62 -39.2)"/><path class="c" d="M348.5,234a5.49,5.49,0,0,1,2.8-2.7,7.29,7.29,0,0,0-2.4,2.5C348.7,234.3,348.5,234,348.5,234Z" transform="translate(-64.62 -39.2)"/><path class="c" d="M277.2,264.8c7.1,6.5,14.8,13.1,16.1,12.7,2.4-.8,27.1-26.1,27.1-26.1l11.3,26.4s-30.6,28.9-38.8,30.8c-8,1.9-26.2-4-32.1-16.3" transform="translate(-64.62 -39.2)"/><path class="c" d="M303,251.9l20.6-12.3s18.4,36.3,18.3,36.7-18.4,15.8-18.4,15.8Z" transform="translate(-64.62 -39.2)"/><path class="c" d="M73.5,375.5c-1.1,5.9-.3,8,7.6,19.4s15.8,15.6,17.1,8.2-1.6-35.7-6.5-35S73.5,375.5,73.5,375.5Z" transform="translate(-64.62 -39.2)"/><path class="c" d="M65.2,367.6l29-6.9,1.3,11.8s-27.1,9.4-27.5,9.2S65.2,367.6,65.2,367.6Z" transform="translate(-64.62 -39.2)"/><path class="c" d="M85,266.5S69.1,303,68.7,335.6,68.1,368,68.1,368l23.1-5-4.4-67.7" transform="translate(-64.62 -39.2)"/><path class="d" d="M201.6,360.1c-1.4-6.7-13.1-94.6-13.6-99.6a56.4,56.4,0,0,0-12-1.3,49.84,49.84,0,0,0-12,1.3c-0.5,5.1-12.2,93-13.6,99.6s16.1,24,22.7,33.3a3.74,3.74,0,0,0,2.9,1.8,4.22,4.22,0,0,0,2.9-1.8C185.5,384.1,203,366.7,201.6,360.1Z" transform="translate(-64.62 -39.2)"/><path class="c" d="M200,359.3c-1.4-6.7-13.1-94.6-13.6-99.7a56.4,56.4,0,0,0-12-1.3,49.84,49.84,0,0,0-12,1.3c-0.5,5.1-12.2,93-13.6,99.7s16.1,24,22.7,33.3a3.74,3.74,0,0,0,2.9,1.8,4.22,4.22,0,0,0,2.9-1.8C183.8,383.3,201.3,366,200,359.3Z" transform="translate(-64.62 -39.2)"/><path class="c" d="M191.3,260.1c0,11-8,16.1-17.3,16.1s-16.4-5.1-16.4-16.1,7.6-19.8,16.9-19.8S191.3,249.2,191.3,260.1Z" transform="translate(-64.62 -39.2)"/><path class="c" d="M191.3,260.5c0,9.9-8,14.5-17.3,14.5s-16.4-4.6-16.4-14.5,7.6-20.2,16.9-20.2S191.3,250.6,191.3,260.5Z" transform="translate(-64.62 -39.2)"/><path class="c" d="M108,236.3L104.1,252s47.7,25.1,46.9,24.2c-0.1-.1,4.2-4,5.4-6.1,3-5.1,17.3-30.2,17.3-30.2s-32.4,4.3-50.6.6C113.8,238.6,113.9,238.5,108,236.3Z" transform="translate(-64.62 -39.2)"/><path class="c" d="M241.5,236.3l3.9,15.7s-47.7,25.1-46.9,24.2c0.1-.1-4.2-4-5.4-6.1-3-5.1-17.3-30.2-17.3-30.2s32.4,4.3,50.6.6C235.7,238.6,235.7,238.5,241.5,236.3Z" transform="translate(-64.62 -39.2)"/><ellipse class="c" cx="19.28" cy="144.5" rx="18.6" ry="15"/><ellipse class="c" cx="199.98" cy="145.8" rx="18.6" ry="15"/><circle class="e" cx="57.38" cy="148.5" r="20.8"/><path class="c" d="M108.2,236a90.9,90.9,0,0,1-27.1-64.8c0-50.9,42.1-92.2,94.1-92.2s94.1,41.3,94.1,92.2-42.1,92.2-94.1,92.2a94.21,94.21,0,0,1-67-27.4" transform="translate(-64.62 -39.2)"/><circle class="f" cx="163.08" cy="138.1" r="20.8"/><circle class="g" cx="76.38" cy="148.4" r="7.3"/><circle class="e" cx="74.98" cy="145.6" r="2.5"/><circle class="g" cx="167.38" cy="147.1" r="7.3"/><circle class="e" cx="165.98" cy="144.3" r="2.5"/><path class="g" d="M182.7,207.9s-0.4-4.2-7.2-4c-8.3.2-8.4,4.3-8.4,4.3S174.6,202.8,182.7,207.9Z" transform="translate(-64.62 -39.2)"/><path class="c" d="M266.7,92.9s4.4-7.4,1.1-11.4C230.7,35.8,162.8,30.2,134.5,52c-29.1-7.6-51.4,20.5-52.3,36.3a25.3,25.3,0,0,0,.1,4.8c-10.5,3.9-20,4.9-16.1,20,4,15.4,7,20.6,7.9,29.5s8.8,20.2,2.5,24.7c-2,1.4-4.4,6.4-.2,9.6,6.7,5.1-.8,6.6,2.5,6.7s0.7-1.2,0,3.8,3,2.9,2.8,4.6-0.7,2.7,2.1,4.1,7.2-13.8,7.4-24.4-3.6-20.4,1.9-36c4.7-13.3,5.4-19,4.4-23.7a9.15,9.15,0,0,0,1.7.1,16,16,0,0,0,7.5-2.7,30.24,30.24,0,0,1,21.6-5c6.9,4.1,16.4,10.7,28.1,16.7,16.9,8.6,31.5,8,34.3,7.2s-7.2-.4-14-5.2c-1.9-1.3-4.2-2.9-6.7-4.7,11.6,3.2,22.2,4.1,26.4-2.6,2-3.3-5.1,11.3-23.7-9.8,20.5,2.6,12.8,4.7,23.1,5.1s10.3-1.9,23-3,10.5-2.4,23.9,5.7a46.22,46.22,0,0,0,7.9,3.7c0.3,4,1.6,9.5,4.7,18.2,5.5,15.6,1.7,25.3,1.9,36s4.6,25.8,7.4,24.4,2.3-2.4,2.1-4.1,3.5,0.4,2.8-4.6-3.3-3.8,0-3.8-4.2-1.5,2.5-6.7c4.2-3.2,1.8-8.2-.2-9.6-6.3-4.5,1.6-15.8,2.5-24.7s4-14,7.9-29.5S277.4,97,266.7,92.9Z" transform="translate(-64.62 -39.2)"/><path class="e" d="M125.7,147.1c-2.2,2.8-5.9,1.8-3.7-1.1,5.5-7.1,17.4-10.9,25.8-8.3,3.4,1.1.6,5.6-2.8,4.5C139.3,140.4,129.5,142.2,125.7,147.1Z" transform="translate(-64.62 -39.2)"/><path class="e" d="M205,147.1c-2.2,2.8-5.9,1.8-3.7-1.1,5.5-7.1,17.4-10.9,25.8-8.3,3.4,1.1.6,5.6-2.8,4.5C218.6,140.4,208.8,142.2,205,147.1Z" transform="translate(-64.62 -39.2)"/><path class="c" d="M206.7,230.1a56.75,56.75,0,0,1-13.7,2.7c-5.8.3-12.1-.8-17.1-0.8-10.2,0-25.7-.5-30.2-1.9a55.59,55.59,0,0,0,28.8,8.7C188.1,238.9,203.1,232.9,206.7,230.1Z" transform="translate(-64.62 -39.2)"/><path class="c" d="M206.7,230.2c-2.4.5-4.6,2.3-13.1,2.6-11.8.4-29-3.8-34.1-5.4-10.7-3.4-15.8,1-14.5,3.6C151.5,243.2,199.6,234.3,206.7,230.2Z" transform="translate(-64.62 -39.2)"/><path class="c" d="M141,227.9c-0.4,2.2-1.4-.9-0.2-2a3,3,0,0,1,2.8-.8A3.06,3.06,0,0,0,141,227.9Z" transform="translate(-64.62 -39.2)"/><path class="c" d="M212.9,231.2c-0.3,2.2,1.6-.4.9-1.8a3.08,3.08,0,0,0-2.4-1.7C210.9,227.6,213.3,228.1,212.9,231.2Z" transform="translate(-64.62 -39.2)"/><path class="c" d="M276.5,156.1c-20.1-7.3-51.6-7.5-73.8-2.9-3.8.8-17,5.1-18.1,5.4a31.26,31.26,0,0,1-9,1.4H173a35.13,35.13,0,0,1-9-1.4c-1.1-.3-14.4-4.7-18.1-5.4-22.2-4.7-53.8-4.5-73.8,2.9,0.1,5.3-1.3,12.1,0,17.5,0.6,2.6,3.9,5.7,5.4,8.3,4.7,8.1,7.2,20.8,13.4,27,7.7,7.8,25.1,8.5,39.5,7.6,21.2-1.3,26.7-12.2,33.4-28,2.3-5.3,4-12.4,9.3-13.4h0a8.5,8.5,0,0,1,2.6,0h0c5.3,1,7.1,8,9.3,13.4,6.7,15.8,12.2,26.7,33.4,28,14.3,0.9,31.8.2,39.5-7.6,6.2-6.3,8.7-18.9,13.4-27,1.5-2.6,4.8-5.6,5.4-8.3C277.8,168.2,276.4,161.4,276.5,156.1Zm-119,32.1c-2.7,9.6-6.5,16.5-13.4,20.4-10.2,5.7-35.5,6.2-45.5,0-6.9-4.3-9.4-12.2-11.1-22.6-1.1-6.8-2-16.5,1-21,5-7.7,26.9-7.9,40.1-7,12.5,0.9,28.1,3.9,30.5,12.1C160.8,175.7,158.9,183.5,157.5,188.2ZM260.9,186c-1.7,10.3-4.3,18.3-11.1,22.6-10,6.2-35.3,5.7-45.5,0-6.8-3.8-10.6-10.7-13.4-20.4-1.3-4.7-3.3-12.5-1.6-18.1,2.4-8.1,18.1-11.2,30.5-12.1,13.2-.9,35.1-0.7,40.1,7C262.9,169.4,262.1,179.1,260.9,186Z" transform="translate(-64.62 -39.2)"/><path class="c" d="M134.9,464c13,0,30.5,7.4,38.2,22.8H113.7C113.3,471.1,122,464,134.9,464Z" transform="translate(-64.62 -39.2)"/><path class="c" d="M213.5,464c-13,0-30.5,7.4-38.2,22.8h59.4C235.2,471.1,226.5,464,213.5,464Z" transform="translate(-64.62 -39.2)"/><path class="h" d="M91.7,387.4a10.28,10.28,0,0,0,6.6,5" transform="translate(-64.62 -39.2)"/><ellipse class="i" cx="233.87" cy="299.84" rx="15.4" ry="6.1" transform="matrix(0.27, -0.96, 0.96, 0.27, -183.22, 403.37)"/><g class="j"><path class="k" d="M232.4,288.6l-0.4.6-0.4.6a18.06,18.06,0,0,0,4.6,2.1,20.48,20.48,0,0,0,5,.7v-1.5A23,23,0,0,1,232.4,288.6Z" transform="translate(-64.62 -39.2)"/></g><path class="i" d="M232.4,288.6l-0.4.6-0.4.6a18.06,18.06,0,0,0,4.6,2.1,20.48,20.48,0,0,0,5,.7v-1.5A23,23,0,0,1,232.4,288.6Z" transform="translate(-64.62 -39.2)"/><polygon class="c" points="181.08 279.1 167.58 285 154.08 279.1 154.08 259.2 181.08 259.2 181.08 279.1"/><path class="c" d="M241.1,291.1s2.5,2.2,2.4,4.7c-0.1,4.3-4,6.3-3.1,6.9,1.9,1.3-.2,3.3-0.5,2s-0.7-2,.2-3,2.5-3,2.4-5.7c-0.1-3.2-1.3-3.3-1.3-3.3Z" transform="translate(-64.62 -39.2)"/></svg>