<?xml version="1.0" encoding="utf-8"?>
<!-- Generator: Adobe Illustrator 19.2.0, SVG Export Plug-In . SVG Version: 6.00 Build 0)  -->
<svg version="1.1" id="Layer_1" xmlns="http://www.w3.org/2000/svg" xmlns:xlink="http://www.w3.org/1999/xlink" x="0px" y="0px"
	 viewBox="0 0 207.8 404" style="enable-background:new 0 0 207.8 404;" xml:space="preserve">
<style type="text/css">
	.st0{fill:#CBCBCB;}
	.st1{fill:#FFFFFF;stroke:#CBCBCB;stroke-miterlimit:10;}
	.st2{fill:none;stroke:#CBCBCB;stroke-miterlimit:10;}
</style>
<title>01_chel_a</title>
<path class="st0" d="M121.6,149.9c0,0,8.2,8,22.5,8.3c17.9,0.3,26.9-9.9,26.9-9.9s-14.2,7.6-26.4,7.1
	C136.7,154.9,128.9,153,121.6,149.9z"/>
<g>
	<rect x="5.1" y="5" class="st1" width="197.8" height="231.7"/>
	<rect x="22.2" y="96.1" class="st1" width="74.5" height="2.6"/>
	<rect x="22.2" y="101.8" class="st1" width="74.5" height="2.6"/>
	<rect x="22.2" y="107.5" class="st1" width="74.5" height="2.6"/>
	<rect x="22.2" y="113.2" class="st1" width="74.5" height="2.6"/>
	<rect x="22.2" y="119" class="st1" width="74.5" height="2.6"/>
	<rect x="22.2" y="72.8" class="st1" width="74.5" height="13.9"/>
	<path class="st2" d="M202.9,0.5H0.5v240.7h206.8V0.5H202.9z M198.3,232.2H9.5V9.5h188.8V232.2z"/>
	<rect x="9.6" y="9.5" class="st1" width="188.7" height="31.8"/>
	<rect x="108.3" y="183.7" class="st1" width="74.5" height="2.6"/>
	<rect x="108.3" y="189.4" class="st1" width="74.5" height="2.6"/>
	<rect x="108.3" y="195.2" class="st1" width="74.5" height="2.6"/>
	<rect x="108.3" y="200.9" class="st1" width="74.5" height="2.6"/>
	<rect x="108.3" y="206.6" class="st1" width="74.5" height="2.6"/>
	<rect x="108.3" y="160.5" class="st1" width="74.5" height="13.9"/>
	<circle class="st1" cx="57.4" cy="186.5" r="31.6"/>
	<path class="st1" d="M74.8,213c4.6-3,8.3-7.1,10.8-12l-28.2-14.4L74.8,213z"/>
	<path class="st1" d="M85.6,201c6.9-13.5,3.3-30-8.6-39.3l-19.5,24.9L85.6,201z"/>
	<path class="st1" d="M76.9,161.6c-5.6-4.4-12.4-6.7-19.5-6.7v31.6L76.9,161.6z"/>
	<path class="st1" d="M57.4,154.9v31.6l-22.5-22.1C40.8,158.3,48.9,154.9,57.4,154.9z"/>
	<rect x="108.3" y="132.9" class="st1" width="74.5" height="3.7"/>
	<rect x="169.6" y="56.4" class="st1" width="13.2" height="76.5"/>
	<rect x="154.2" y="85.2" class="st1" width="13.2" height="47.6"/>
	<rect x="138.9" y="101.4" class="st1" width="13.2" height="31.5"/>
	<rect x="123.6" y="86.6" class="st1" width="13.2" height="46.3"/>
	<rect x="108.3" y="99.8" class="st1" width="13.2" height="33.1"/>
	<path class="st1" d="M99.4,241.2v116.3c0,2.5,2,4.5,4.5,4.5s4.5-2,4.5-4.5V241.2H99.4z"/>
	<path class="st1" d="M179.5,396.5l-48.9-155.3h-9.5l23.2,73.8H63.6l23.2-73.8h-9.5L28.5,396.5c-2.2,7.8,6.5,9.6,8.7,2.7l23.6-75.1
		h86.4l23.6,75.1C172.7,405.2,181.6,403.2,179.5,396.5z"/>
</g>
</svg>
