<svg xmlns="http://www.w3.org/2000/svg" width="160.688" height="20.406" viewBox="0 0 160.688 20.406">
  <defs>
    <style>
      .cls-1 {
        fill: #f8fbf8;
        fill-rule: evenodd;
      }
    </style>
  </defs>
  <path id="logo_rebus" class="cls-1" d="M43.664,46.256H52.45V30.215h8.729a2.014,2.014,0,0,1,.567.057q2.154,0.17,2.154,1.19v1.87q0,1.134-2.324,1.134H58q-4.818,0-5.272,2.607a1.576,1.576,0,0,0,.68,1.587l9.239,7.6H73.026L63.05,38.151l1.36,0.057q0.566,0,1.53-.057a12.229,12.229,0,0,0,4.195-.964q2.494-1.133,2.494-3.117V29.988q0-4.137-8.446-4.138H43.664V46.256Zm43.588,0h16.891V41.835H88.556q-2.268-.113-2.267-1.36V38.207h17.855V33.786H86.289V31.519q0-.906,1.474-1.19a3.548,3.548,0,0,0,.567-0.113h15.814V25.851H86.005q-7.2,0-8.332,3.514a2.917,2.917,0,0,0-.17.907V42.005q0,4.251,9.749,4.251h0Zm21.822,0h20.69q8.614,0,8.615-4.591V39.624q0-2.834-3.627-3.628,3.513-.963,3.514-3.911V30.442a4.285,4.285,0,0,0-.51-2.381q-1.53-2.211-7.6-2.211H109.074V46.256Zm18.252-8.049q2.154,0.17,2.154,1.19v1.3q0,1.02-1.984,1.134H117.86V38.207h9.466Zm0.227-7.992a4.189,4.189,0,0,1,1.077.17,1.218,1.218,0,0,1,.963.964v1.36q0,0.965-2.04,1.077H117.86V30.215h9.693Zm16.834,13.6q2.211,2.438,8.446,2.437h11.28q5.894,0,8.219-2.267a3.752,3.752,0,0,0,.907-2.834v-15.3h-8.786V40.928l-0.057.17q-0.283.737-2.947,0.737H155.5q-2.778,0-3-.794V25.851h-8.786v15.3a4.1,4.1,0,0,0,.68,2.664h0Zm33.782-9.636a2.828,2.828,0,0,0,1.361,2.211,11.3,11.3,0,0,0,6.858,1.814H193.7q1.871,0.114,1.871.964v1.474q0,0.85-2.041,1.19h-15.3v4.421h17.345a17.706,17.706,0,0,0,5.442-.737q3.343-1.133,3.344-3.571V37.811q0-2.266-3.231-3.288a15.425,15.425,0,0,0-4.988-.737h-6.915q-1.929-.113-2.211-0.907a0.445,0.445,0,0,1-.057-0.283v-1.36q0-.906,1.927-0.964l15.475-.057V25.851H186.5q-6.576,0-8.106,3a2.5,2.5,0,0,0-.227,1.02v4.308Z" transform="translate(-43.656 -25.844)"/>
</svg>
