<svg xmlns="http://www.w3.org/2000/svg" viewBox="0 0 207.8 403.99"><defs><style>.a{fill:#cbcbcb;}.b{fill:#fff;}.b,.c{stroke:#cbcbcb;stroke-miterlimit:10;}.c{fill:none;}</style></defs><title>01_chel_a</title><path class="a" d="M424.1,227.5s8.2,8,22.5,8.3c17.9,0.3,26.9-9.9,26.9-9.9s-14.2,7.6-26.4,7.1A71.29,71.29,0,0,1,424.1,227.5Z" transform="translate(-302.5 -77.6)"/><rect class="b" x="5.1" y="5" width="197.8" height="231.7"/><rect class="b" x="22.2" y="96.1" width="74.5" height="2.6"/><rect class="b" x="22.2" y="101.8" width="74.5" height="2.6"/><rect class="b" x="22.2" y="107.5" width="74.5" height="2.6"/><rect class="b" x="22.2" y="113.2" width="74.5" height="2.6"/><rect class="b" x="22.2" y="119" width="74.5" height="2.6"/><rect class="b" x="22.2" y="72.8" width="74.5" height="13.9"/><path class="c" d="M505.4,78.1H303V318.8H509.8V78.1h-4.4Zm-4.6,231.7H312V87.1H500.8V309.8Z" transform="translate(-302.5 -77.6)"/><rect class="b" x="9.6" y="9.5" width="188.7" height="31.8"/><rect class="b" x="108.3" y="183.7" width="74.5" height="2.6"/><rect class="b" x="108.3" y="189.4" width="74.5" height="2.6"/><rect class="b" x="108.3" y="195.2" width="74.5" height="2.6"/><rect class="b" x="108.3" y="200.9" width="74.5" height="2.6"/><rect class="b" x="108.3" y="206.6" width="74.5" height="2.6"/><rect class="b" x="108.3" y="160.5" width="74.5" height="13.9"/><circle class="b" cx="57.4" cy="186.5" r="31.6"/><path class="b" d="M377.3,290.6a32,32,0,0,0,10.8-12l-28.2-14.4Z" transform="translate(-302.5 -77.6)"/><path class="b" d="M388.1,278.6a31.57,31.57,0,0,0-8.6-39.3L360,264.2Z" transform="translate(-302.5 -77.6)"/><path class="b" d="M379.4,239.2a31.52,31.52,0,0,0-19.5-6.7v31.6Z" transform="translate(-302.5 -77.6)"/><path class="b" d="M359.9,232.5v31.6L337.4,242A31.18,31.18,0,0,1,359.9,232.5Z" transform="translate(-302.5 -77.6)"/><rect class="b" x="108.3" y="132.9" width="74.5" height="3.7"/><rect class="b" x="169.6" y="56.4" width="13.2" height="76.5"/><rect class="b" x="154.2" y="85.2" width="13.2" height="47.6"/><rect class="b" x="138.9" y="101.4" width="13.2" height="31.5"/><rect class="b" x="123.6" y="86.6" width="13.2" height="46.3"/><rect class="b" x="108.3" y="99.8" width="13.2" height="33.1"/><path class="b" d="M401.9,318.8V435.1a4.5,4.5,0,0,0,9,0V318.8h-9Z" transform="translate(-302.5 -77.6)"/><path class="b" d="M482,474.1L433.1,318.8h-9.5l23.2,73.8H366.1l23.2-73.8h-9.5L331,474.1c-2.2,7.8,6.5,9.6,8.7,2.7l23.6-75.1h86.4l23.6,75.1C475.2,482.8,484.1,480.8,482,474.1Z" transform="translate(-302.5 -77.6)"/></svg>