<svg xmlns="http://www.w3.org/2000/svg" viewBox="0 0 357.29 449.4"><defs><style>.a,.b,.d,.e{fill:#fff;}.a,.d,.e,.f{stroke:#cacaca;}.a,.f{stroke-miterlimit:10;}.c,.h{fill:#82b45c;}.c{stroke:#cbcbcb;}.c,.d,.e{stroke-miterlimit:22.93;}.d{stroke-width:1.2px;}.f{fill:none;}.g{fill:#cacaca;}</style></defs><title>02_chel</title><path class="a" d="M352.3,349.7c-13.8,1.7-27.6-4.3-38.7-16.9-10.5-11.9-17.5-28.4-19.7-46.5a89.21,89.21,0,0,1-.7-11.6h13.6a82.2,82.2,0,0,0,.6,9.9c3.7,30.7,23.1,53.7,43.3,51.3,6.9-.8,13.3-4.7,18.5-11.1l10.5,8.7C372.3,342.9,362.8,348.4,352.3,349.7Z" transform="translate(-115.62 -47.4)"/><path class="a" d="M192.5,369.9a67,67,0,0,1-7.7-31.2c0-34.5,26-64,63.2-71.9l3.6,17.1c-29.1,6.1-49.4,28.7-49.4,54.8a49.74,49.74,0,0,0,5.7,23.2Z" transform="translate(-115.62 -47.4)"/><path class="a" d="M241.4,267.6c-11.9,10.6-9.4,29.4,4.2,43.3,18,18.4,22.5,29.1,22.5,29.1s34.8-47.5,27.8-65.4C287.4,252.9,253.3,257,241.4,267.6Z" transform="translate(-115.62 -47.4)"/><path class="a" d="M225.1,294.9c1.1,5.3,3.7,10.3,5.5,16.8,4.4,15.4,2.4,33.6-8.5,61.9,6.8,3.2,45.7,2.4,49.7-17.4,0.2,18.9,43.4,19,42.9,17.4-8.4-25.5-19.6-39.4-6.9-67.1,6.4-13.8,4.7-16.7,2.9-24.9-3.8-17.1-8.4-7.9-10.1-3-8.7,24.7-30.3,47.6-30.3,47.6s-29.7-26.8-37-47.6c-1-2.8-.9-6.4-1.6-7.2" transform="translate(-115.62 -47.4)"/><path class="a" d="M270.7,334.2s-3,.4.8,12.1C271.5,346.3,271,346,270.7,334.2Z" transform="translate(-115.62 -47.4)"/><circle class="b" cx="149.68" cy="281.9" r="2.5"/><circle class="b" cx="147.18" cy="300.9" r="2.5"/><circle class="b" cx="150.48" cy="300.6" r="2.5"/><path class="a" d="M291.6,264.1c6,1.6,21.5,7.1,19.2,10s-11,7.3-11.8,9.3a28.12,28.12,0,0,1,5.1,2.9c2.3,1.8,6.7,4.5,4.3,6.9-12,12-37.5,33.2-37.4,33.1,9.8-14.5,18.7-33.4,22.1-50.8,1-5.1-1-8-3.6-11.9C289.8,263.7,290.6,263.9,291.6,264.1Z" transform="translate(-115.62 -47.4)"/><circle class="c" cx="286.55" cy="264.36" r="2.2" transform="translate(-100.11 497.2) rotate(-88.65)"/><path class="a" d="M234.9,286a25.42,25.42,0,0,0-4.6,3.5c-2,2.1-5.9,5.3-3.4,7.5,12.7,11.2,43.5,29.5,43.4,29.4A199.12,199.12,0,0,1,245.8,291c-4-7.5-9.8-17.2-4.8-25.6-0.8.3-22.3,7.7-18.4,12.1,2.7,2.8,11.3,6.4,12.3,8.5" transform="translate(-115.62 -47.4)"/><circle class="c" cx="245.82" cy="264.76" r="2.2" transform="translate(-140.28 456.87) rotate(-88.65)"/><path class="a" d="M246.4,277.1A197.76,197.76,0,0,0,267.2,305c6.8-6.3,18.8-25,20.5-29.6,3.2-8.7,1.3-9.3-3.3-11.9-9.1-5.2.7-28.8-6.6-34.7-5.5-4.5-14.7-4.9-21-2.2-12.6,5.2-.2,33.9-12.2,39.1C242.3,266.7,241.7,269.5,246.4,277.1Z" transform="translate(-115.62 -47.4)"/><circle class="c" cx="288.07" cy="265.96" r="2.2" transform="translate(-100.27 500.25) rotate(-88.64)"/><circle class="c" cx="243.94" cy="267.25" r="2.2" transform="translate(-144.61 457.41) rotate(-88.65)"/><ellipse class="c" cx="248.8" cy="271.8" rx="2.6" ry="2.7" transform="translate(-130.64 -32.85) rotate(-3.25)"/><ellipse class="c" cx="255" cy="275.8" rx="2.6" ry="2.7" transform="translate(-130.83 -32.51) rotate(-3.25)"/><circle class="c" cx="262.9" cy="278.4" r="2.7" transform="translate(-130.9 -32.13) rotate(-3.23)"/><ellipse class="c" cx="270.9" cy="278.6" rx="2.6" ry="2.7" transform="translate(-130.93 -31.64) rotate(-3.24)"/><ellipse class="c" cx="285" cy="270.6" rx="2.6" ry="2.7" transform="translate(-130.46 -30.86) rotate(-3.24)"/><ellipse class="c" cx="278.8" cy="275.5" rx="2.6" ry="2.7" transform="translate(-130.71 -31.24) rotate(-3.23)"/><path class="d" d="M268.5,389.5c-18.3,0-34.3-5.9-42.9-14.7-0.4,5.8-.7,11.8-0.7,18,0,53.8,17.6,97.9,39.9,102.2a505.19,505.19,0,0,1-2.4-82v-0.1a17.46,17.46,0,0,0,12.2,0V413c0,33.6.7,63.3-2.4,82,22.4-4.4,39.9-48.5,39.9-102.2,0-6.1-.2-12.1-0.7-18C302.8,383.6,286.8,389.5,268.5,389.5Z" transform="translate(-115.62 -47.4)"/><path class="e" d="M238.9,480.6c8.9,0,20.9,5,26.2,15.7H224.4C224,485.5,230,480.6,238.9,480.6Z" transform="translate(-115.62 -47.4)"/><path class="e" d="M299.6,480c-9.2,0-21.7,5.2-27.2,16.3h42.3C315,485,308.8,480,299.6,480Z" transform="translate(-115.62 -47.4)"/><path class="e" d="M318.2,336.2c-30.7-3-50.1,14.5-50.1,14.5l2.1,3.3,2.1,3.3C272.4,357.2,302.6,356.4,318.2,336.2Z" transform="translate(-115.62 -47.4)"/><path class="a" d="M136.3,403.3c1.6,2.5,68.5-18.2,100.6-31.5l-6-9.1C197.4,373.7,134.7,400.7,136.3,403.3Z" transform="translate(-115.62 -47.4)"/><path class="e" d="M217.7,369.6c4.1-1.5,6.8-2.4,10.5-3.7,0.2,0.3-.6,1.3-0.2,1.9l-74.8,27.8C159.6,392.5,191.5,379.1,217.7,369.6Z" transform="translate(-115.62 -47.4)"/><path class="a" d="M275.4,357h0c-0.7.3-2.4-1.3-3.8-3.4s-1.9-4.1-1.2-4.4l-38.1,12c-2.3.8-2.5,4-.5,7.1s5.4,4.9,7.7,4Z" transform="translate(-115.62 -47.4)"/><path class="e" d="M243,370.9c-2.3.5-5.9-.8-7.8-3.8s-1.1-5.8.7-6.9l-1.6.1c-2.4.9-3.3,4.4-1.3,7.6s6.4,4.8,8.8,3.9Z" transform="translate(-115.62 -47.4)"/><path class="e" d="M247.5,368.9a8.2,8.2,0,0,1-7.6-3.7c-1.8-2.8-1.1-5.6.7-6.8l-1.5.1c-2.3.9-3.2,4.3-1.2,7.4s6.2,4.7,8.5,3.8Z" transform="translate(-115.62 -47.4)"/><path class="e" d="M265.3,350.9c-1.4.8-2.1,3.1-.6,5.3a6.37,6.37,0,0,0,5.9,2.9l-0.8.7c-1.8.7-5.1-.6-6.7-3s-0.8-5.2,1-5.8Z" transform="translate(-115.62 -47.4)"/><path class="e" d="M218.6,377.1a0.76,0.76,0,0,0-.1-0.4c-0.6-2.8-4.2-10.5-5.4-11.6-1.4-1.2-5-2.4-18.5.7,0,0-.3.1-0.8,0.3h0c-0.1,0-.2.1-0.3,0.1h-0.1c-0.1,0-.2.1-0.3,0.1H193c-0.1.1-.3,0.1-0.4,0.2h0a0.76,0.76,0,0,1-.4.2h-0.1a0.52,0.52,0,0,1-.4.2,0.1,0.1,0,0,0-.1.1c-0.3.2-.5,0.4-0.8,0.6l-0.1.1-0.3.3a0.1,0.1,0,0,1-.1.1,1.38,1.38,0,0,0-.3.4h0a1.47,1.47,0,0,0-.2.4V369c0,0.1-.1.2-0.1,0.3v0.5c0.2,2.4,2.5,19.5,3.6,20.8s3.2,0.9,5.2-.5a3.32,3.32,0,0,0,3.5,1.5,4,4,0,0,0,2.6-2.9,3.45,3.45,0,0,0,3.6,1.6,2.16,2.16,0,0,0,1.8-2.7,3.38,3.38,0,0,0,4.2.3c2.4-1.6.6-8.3,0.6-8.3s3.3-.8,3.6-2.3V377C218.6,377.2,218.6,377.2,218.6,377.1Z" transform="translate(-115.62 -47.4)"/><path class="e" d="M209.5,366.5L193,370.2a4.1,4.1,0,0,1-4.9-3.2l-0.1-.3a4.06,4.06,0,0,1,3.1-4.9l16.5-3.7a4.1,4.1,0,0,1,4.9,3.2l0.1,0.3A4.11,4.11,0,0,1,209.5,366.5Z" transform="translate(-115.62 -47.4)"/><path class="e" d="M349.6,294.9c-9.5,12.7-3.3,38.3,1.1,49.9s44.8,71.7,87.4,52.9,37.8-58.2,26.4-80.2-43.6-46.6-62.2-47.8c-20.8-1.4-6.9,13.3-4.9,23.8s-5.6,9.7-17.9,4S356.2,286,349.6,294.9Zm22.8,14c3.5-1.2,7.8,1.9,9.6,7s0.4,10.2-3.1,11.5-7.8-1.9-9.6-7S368.9,310.1,372.4,308.9Z" transform="translate(-115.62 -47.4)"/><path class="c" d="M386.8,343.7c-4.5,1.2-9.7,1.2-9.9,7.5s-3.8,8.4,2.6,14.9,8.2,0.2,13.9-1.3,3-9.8,2.2-14.9C394.8,345,392.5,342.3,386.8,343.7Z" transform="translate(-115.62 -47.4)"/><path class="e" d="M427.6,374c-2.8-3.7-4.8-8.6-10.6-6.3s-9.2-.4-12.8,8.1,2.9,7.7,6.4,12.4,10.2-.9,14.6-3.6S431.1,378.7,427.6,374Z" transform="translate(-115.62 -47.4)"/><path class="e" d="M372.4,322.3a2.89,2.89,0,0,0,.5,3.6,3.38,3.38,0,0,0,1.2.6l0.2,0.1a8.26,8.26,0,0,1,3,1.7,9.34,9.34,0,0,1,2.2,2.7l0.1,0.2a2.84,2.84,0,0,0,.8,1.1,2.74,2.74,0,0,0,3.6-.1l0.3-.3,0.1-.1c2-2.4,1-6.5-2.1-9.2s-7.4-3-9.4-.7c-0.1.1-.1,0.2-0.2,0.3Z" transform="translate(-115.62 -47.4)"/><circle class="a" cx="146.78" cy="294.1" r="2.6"/><circle class="a" cx="285.39" cy="250.89" r="2.2" transform="translate(-130.76 -29.05) rotate(-3.59)"/><path class="a" d="M180.3,48.8c-46.3-8.4-69.2,43.9-54.2,76.9,11.7,25.8,5.4,38.4-9.6,34.8,5.5,12,56.2,52.4,91.2-16S202.5,52.9,180.3,48.8Z" transform="translate(-115.62 -47.4)"/><path class="a" d="M169.5,57.3c-11-4.8-34.3,2.3-42.6,30.4-3.9,13.1-1.2,30-1.2,30s3.6-44,44.9-35.1C216,92.4,169.5,57.3,169.5,57.3Z" transform="translate(-115.62 -47.4)"/><path class="a" d="M193.5,101c-10.8,3.5-31.4-11.3-31.7,36.2-0.2,33.6-16.2,40.5-38.6,29.2,0,0,30.4,29.7,71.6,3C239.7,140.5,242.2,85.4,193.5,101Z" transform="translate(-115.62 -47.4)"/><circle class="c" cx="218.89" cy="78.64" r="13.9" transform="translate(20.05 248.44) rotate(-88.8)"/><circle class="a" cx="197.5" cy="207.97" r="6.8" transform="translate(-138.32 344.33) rotate(-86.32)"/><path class="a" d="M255.6,167.7c11.3-2.3,22.9-2,34.3-.9,11.1,1,29.8,32.6,35.3,25.8,13.1-16.2,26.7-128.9-65.5-129.5-105.3-.6-91.1,142.1-45.3,138.5C237.6,199.7,232.6,172.4,255.6,167.7Z" transform="translate(-115.62 -47.4)"/><path class="e" d="M204.3,168.7v6.4c0.8,45.9,32.8,77.2,66.5,80.3,24.5,2.3,55.5-33.5,56.8-76.2" transform="translate(-115.62 -47.4)"/><path class="b" d="M329.7,180.4q0.15-3.9,0-7.8c-1.8-49.1-19.4-78.8-66.2-78.2-46.4.5-63.8,30.4-65.2,76.3" transform="translate(-115.62 -47.4)"/><path class="a" d="M192.7,201.9a22.15,22.15,0,0,0,10.8,1.1c0.1-.1.1-0.3,0.2-0.4,1.7-3-.9-18.1-1.7-21.2-1.9-7.8-5.2-13.3-11.7-11.1C176.9,175,181.8,197.6,192.7,201.9Z" transform="translate(-115.62 -47.4)"/><path class="a" d="M199.6,194.5c3.6-3.9-1.8-15-5.1-16.5-2.7-1.3-8.5,2.2-4.7,8.4,0.7-6.2,4-2.6,4.2,1.8,0.1,2.9-2.2,3.2.6,6.7C196.1,196.8,198.5,195.8,199.6,194.5Z" transform="translate(-115.62 -47.4)"/><path class="a" d="M197.8,182.2a106.77,106.77,0,0,1-.6-62.3" transform="translate(-115.62 -47.4)"/><path class="a" d="M197.8,182.1a114.87,114.87,0,0,0,12.5,27.6c-6-19.5-11-73,1.5-89.4s38.6-8.1,52.2,2.8a26.93,26.93,0,0,1,1.3-6.4c0.5,0.5,4.7,3.8,5.3,4.9,1.9-8.6,10.4-6.6,15-1,5.3-18.8,33-19.7,40.9,29.2" transform="translate(-115.62 -47.4)"/><circle class="a" cx="196.8" cy="207.28" r="5.3" transform="translate(-138.26 343.01) rotate(-86.33)"/><path class="a" d="M280.8,189.9s-0.5-4.6-8-4.4c-9.1.3-9.2,4.8-9.2,4.8S271.9,184.3,280.8,189.9Z" transform="translate(-115.62 -47.4)"/><path class="b" d="M194.3,142.1s1.5,24.3,2,28.1,3.7,14.1,4.5,16.9a4.71,4.71,0,0,0,3.1,3.3l0.2-7.5-1.2-13.4,0.2-10.2-3.1-8.1Z" transform="translate(-115.62 -47.4)"/><path class="a" d="M226.7,149.7c-2.9,2.1-6.1,0-3.2-2.1,7.2-5.2,19.6-5.5,26.9-.6,2.9,2-1,5.5-4,3.5C241.5,147.2,231.7,146.1,226.7,149.7Z" transform="translate(-115.62 -47.4)"/><path class="a" d="M314.4,146.1c3.3,1.2,5.9-1.6,2.5-2.8-8.4-3.1-20.4-.1-26.1,6.5-2.3,2.7,2.4,5,4.7,2.3C299.5,147.6,308.6,144,314.4,146.1Z" transform="translate(-115.62 -47.4)"/><path class="f" d="M327.4,139.3c1.9,10.4,2,27.3,0,46.5" transform="translate(-115.62 -47.4)"/><ellipse class="a" cx="241.2" cy="174.11" rx="11.3" ry="10.5" transform="translate(-155.85 30.33) rotate(-16.92)"/><path class="g" d="M233.2,177.4a8.11,8.11,0,0,0,10.3,5c4.5-1.4,7-5.8,5.8-9.9a8.11,8.11,0,0,0-10.3-5C234.5,168.9,231.9,173.3,233.2,177.4Z" transform="translate(-115.62 -47.4)"/><ellipse class="b" cx="236.12" cy="172.37" rx="2.7" ry="2.5" transform="translate(-155.57 28.8) rotate(-16.92)"/><path class="g" d="M247.5,165.1s-3.4-3.2-9.6-2.1c-6.4,1.2-9,4-12.3,2.4,0,0,1.6,2.7,4.4,2.6,0,0-4.6,1.3-6.4.5,0,0,3.8,4,7.8,1.1a13,13,0,0,1,7.1-4.9A14.59,14.59,0,0,1,247.5,165.1Z" transform="translate(-115.62 -47.4)"/><ellipse class="a" cx="302.51" cy="168.73" rx="10.5" ry="11.3" transform="translate(-17.65 400.87) rotate(-82.96)"/><path class="g" d="M309.7,170.8c-0.5,4.3-4.7,7.3-9.3,6.7s-7.9-4.5-7.4-8.8,4.7-7.3,9.3-6.7S310.3,166.5,309.7,170.8Z" transform="translate(-115.62 -47.4)"/><ellipse class="b" cx="306.02" cy="166.33" rx="2.5" ry="2.7" transform="translate(-12.19 402.25) rotate(-82.96)"/><path class="g" d="M294.8,161s2.8-3.8,9.1-3.7c6.5,0.1,9.5,2.4,12.6.2,0,0-1.1,2.9-3.9,3.3,0,0,4.7.5,6.4-.6,0,0-3.1,4.6-7.5,2.4a12.84,12.84,0,0,0-7.8-3.6A14.92,14.92,0,0,0,294.8,161Z" transform="translate(-115.62 -47.4)"/><path class="a" d="M293.1,213a45.08,45.08,0,0,1-17,4.8,2.77,2.77,0,0,0-.9.1h-0.6c-0.3,0-.6.1-0.9,0.1a44.3,44.3,0,0,1-17.6-2.1c4.7,8.2,11.9,11.4,19.2,11.4h0.6A21.33,21.33,0,0,0,293.1,213Z" transform="translate(-115.62 -47.4)"/><path class="a" d="M301.2,207.7c-0.3-.8-2.5-0.4-3.4,1.1a6.68,6.68,0,0,1-2.1,1.7c-2.6.9-6.2,1.8-9.3,1.4-7.6-1.1-5.7.9-10.2,2.2a6.88,6.88,0,0,1-1.3.2h-2c-4.6-.6-3.1-2.8-10.4-0.6a21.34,21.34,0,0,1-9.4.1,6.13,6.13,0,0,1-2.3-1.3c-1.1-1.3-3.3-1.4-3.5-.6s1.8,1.2,2.7,1.8a0.1,0.1,0,0,1,.1.1c5.2,3.7,14.7,5.4,24.5,5h0.6c9.8-1.2,18.9-4.3,23.4-8.7l0.1-.1C299.6,209.1,301.5,208.6,301.2,207.7Z" transform="translate(-115.62 -47.4)"/><path class="h" d="M299.1,336.9l8.6-.8,9.5-.2,1,0.3-4.7,5.6-6,4.5s-4.1.8-2.3-2.5,3.7-2.7.2-3.9A36.62,36.62,0,0,1,299.1,336.9Z" transform="translate(-115.62 -47.4)"/><path class="e" d="M455.8,369.1c1.1-3.8,3.4-7.7-1.2-10.3s-4.5-6.2-12.3-4.1-3.8,5.9-5.2,10.8,6,6.2,10.1,7.6S454.4,373.9,455.8,369.1Z" transform="translate(-115.62 -47.4)"/><path class="e" d="M448.8,316.2c-4.3,1.7-9.5,2.4-8.8,8.7s-2.7,8.8,4.5,14.5,8.1-.8,13.7-3,1.8-10.1.3-15S454.3,314,448.8,316.2Z" transform="translate(-115.62 -47.4)"/><path class="e" d="M428.9,293.2c-4.1-.2-8.8-1.7-9.3,3.7s-4,6.2,1.3,13.6,7.3,2.5,12.5,2.8,3.4-7.6,3-12.2S434.1,293.5,428.9,293.2Z" transform="translate(-115.62 -47.4)"/></svg>