<svg xmlns="http://www.w3.org/2000/svg" viewBox="0 0 512.22 438.91"><defs><style>.a,.b,.c,.e{fill:#fff;}.a,.b,.c,.e,.f{stroke:#cacaca;}.a,.f{stroke-miterlimit:22.93;}.b,.c{stroke-linecap:round;stroke-linejoin:round;}.c{stroke-width:0.5px;}.d{fill:#cacaca;}.e{stroke-miterlimit:10;}.f,.g{fill:#80ad5d;}</style></defs><title>persone5</title><path class="a" d="M361.5,439.5a1.58,1.58,0,0,0,1.56,1.6H385.7a1.58,1.58,0,0,0,1.6-1.56s0,0,0,0V429.3H361.6v10.2h-0.1Z" transform="translate(-4.68 -4.3)"/><path class="a" d="M429.5,439.5a1.58,1.58,0,0,0,1.56,1.6H453.7a1.58,1.58,0,0,0,1.6-1.56s0,0,0,0v-8.1H429.6v8.1h-0.1Z" transform="translate(-4.68 -4.3)"/><rect class="a" x="352.82" y="205.8" width="101.8" height="221.3"/><rect class="a" x="356.82" y="212.7" width="93.7" height="214.4"/><rect class="a" x="356.82" y="293.4" width="93.7" height="26.5"/><path class="a" d="M455.2,337.2v39.2a133.64,133.64,0,0,1-93.8,0V337.2a92.26,92.26,0,0,0,46.9,12.7,93.71,93.71,0,0,0,46.9-12.7h0Zm0,46a139.83,139.83,0,0,1-93.8,0v48.2h93.7V383.2h0.1Z" transform="translate(-4.68 -4.3)"/><path class="a" d="M372.2,316.4a5.7,5.7,0,1,0-5.7-5.7,5.63,5.63,0,0,0,5.56,5.7h0.14Z" transform="translate(-4.68 -4.3)"/><path class="a" d="M372.2,315.5a4.8,4.8,0,0,0,4.8-4.8,4.74,4.74,0,0,0-4.68-4.8H372.2a4.8,4.8,0,0,0-4.8,4.8,4.74,4.74,0,0,0,4.68,4.8h0.12Z" transform="translate(-4.68 -4.3)"/><path class="a" d="M372.2,315.3a4.5,4.5,0,1,0-4.5-4.5,4.42,4.42,0,0,0,4.34,4.5h0.16Z" transform="translate(-4.68 -4.3)"/><rect class="a" x="356.82" y="229.8" width="93.7" height="19.6"/><rect class="a" x="356.82" y="256.6" width="93.7" height="19.6"/><path class="a" d="M370.5,246.8a1.22,1.22,0,0,0,1.2,1.2h73.5a1.22,1.22,0,0,0,1.2-1.2v-6.9a1.22,1.22,0,0,0-1.2-1.2H371.7a1.22,1.22,0,0,0-1.2,1.2v6.9h0Z" transform="translate(-4.68 -4.3)"/><path class="a" d="M446.3,240v0.4a1.16,1.16,0,0,0-1.12-1.2H371.6a1.22,1.22,0,0,0-1.2,1.2V240a1.22,1.22,0,0,1,1.2-1.2h73.5A1.22,1.22,0,0,1,446.3,240Z" transform="translate(-4.68 -4.3)"/><path class="a" d="M446.3,240.4v6.4a1.22,1.22,0,0,1-1.2,1.2H371.6a1.22,1.22,0,0,1-1.2-1.2v-6.4a1.16,1.16,0,0,1,1.12-1.2H445.1A1.22,1.22,0,0,1,446.3,240.4Z" transform="translate(-4.68 -4.3)"/><path class="a" d="M441.7,251a0.47,0.47,0,0,0,.44.5h3.76a0.47,0.47,0,0,0,.5-0.5v-0.9a0.47,0.47,0,0,0-.44-0.5H442.2a0.47,0.47,0,0,0-.5.5V251Z" transform="translate(-4.68 -4.3)"/><path class="a" d="M446,267.1v0.4a1.16,1.16,0,0,0-1.12-1.2H371.3a1.22,1.22,0,0,0-1.2,1.2v-0.4a1.22,1.22,0,0,1,1.2-1.2h73.5A1.22,1.22,0,0,1,446,267.1Z" transform="translate(-4.68 -4.3)"/><path class="a" d="M446,267.5v6.4a1.22,1.22,0,0,1-1.2,1.2H371.3a1.22,1.22,0,0,1-1.2-1.2v-6.4a1.16,1.16,0,0,1,1.12-1.2H444.8A1.29,1.29,0,0,1,446,267.5Z" transform="translate(-4.68 -4.3)"/><path class="a" d="M441.5,278.2a0.47,0.47,0,0,0,.44.5h3.76a0.47,0.47,0,0,0,.5-0.5v-0.9a0.47,0.47,0,0,0-.44-0.5H442a0.47,0.47,0,0,0-.5.5v0.9Z" transform="translate(-4.68 -4.3)"/><rect class="a" x="356.82" y="212.7" width="93.7" height="10.9"/><rect class="a" x="435.82" y="215.6" width="10.8" height="4.2"/><rect class="a" x="435.82" y="216.3" width="10.8" height="1.3"/><rect class="a" x="420.72" y="215.6" width="10.8" height="4.2"/><rect class="a" x="420.72" y="216.3" width="10.8" height="1.3"/><rect class="a" x="405.62" y="215.6" width="10.8" height="4.2"/><rect class="a" x="405.62" y="216.3" width="10.8" height="1.3"/><circle class="a" cx="379.72" cy="217.8" r="2.1"/><circle class="a" cx="379.72" cy="217.8" r="1.6"/><circle class="a" cx="372.52" cy="217.8" r="2.1"/><circle class="a" cx="372.52" cy="217.8" r="1.6"/><circle class="a" cx="365.42" cy="217.8" r="2.1"/><circle class="a" cx="365.42" cy="217.8" r="1.6"/><path class="a" d="M443.8,316.4a5.7,5.7,0,1,0-5.7-5.7A5.76,5.76,0,0,0,443.8,316.4Z" transform="translate(-4.68 -4.3)"/><path class="a" d="M443.8,315.5a4.8,4.8,0,0,0,4.8-4.8,4.74,4.74,0,0,0-4.68-4.8H443.8a4.8,4.8,0,1,0,0,9.6h0Z" transform="translate(-4.68 -4.3)"/><path class="a" d="M443.8,315.3a4.5,4.5,0,1,0-4.5-4.5,4.5,4.5,0,0,0,4.5,4.5h0Z" transform="translate(-4.68 -4.3)"/><path class="a" d="M387.2,439.5v-4.4H361.5v4.4a1.58,1.58,0,0,0,1.56,1.6H385.7A1.56,1.56,0,0,0,387.2,439.5Z" transform="translate(-4.68 -4.3)"/><path class="a" d="M429.5,435.2v4.4a1.58,1.58,0,0,0,1.56,1.6H453.7a1.58,1.58,0,0,0,1.6-1.56s0,0,0,0v-4.4H429.5Z" transform="translate(-4.68 -4.3)"/><path class="b" d="M350.1,95.5H479.6a5,5,0,0,1,4.8,5v85.4a4.91,4.91,0,0,1-4.8,5H350.1a5,5,0,0,1-4.8-5V100.5A4.91,4.91,0,0,1,350.1,95.5Z" transform="translate(-4.68 -4.3)"/><rect class="b" x="347.82" y="101.1" width="124.7" height="69.9"/><circle class="b" cx="410.22" cy="96.7" r="2.3"/><polygon class="b" points="340.62 187.5 479.82 187.5 511.72 196.1 310.32 196.1 340.62 187.5"/><path class="b" d="M315,200.4H516.4v5.4a3.65,3.65,0,0,1-3.7,3.5H318.8a3.59,3.59,0,0,1-3.7-3.48V200.4H315Z" transform="translate(-4.68 -4.3)"/><rect class="b" x="377.42" y="200.7" width="68.1" height="2.4"/><circle class="b" cx="410.22" cy="179.2" r="5.2"/><polygon class="b" points="410.22 190.5 427.32 190.5 430.72 194.4 410.22 194.4 389.72 194.4 393.12 190.5 410.22 190.5"/><rect class="b" x="356.62" y="112.4" width="103.3" height="55.8"/><rect class="c" x="359.42" y="131.2" width="3.1" height="3.1"/><rect class="c" x="359.42" y="135.8" width="3.1" height="3.1"/><rect class="c" x="359.42" y="140.6" width="3.1" height="3.1"/><rect class="c" x="363.32" y="131.7" width="18.7" height="1.9"/><rect class="c" x="363.32" y="136.4" width="18.7" height="1.9"/><rect class="c" x="363.32" y="141.1" width="18.7" height="1.9"/><rect class="c" x="358.62" y="162.6" width="27.2" height="2.7"/><rect class="c" x="358.72" y="159" width="27.2" height="2.7"/><rect class="c" x="358.72" y="155.3" width="27.2" height="2.7"/><rect class="c" x="359.12" y="115.6" width="8.6" height="8.6"/><rect class="c" x="393.12" y="160" width="63.9" height="4.2"/><rect class="c" x="393.12" y="160" width="4.3" height="4.3"/><path class="a" d="M259.9,232.1a3.26,3.26,0,0,0-1.2-.6h0a54.45,54.45,0,0,0-9.4-1.4l-53.9-7.8H140.9l-57.8,9.6c-1.1.2-2.2,0.3-3.2,0.5h0c-2.8.5-4.7,1.1-5.3,1.7-2.9,3.1-.4,56.2-0.4,56.2s6.1,3.4,26.3-1.3l-2.1-35.7,20.6-2.4v86.4a15.41,15.41,0,0,0,15.4,15.4h68.2A15.41,15.41,0,0,0,218,337.3v-87l20,1.3-0.4,34.5c19.7,3.6,25.4,0,25.4,0S262.8,234.9,259.9,232.1Z" transform="translate(-4.68 -4.3)"/><path class="a" d="M107.9,201.6a95.1,95.1,0,0,1-24.6-64.4c0-50.7,38.2-91.7,85.4-91.7s85.4,41.1,85.4,91.7-38.2,91.7-85.4,91.7c-23.8,0-45.4-10.5-60.8-27.3" transform="translate(-4.68 -4.3)"/><circle class="d" cx="127.22" cy="151.61" r="7.2"/><circle class="e" cx="125.72" cy="148.91" r="2.4"/><circle class="d" cx="199.02" cy="151.61" r="7.2"/><circle class="e" cx="197.62" cy="148.91" r="2.4"/><path class="a" d="M176.1,168.9s-0.4-4.1-7.2-3.9c-8.2.2-8.3,4.2-8.3,4.2S168.1,163.8,176.1,168.9Z" transform="translate(-4.68 -4.3)"/><path class="a" d="M117.9,135.6c-2.5,4.1-5.9,1.9-3.5-2.1,6.1-10.2,18.2-14.4,26.2-9.3,3.2,2.1,0,8.6-3.2,6.5C131.9,127.2,122.2,128.6,117.9,135.6Z" transform="translate(-4.68 -4.3)"/><path class="a" d="M216.5,135.9c2.3,4.1,5.9,2.1,3.6-2-5.8-10.4-17.7-15-25.9-10.2-3.3,2-.3,8.6,3,6.7C202.8,127,212.5,128.8,216.5,135.9Z" transform="translate(-4.68 -4.3)"/><path class="a" d="M260.7,64.6c4.5-9.3,3.8-20.8-3.2-28.7-5.7-6.4-16-9.5-24.8-10.4-11.1-1.2-22.8.2-31.9,6.3a0.1,0.1,0,0,0-.1.1h0c-2.6-6-8.3-11.6-13.1-15.4A53.73,53.73,0,0,0,154.3,4.8c-12.4-.2-25.1,3.5-34.4,11A28.71,28.71,0,0,0,108.8,40c-7.2-8.4-26-2.9-33.5,2.4-6.9,4.9-9.6,12.5-9.6,20.2,0,5.8,3.7,10.6,8.3,14.5a15.06,15.06,0,0,0-12,2.8c-8.6,6.3-14.8,16.8-15.9,26.7-1.6,14.8,7.5,36,23.9,42.1-5.2,4.2-2.5,13.8,0,18.5,3.3,6.3,11,12,19.1,8.7v0.3a0.63,0.63,0,0,0,1.2-.1c-0.6-9.7-1.9-19.5-2.8-29.2-0.5-5.4-.9-10.8-1.5-16.1a81.36,81.36,0,0,0-1-9.8c4-6.1,6.1-13.7,3.9-18.9,6.7-2.1,16.2,1,22.5,2.1,10.1,1.9,21.1-.1,27.3-7.9a28.72,28.72,0,0,0,5.9,8.6c7,6.8,18.3,9,28.3,8.5a46.32,46.32,0,0,0,27.4-10.9,35.64,35.64,0,0,0,6.3-7c1.9,5.3,9.2,6.7,14.8,7.5a34.15,34.15,0,0,0,18-2.7c-1.5,7.5,5.1,12.2,11.5,16.9-2,9.2-1.8,19-2.5,28.3-0.7,9.5-2.2,19.2-2.1,28.7v0.2a0.63,0.63,0,0,0,1.1.2c6.3,0,11.2-4.7,13.5-9.6,1.7-3.5,3.3-11.4-1-14.1a36.28,36.28,0,0,0,11.3-6.7c5.8-5.2,4.9-15.3.6-21.2,9.7-6.5,16.4-16.6,17.3-27.8C290.6,79.1,278.2,65.9,260.7,64.6ZM136.3,80.5h0.2C136.4,80.6,136.4,80.5,136.3,80.5Zm121.2,39h0Zm6.2-53.7h0Z" transform="translate(-4.68 -4.3)"/><path class="a" d="M208.5,189.2c-5.9,4.3-26.6,5.9-39.8,6s-33.2-1.6-39-6c10.1,17.2,23.3,20.8,36.4,21.4a3.75,3.75,0,0,0,1.1.1h3a4.1,4.1,0,0,0,1.1-.1C184.4,210.1,199.3,206.5,208.5,189.2Z" transform="translate(-4.68 -4.3)"/><path class="a" d="M208.5,189.6c-5.9,3.8-26.6,5.3-39.8,5.3s-33.2-1.5-39-5.3c10.1,15.3,23.3,18.6,36.4,19,0.3,0,.7.1,1.1,0.1h3a4.1,4.1,0,0,0,1.1-.1C184.4,208.2,199.3,205,208.5,189.6Z" transform="translate(-4.68 -4.3)"/><path class="a" d="M321.8,293.4c-1.5-9.9,2.3-13.2,21.8-18.6-11.5-10.9-27.1-10-37.4,3.2-5.8,7.5-12.7,10.3-21.8,10.6-33.8.9-67.6,2-101.4,3.1v-0.1c-38.3,1.3-76.5,2.5-114.8,3.9-9.5.3-17.7-1.1-25.9-6.8-13.7-9.6-29.8-4.4-36.8,10.5,22.2-2,26.1-.6,27.7,10,1.5,9.9-2.3,13.2-21.8,18.6,11.5,10.9,27.1,10,37.4-3.2,5.8-7.5,12.7-10.3,21.8-10.6,33.8-.9,67.6-2,101.4-3.1V311c38.3-1.3,76.5-2.5,114.8-3.9,9.5-.3,17.7,1.1,25.9,6.8,13.7,9.6,29.8,4.4,36.8-10.5C327.3,305.4,323.4,304,321.8,293.4Z" transform="translate(-4.68 -4.3)"/><path class="a" d="M109.9,305.6v-0.4c-0.2-3.3-3.6-12.8-5.2-14.2-1.8-1.6-6.8-3.7-27.4-2.4,0,0-.5.1-1.3,0.2h0a4.33,4.33,0,0,1-.5.1H75.4c-0.2,0-.3.1-0.5,0.1H74.7a1.42,1.42,0,0,0-.6.2h0c-0.2.1-.5,0.1-0.7,0.2H73.3c-0.2.1-.4,0.1-0.6,0.2H72.6c-0.5.2-.9,0.4-1.3,0.6a0.1,0.1,0,0,0-.1.1h0c-0.2.1-.3,0.2-0.5,0.3l-0.1.1a1.76,1.76,0,0,0-.5.4h0l-0.4.4-0.1.1c-0.1.1-.1,0.2-0.2,0.3a0.1,0.1,0,0,1-.1.1h0a0.75,0.75,0,0,0-.1.5c-0.2,2.8-1,22.8.3,24.5s4.5,1.6,7.8.3a5,5,0,0,0,4.9,2.3,5.89,5.89,0,0,0,4.6-2.8,5,5,0,0,0,5,2.4c3.7-.2,3.2-2.7,3.2-2.7a5.65,5.65,0,0,0,6.1,1c3.8-1.4,2.9-9.4,2.9-9.4s5.1-.3,5.8-2a2.27,2.27,0,0,0,.1-0.4v-0.1h0Z" transform="translate(-4.68 -4.3)"/><path class="a" d="M262.8,286.2c-0.2,0-.4-0.1-0.6-0.1H262c-0.2,0-.5-0.1-0.7-0.1h0a2.77,2.77,0,0,1-.9-0.1h-0.2a2.77,2.77,0,0,1-.9-0.1h0c-6.5-.3-17.7,0-17.7,0s-10,0-11,3.1c-0.2.8-.5,1.9-0.8,3.2h0c-0.1.3-.1,0.7-0.2,1v0.1a3.08,3.08,0,0,0-.1,1v0.1l-0.3,2.1v0.2c0,0.3-.1.6-0.1,0.8v0.2c0,0.7-.1,1.3-0.1,1.9v1a1.48,1.48,0,0,0,.1.7h0c0,0.2.1,0.4,0.1,0.6V302a2.27,2.27,0,0,1,.1.4v0.1c0.1,0.1.1,0.2,0.2,0.3,1.3,1.4,7,3.4,7.5,3.5,0,0-1.2,7.6,3.8,8.1,4.8,0.4,4.9-2.6,4.9-2.6a5.23,5.23,0,0,0,4.7,3.4,2.2,2.2,0,0,0,.8-0.1h0.2a1.06,1.06,0,0,0,.5-0.2H252c0.2-.1.3-0.2,0.5-0.3l0.1-.1,0.3-.3,0.1-.1a0.76,0.76,0,0,0,.2-0.4v-0.1a0.37,0.37,0,0,0,.1-0.3v-0.1c0.1-.3.1-0.6,0.2-0.8h0a0.76,0.76,0,0,0,.1.4h0c0,0.1.1,0.2,0.1,0.3v0.1a1.47,1.47,0,0,1,.2.4h0c0.1,0.1.2,0.3,0.3,0.4l0.1,0.1a1.38,1.38,0,0,0,.4.3l0.1,0.1,0.6,0.3a0.2,0.2,0,0,1,.2.1c0.2,0.1.4,0.1,0.6,0.2a0.37,0.37,0,0,1,.3.1,3.08,3.08,0,0,0,1,.1c3,0.2,3.4-3.9,3.4-3.9s0,3.5,4.4,2.4C268.6,312.8,267.2,287,262.8,286.2Z" transform="translate(-4.68 -4.3)"/><path class="a" d="M118.8,285.7h6.9V268.1c0-8.5,7.4-15.4,16.4-15.4H195c9,0,16.4,6.9,16.4,15.4v17.6h6.5" transform="translate(-4.68 -4.3)"/><path class="a" d="M130.2,259.7h-1.8a3.12,3.12,0,0,1-3.1-3.1V224.2a3.12,3.12,0,0,1,3.1-3.1h1.8a3.12,3.12,0,0,1,3.1,3.1v32.3a3.14,3.14,0,0,1-3.08,3.2h0Z" transform="translate(-4.68 -4.3)"/><path class="a" d="M208.5,259.7h-1.8a3.12,3.12,0,0,1-3.1-3.1V224.2a3.12,3.12,0,0,1,3.1-3.1h1.8a3.12,3.12,0,0,1,3.1,3.1v32.3a3.14,3.14,0,0,1-3.08,3.2h0Z" transform="translate(-4.68 -4.3)"/><rect class="a" x="117.82" y="248.41" width="13.4" height="10.6"/><rect class="a" x="196.12" y="248.41" width="13.4" height="10.6"/><path class="a" d="M119.6,332.3c-0.5,5.4-.8,10.9-0.8,16.5,0,49.3,20,89.8,45.4,93.8-2.6-16.9-4.7-43.9-2.8-75.3v-0.1a23.52,23.52,0,0,0,6.9,1,26.14,26.14,0,0,0,6.9-1v0.1c0,30.9.8,58.1-2.8,75.3,25.5-4,45.4-44.5,45.4-93.8,0-5.6-.3-11.1-0.8-16.5" transform="translate(-4.68 -4.3)"/><path class="f" d="M126.4,420.1c12.8,0,30.1,7.3,37.7,22.5H105.5C105,427.1,113.6,420.1,126.4,420.1Z" transform="translate(-4.68 -4.3)"/><path class="f" d="M209.1,420.1c-12.8,0-30.1,7.3-37.7,22.5H230C230.5,427.1,221.9,420.1,209.1,420.1Z" transform="translate(-4.68 -4.3)"/><path class="g" d="M127.3,297.4l10.5-.3c2.9-.1,4.3.6,4.4,2l0.1,2.1a1.77,1.77,0,0,1-1.2,1.6,6.46,6.46,0,0,1-2.1.6,2,2,0,0,0-.8.1h-0.7l5.2,4-5.3.2-4.8-3.7a0.91,0.91,0,0,1-.4-0.8c0.1-.9,1-1.4,2.7-1.4l1.8-.1q1.2,0,1.2-.6v-1c0-.3-0.4-0.5-1.1-0.6h-0.3l-4.5.1,0.2,8.2-4.5.1Z" transform="translate(-4.68 -4.3)"/><path class="g" d="M144.9,305.1l-0.2-6a1.09,1.09,0,0,1,.1-0.5c0.4-1.2,1.8-1.9,4.2-1.9l9.3-.3,0.1,2.2-8.1.2a0.37,0.37,0,0,0-.3.1,0.67,0.67,0,0,0-.7.6v1.2l9.1-.3,0.1,2.3-9.1.3v1.2c0,0.4.4,0.6,1.2,0.7l8-.2,0.1,2.3-8.6.3C146.6,307.3,144.9,306.6,144.9,305.1Z" transform="translate(-4.68 -4.3)"/><path class="g" d="M160.8,296.4l10.8-.3c2.1-.1,3.4.3,3.9,1a1.74,1.74,0,0,1,.3,1.2v0.8a2.09,2.09,0,0,1-1.7,2.1c1.2,0.2,1.9.8,1.9,1.8v1c0,1.6-1.4,2.4-4.3,2.5l-10.6.3Zm4.5,2.1,0.1,1.8,5-.1c0.7-.1,1-0.3,1-0.6v-0.7a0.63,0.63,0,0,0-.5-0.5,1.27,1.27,0,0,0-.6-0.1Zm0.2,4.1,0.1,1.9,4.9-.1c0.7-.1,1-0.3,1-0.6v-0.7c0-.3-0.4-0.5-1.1-0.6Z" transform="translate(-4.68 -4.3)"/><path class="g" d="M178.7,303.7l-0.2-7.8,4.5-.1,0.2,7.8c0.1,0.3.6,0.4,1.5,0.4l3-.1a1.86,1.86,0,0,0,1.5-.4v-0.1l-0.2-7.7,4.5-.1,0.2,7.8a2.08,2.08,0,0,1-.4,1.5c-0.8.8-2.2,1.2-4.2,1.3l-5.8.2c-2.1.1-3.6-.3-4.4-1.1C178.9,304.8,178.7,304.3,178.7,303.7Z" transform="translate(-4.68 -4.3)"/><path class="g" d="M196.2,297.4a0.9,0.9,0,0,1,.1-0.5c0.5-1,1.9-1.6,4.1-1.7l9.1-.3,0.1,2.2-7.9.3c-0.7,0-1,.2-1,0.5v0.8a1,1,0,0,0,1.1.4h0.3l3.2-.1a10.32,10.32,0,0,1,2.6.3c1.1,0.3,1.7.9,1.7,1.6l0.1,2.1a2.05,2.05,0,0,1-1.7,1.9,10.8,10.8,0,0,1-2.8.5l-8.9.3-0.1-2.3,7.8-.2a1,1,0,0,0,1-.6v-0.8c0-.3-0.3-0.4-1-0.5l-3.7.1a5.87,5.87,0,0,1-3.5-.8,1.27,1.27,0,0,1-.7-1.1Z" transform="translate(-4.68 -4.3)"/></svg>