<svg xmlns="http://www.w3.org/2000/svg" xmlns:xlink="http://www.w3.org/1999/xlink" viewBox="0 0 900.17 410.25"><defs><style>.a,.b,.j,.k,.p,.q{fill:none;}.b{clip-path:url(#a);}.c,.d,.e,.g,.i,.m,.o,.s,.w,.x{fill:#fff;}.c,.g,.h,.i,.j,.k,.o,.p,.q,.s,.w,.x{stroke:#cacaca;}.c,.e,.h,.j,.k,.o,.s,.w,.x{stroke-miterlimit:22.93;}.e,.m{stroke:#cbcbcb;}.f{fill:#cacaca;}.g,.m,.p{stroke-miterlimit:10;}.h{fill:#80ad5d;}.i,.q{stroke-linecap:round;stroke-linejoin:round;}.k,.o{stroke-width:1.2px;}.l{fill:#e5e5e5;}.n{fill:#cbcbcb;}.r{opacity:0.1;}.s{opacity:0.5;}.s,.w,.x{isolation:isolate;}.t{clip-path:url(#d);}.u{fill:url(#e);}.v{fill:url(#g);}.w{opacity:0.78;}.x{opacity:0.25;}.y{fill:url(#i);}</style><clipPath id="a"><polygon class="a" points="1 1 2 1 1 2 1 1"/></clipPath><clipPath id="d" transform="translate(-94.36 -63.46)"><polygon class="b" points="-1 -1 -2 -1 -1 -2 -1 -1"/></clipPath><linearGradient id="e" x1="-15.7" y1="593.26" x2="21.18" y2="593.26" gradientTransform="matrix(0.96, -0.27, -0.27, -0.96, 837.29, 804.22)" gradientUnits="userSpaceOnUse"><stop offset="0" stop-color="#fff"/><stop offset="1" stop-color="gray"/></linearGradient><linearGradient id="g" x1="1269.74" y1="376.22" x2="1306.58" y2="376.22" gradientTransform="translate(1979.16 681.02) rotate(-176.57)" xlink:href="#e"/><linearGradient id="i" x1="586.41" y1="396.27" x2="594.48" y2="394.85" gradientTransform="matrix(0.96, 0.27, 0.27, -0.96, 208.02, 522.47)" gradientUnits="userSpaceOnUse"><stop offset="0"/><stop offset="0" stop-color="#0f0f0f"/><stop offset="0" stop-color="#373737"/><stop offset="0" stop-color="#777"/><stop offset="0" stop-color="#cfcfcf"/><stop offset="0" stop-color="#fff"/><stop offset="0.18" stop-color="#fff"/><stop offset="0.21" stop-color="#fff"/><stop offset="0.27" stop-color="#fff"/><stop offset="0.32" stop-color="#fff"/><stop offset="0.48" stop-color="#fff"/><stop offset="1" stop-color="#fff"/></linearGradient></defs><title>06_oll</title><ellipse class="c" cx="675.44" cy="92.24" rx="5.1" ry="8.5"/><polygon class="d" points="820.14 250.94 824.64 223.84 812.84 216.34 798.54 213.14 796.74 218.04 798.84 228.14 805.74 246.44 809.24 253.74 814.34 253.74 814.34 243.94 818.64 249.44 820.14 250.94"/><path class="e" d="M256.7,369.6c-3.4,2.5-10.2,13.8-7.2,15.5,2.4,1.4,3.1-6.5,5.8-4.7,3,2-1,17.2,2.6,17,4-.3.6-12.5,3.8-12.2s-1.2,16,3,15.6-0.3-14.6,2.8-14.7-0.1,13.1,3.7,12.8c4.3-.3-0.8-15.6,1.2-15.5,3.4,0.1.9,10.8,4.3,10.8,2,0,1.8-5.7.7-11.8-1-5.4-2.9-10.9-5.5-13.3C266.4,363.9,262.7,365.1,256.7,369.6Z" transform="translate(-94.36 -63.46)"/><path class="e" d="M272,368.6c-3.8-28.8-12.6-68.1-45-77.1-7.1-8.1-15.9-12.9-25.4-12.9-10,0-19.1,5.2-26.3,14a0.2,0.2,0,0,0-.2.1l-0.5-.2s-11.4,5-12.2,6.2c-0.3.4-1,1.3-1.9,2.4-0.8.9-1.9,2-1.9,2l-0.6,1.2a12.3,12.3,0,0,0-2.1,4.1c-0.9,3.5-3.9,7.7-6.5,10.7a18.28,18.28,0,0,1-4.9,3.9,18.46,18.46,0,0,1-8.3,2c-9.6,0-17.8-7.4-20.7-17.5V305a6.66,6.66,0,0,0-6.6-6.6,6.74,6.74,0,0,0-4.7,2l-2.6-1.3a45.74,45.74,0,0,0,.7,8.3v1a6.29,6.29,0,0,0,.9,3.3c4.4,17.1,17.5,29.6,33,29.6,8.7,0,16.7-3.9,22.7-10.5l1-.4,0.3-.2a94.28,94.28,0,0,0,4.8,43.2c7.3,6.9,20.9,11.5,36.5,11.5s29.3-4.6,36.5-11.5a89.68,89.68,0,0,0,5.5-31.5,94.89,94.89,0,0,0-2.5-21.7c6.3,9.2,12,24.6,15.4,50.4Z" transform="translate(-94.36 -63.46)"/><path class="c" d="M447.6,387.9a4.33,4.33,0,0,0-.5-0.1H447c-0.2,0-.4-0.1-0.6-0.1h0c-0.2,0-.4-0.1-0.7-0.1h-0.1c-0.2,0-.5-0.1-0.7-0.1h0c-5.1-.6-14-0.9-14-0.9s-7.9-.5-8.9,1.8c-0.2.6-.5,1.4-0.8,2.4h0c-0.1.3-.1,0.5-0.2,0.8v0.1c-0.1.2-.1,0.5-0.2,0.7v0.1c-0.1.5-.2,1.1-0.3,1.6v0.2c0,0.2-.1.4-0.1,0.6V395c-0.1.5-.1,1-0.2,1.4v1.5h0v0.6a0.37,0.37,0,0,0,.1.3v0.1c0,0.1.1,0.2,0.1,0.3,1,1.2,5.4,3,5.8,3.1,0,0-1.4,5.8,2.6,6.4,3.7,0.6,4-1.8,4-1.8a3.85,3.85,0,0,0,3.5,2.8h0.8c0.1,0,.3-0.1.4-0.1h0.1c0.1-.1.3-0.1,0.4-0.2a0.1,0.1,0,0,0,.1-0.1,0.38,0.38,0,0,0,.2-0.2,0.1,0.1,0,0,0,.1-0.1,0.53,0.53,0,0,0,.2-0.3v-0.1c0-.1.1-0.2,0.1-0.3v-0.1c0.1-.2.1-0.4,0.2-0.6h0v0.3h0a0.37,0.37,0,0,0,.1.3v0.1c0,0.1.1,0.2,0.1,0.3h0c0.1,0.1.1,0.2,0.2,0.3l0.1,0.1a0.53,0.53,0,0,0,.3.2l0.1,0.1a2.18,2.18,0,0,0,.5.3,0.1,0.1,0,0,1,.1.1c0.2,0.1.3,0.1,0.5,0.2a0.2,0.2,0,0,1,.2.1c0.2,0.1.5,0.1,0.8,0.2,2.3,0.3,2.9-2.8,2.9-2.8s-0.2,2.7,3.3,2.1C450.7,408.7,451,388.8,447.6,387.9Z" transform="translate(-94.36 -63.46)"/><path class="c" d="M420.1,288.8A13,13,0,0,1,435,299.6l10.4,65.7,2.1,22.6-21.1-1.8-6.3-97.3" transform="translate(-94.36 -63.46)"/><path class="c" d="M424.7,289.2l-15.9-2.3H362.7l-22.5,3.7-25.3,3.9-17.1,3.7L289.9,269c-17.5,1.7-21.4,6.1-21.4,6.1S280.9,318.3,284,320c0.6,0.3,2.3.2,4.7-.1h0c0.8-.1,1.7-0.3,2.7-0.4l26.4-4.3,26.4-4.1v73a13,13,0,0,0,13,13h57.7a13,13,0,0,0,13-13V310.5" transform="translate(-94.36 -63.46)"/><path class="c" d="M334.7,275.2a80.36,80.36,0,0,1-27.6-51.3c-5.5-42.5,22.1-81,61.7-86.1s76,25.2,81.4,67.7-22.1,81-61.7,86.1c-19.8,2.5-39-3.9-53.8-16.4" transform="translate(-94.36 -63.46)"/><circle class="f" cx="349.89" cy="234.39" r="6.1" transform="translate(-121.41 -16.89) rotate(-7.33)"/><circle class="g" cx="348.4" cy="232.29" r="2" transform="matrix(0.99, -0.13, 0.13, 0.99, -121.15, -17.1)"/><circle class="f" cx="410.19" cy="226.59" r="6.1" transform="translate(-119.92 -9.27) rotate(-7.33)"/><circle class="g" cx="408.69" cy="224.49" r="2" transform="matrix(0.99, -0.13, 0.13, 0.99, -119.66, -9.47)"/><path class="c" d="M388.4,240.5s-0.8-3.4-6.4-2.5c-6.8,1-6.5,4.4-6.5,4.4S381.1,237.1,388.4,240.5Z" transform="translate(-94.36 -63.46)"/><path class="c" d="M336,218.9c-1.6,3.7-4.8,2.2-3.2-1.4,4.1-9.2,13.7-14.1,21-10.6,2.9,1.4.9,7.2-2,5.8C346.9,210.3,338.9,212.5,336,218.9Z" transform="translate(-94.36 -63.46)"/><path class="c" d="M418.7,208.5c2.4,3.2,5.2,1.1,2.8-2.1-6-8.1-16.5-10.7-22.8-5.7-2.6,2,.7,7.3,3.2,5.3C406.3,202.5,414.6,202.9,418.7,208.5Z" transform="translate(-94.36 -63.46)"/><path class="c" d="M448.1,144c2.8-8.3,1-17.8-5.8-23.7-5.5-4.8-14.4-6.2-21.9-6.1-9.4.2-19.1,2.6-26.1,8.7l-0.1.1c-2.8-4.8-8.2-8.8-12.6-11.5a45.24,45.24,0,0,0-29.2-6.2c-10.4,1.2-20.7,5.7-27.7,12.9a24.42,24.42,0,0,0-6.7,21.5c-7-6.2-22.1.4-27.8,5.6-5.3,4.9-6.7,11.5-5.9,17.9,0.6,4.9,4.3,8.5,8.5,11.2A13,13,0,0,0,283,178a34.11,34.11,0,0,0-10.5,24.1c0.2,12.6,10.2,29.4,24.6,32.8-3.9,4.1-.6,11.8,2,15.5,3.5,4.9,10.5,8.9,16.9,5.2a0.37,0.37,0,0,0,.1.3c0.1,0.5,1.1.3,1-.2-1.5-8.1-3.7-16.1-5.5-24.2-1-4.5-1.9-8.9-3-13.4-0.6-2.6-.9-5.5-1.9-8.1,2.7-5.5,3.6-12.1,1.2-16.2,5.4-2.5,13.7-.9,19.1-0.6,8.7,0.5,17.7-2.4,22-9.6a22.67,22.67,0,0,0,5.9,6.5c6.6,5,16.3,5.6,24.6,4.1a38.85,38.85,0,0,0,21.8-12.1,30.07,30.07,0,0,0,4.5-6.5c2.2,4.3,8.4,4.6,13.2,4.7a28.4,28.4,0,0,0,14.8-4.2c-0.5,6.4,5.6,9.7,11.5,12.9-0.7,7.9.5,16.1,1,24s0.3,16.4,1.3,24.3v0.2a0.61,0.61,0,0,0,1,.1c5.3-.7,8.9-5.2,10.3-9.5,1-3.1,1.5-9.9-2.4-11.7a32.33,32.33,0,0,0,8.8-6.8c4.3-5,2.5-13.4-1.7-17.8,7.5-6.5,12-15.7,11.5-25.2C474.7,152.9,462.9,143.1,448.1,144ZM345.5,170.7h0Zm105.8,19.6h0Zm-0.6-45.7h0Z" transform="translate(-94.36 -63.46)"/><path class="c" d="M417.8,254.4c-4.5,3.9-21.7,7.3-32.8,8.7s-28,2.4-33.3-.2c10.2,11.8,21.5,13,32.6,12a2.77,2.77,0,0,0,.9-0.1c0.4-.1.8-0.1,1.3-0.2s0.9-.1,1.3-0.2a2.92,2.92,0,0,0,.9-0.2C399.6,272.5,411.7,268.2,417.8,254.4Z" transform="translate(-94.36 -63.46)"/><path class="c" d="M344.2,340.5H350V325.6c0-7.2,6.2-13,13.8-13h44.7c7.6,0,13.8,5.9,13.8,13v14.9h5.5" transform="translate(-94.36 -63.46)"/><path class="c" d="M353.3,318.5h-0.5a3.12,3.12,0,0,1-3.1-3.1V289a3.12,3.12,0,0,1,3.1-3.1h0.5a3.12,3.12,0,0,1,3.1,3.1v26.4A3.12,3.12,0,0,1,353.3,318.5Z" transform="translate(-94.36 -63.46)"/><path class="c" d="M419.5,318.5H419a3.12,3.12,0,0,1-3.1-3.1V289a3.12,3.12,0,0,1,3.1-3.1h0.5a3.12,3.12,0,0,1,3.1,3.1v26.4A3.12,3.12,0,0,1,419.5,318.5Z" transform="translate(-94.36 -63.46)"/><rect class="c" x="252.94" y="249.14" width="11.3" height="9"/><rect class="c" x="319.14" y="249.14" width="11.3" height="9"/><path class="c" d="M344.9,379.9c-0.4,4.5-.7,9.2-0.7,13.9,0,41.7,16.9,75.9,38.4,79.3a305.77,305.77,0,0,1-2.3-63.6v-0.1a19.79,19.79,0,0,0,11.8,0v0.1c0,26.1.7,49.1-2.3,63.6,21.5-3.4,38.4-37.6,38.4-79.3a125.57,125.57,0,0,0-.7-13.9" transform="translate(-94.36 -63.46)"/><path class="h" d="M350.6,454c10.8,0,25.5,6.1,31.8,19.1H332.8C332.5,459.9,339.8,454,350.6,454Z" transform="translate(-94.36 -63.46)"/><path class="h" d="M420.5,454c-10.8,0-25.5,6.1-31.8,19.1h49.6C438.6,459.9,431.3,454,420.5,454Z" transform="translate(-94.36 -63.46)"/><path class="i" d="M298.1,250.4c-2.1-1.7-6.6-5.7-11.1,3.2,0,0-1.2.9-1.2-1.6s-3.1-12.7-4.4-16c-1.1-2.6-3.8-3.5-5.6-2a20.74,20.74,0,0,0,0,5c0.2,2.1.5,4.1,0.7,6.2a43.78,43.78,0,0,1,.4,5.1c0-.3-0.1,4.3-0.9,2.5-0.2-.5-0.4-0.9-0.6-1.4-1.7-4.9-2.1-10.8-4.2-15.6l0.6,0.9c-1.2-1.9-2.5-2.9-4.2-2.4-5.2,1.7-.6,8.8,1.8,19.2,0,0-5-17.7-10.3-15.4-1.3.5-1.7,2-1.6,4,0.6,2.1,1.3,3.9,1.4,4.2,0.9,2,1.8,3.9,2.8,5.9a13.65,13.65,0,0,1,1.4,3.3c0.7,1.5.2,2.3-1.6,2.5-0.4-.4-0.7-0.8-1.1-1.2-2.3-3.3-3-7.3-4.5-11a17.58,17.58,0,0,0-1-2c-0.9-.8-1.8-1.2-2.6-0.7-4.1,2.2,4,23.3,7.2,26.6s11.5,10,19.9.7c0,0,7.1,1.2,9.6-3.7,1.5-3,1.5-4.7,3.1-7.3,1-1.7,2.5-3.8,4.3-4.2C301.3,253.8,299.5,251.6,298.1,250.4Z" transform="translate(-94.36 -63.46)"/><path class="c" d="M769.6,366.6c-3.6-27.5-11.9-64.6-41.2-75.3-7.1-8.7-16.2-13.8-26.1-13.8-9.5,0-18.2,4.8-25.2,12.7-10.2,2.8-18,8.7-24.1,16.3l-1-.4a28.36,28.36,0,0,1-49.8,5.5L586,322.9a48.32,48.32,0,0,0,39.7,21A47.51,47.51,0,0,0,661.4,328a99,99,0,0,0-.8,12.3,87.42,87.42,0,0,0,5.5,31.1c7.2,6.8,20.7,11.4,36.2,11.4s29-4.6,36.2-11.4a87.83,87.83,0,0,0,5.5-31.1,91.14,91.14,0,0,0-1.2-15c4.7,9.4,8.8,23.1,11.5,43.4Z" transform="translate(-94.36 -63.46)"/><path class="i" d="M617.1,288.2a7.34,7.34,0,0,0-4.5-1.8h0a3.75,3.75,0,0,1-1-.1h-1.2a1.27,1.27,0,0,0-.6.1,1.88,1.88,0,0,0-.8.2c-2.5.7-5,3.4-6.6,5.3a25,25,0,0,0-2.3,3.9c-0.7,1.2-1.8,2.3-2.2,3.7l-6-3.6a17.71,17.71,0,0,1-.1-2.3v-2.8c0-4.8.3-9.6-.4-14.4-0.3-2.1-1.8-6-4-6.7-2.8-1-5,1.2-6.1,3.6h0a11.73,11.73,0,0,1-.5,1.1c-0.8,2.5-.4,5.4-0.2,7.9a8.33,8.33,0,0,1,.1,1.2,59,59,0,0,0,1.4,8.8c-3.9-8.6-5.5-12.1-5.8-12.6a0.1,0.1,0,0,0-.1-0.1c-0.3-.5-0.6-0.9-0.9-1.4a2.09,2.09,0,0,0-.4-0.6,0.1,0.1,0,0,0-.1-0.1c-1.5-2-4.8-4.5-6.8-2.1-1.7,2.1-.9,5.8-0.2,8.4h0a3.09,3.09,0,0,1,.2.8,29.31,29.31,0,0,0,4.4,8.4,5.58,5.58,0,0,1,.5.8h0c0.4,0.7.9,1.5,1.4,2.2,0.1,0.1.1,0.2,0.2,0.3h0l-3.2-3.2-0.7-.7c-1.1-1.1-2.2-2.2-3.4-3.2-2.2-2-4.8-5-8.2-4.8h0c-4.8.4-3,7-.2,11.2h0c0.1,0.2.3,0.4,0.4,0.6a0.1,0.1,0,0,0,.1.1,5.55,5.55,0,0,0,.6.8l0.1,0.1a2.34,2.34,0,0,0,.7.7l0.1,0.1a1.79,1.79,0,0,0,.7.5,0.1,0.1,0,0,1,.1.1,0.31,0.31,0,0,0,.2.1l-0.2-.1s7.4,4.5,7.5,4.3a64.68,64.68,0,0,0-8.4-4.7h0a8,8,0,0,0-3.3-.6h0a2.3,2.3,0,0,0-1.4.4h0a3.44,3.44,0,0,0-1.6,2.3c-0.4,1.5.5,3.3,1.8,4.9h0a6.47,6.47,0,0,0,.8.9h0l0.8,0.8h0a5,5,0,0,0,.8.7h0c0.2,0.2.5,0.4,0.7,0.6a83.09,83.09,0,0,0,9.5,7c3.2,1.9,5.7,4.3,9.1,5.9,5.6,2.5,12.8,3.3,17.3-1.1,1.2-1.1,1.8-2.2,3.4-2.9a18.92,18.92,0,0,0,3.5-1.7c2.3-1.8,2.8-4.5,3.7-7.1s2.3-5.6,4.3-7.5,4.2-3.1,6.1-5.2a1.79,1.79,0,0,0,.5-0.7h0C617.8,293.2,618.7,290,617.1,288.2Z" transform="translate(-94.36 -63.46)"/><line class="j" x1="596.54" y1="221.44" x2="610.44" y2="245.34"/><line class="j" x1="618.34" y1="219.04" x2="610.44" y2="245.34"/><line class="j" x1="610.44" y1="245.34" x2="582.84" y2="226.74"/><line class="j" x1="610.44" y1="245.34" x2="634.04" y2="227.84"/><path class="k" d="M703.1,385.5c-15.5,0-29-4.6-36.3-11.4-0.4,4.5-.6,9.2-0.6,13.9,0,41.7,14.9,75.9,33.8,79.3a358,358,0,0,1-2.1-63.6v-0.1a15.47,15.47,0,0,0,10.4,0v0.1c0,26.1.6,49.1-2.1,63.6,18.9-3.4,33.8-37.6,33.8-79.3,0-4.8-.2-9.4-0.6-13.9C732.1,380.9,718.6,385.5,703.1,385.5Z" transform="translate(-94.36 -63.46)"/><path class="c" d="M668.1,448.3c10.8,0,25.5,6.1,31.8,19.1H650.3C650,454.2,657.3,448.3,668.1,448.3Z" transform="translate(-94.36 -63.46)"/><path class="c" d="M738,448.3c-10.8,0-25.5,6.1-31.8,19.1h49.6C756.1,454.2,748.9,448.3,738,448.3Z" transform="translate(-94.36 -63.46)"/><path class="i" d="M751.9,369.9l-2.1,5.5,2.5,12.2,3.9,1-1.7-.4,0.7-7.2,1,7.7,1.4,6.9,5.5,0.7L761,396l1.3-6.8,0.9,7,0.5,1.5,6.7-1.6,0.3-1.7-0.4-5.6,3.5,3.6-3.1,2c3-1.1,9-7.8,9-7.8a88.77,88.77,0,0,0-1.5-20.7C771.7,370.2,751.9,369.9,751.9,369.9Zm23.8,20.4-0.1-4,2.6,1.5Z" transform="translate(-94.36 -63.46)"/><path class="e" d="M115.6,298.2c3.5-2.4,10.8-13.3,7.8-15.2-2.4-1.5-3.4,6.4-6,4.5-2.9-2.1,1.7-17.1-1.9-17.1-4,.1-1.2,12.5-4.3,12s1.9-16-2.4-15.7-0.3,14.6-3.4,14.5,0.6-13.1-3.2-13c-4.3.1,0.2,15.6-1.8,15.4-3.4-.3-0.5-10.9-3.8-10.9-2-.1-2.1,5.6-1.2,11.8,0.8,5.5,2.5,11,5,13.6C105.7,303.5,109.4,302.5,115.6,298.2Z" transform="translate(-94.36 -63.46)"/><ellipse class="e" cx="181.94" cy="151.94" rx="15.5" ry="12.6"/><ellipse class="e" cx="31.14" cy="152.94" rx="15.5" ry="12.6"/><rect class="e" x="89.94" y="186.24" width="34.8" height="44.4"/><path class="e" d="M201.3,385c15.5,0,29-4.6,36.3-11.4,0.4,4.5.6,9.2,0.6,13.9,0,41.7-14.9,75.9-33.8,79.3a358.05,358.05,0,0,0,2.1-63.6v-0.1a15.47,15.47,0,0,1-10.4,0v0.1c0,26.1-.6,49.1,2.1,63.6-18.9-3.4-33.8-37.6-33.8-79.3,0-4.8.2-9.4,0.6-13.9C172.2,380.4,185.8,385,201.3,385Z" transform="translate(-94.36 -63.46)"/><path class="h" d="M213,357.3c-0.7-5.5-3.5-39.1-6.2-46.5-0.6-1.7.7-3.2,1.5-4.2,5.5-6.3-.1-15-6.6-15s-12.1,8.4-6.7,14.8c0.7,1,2,2.5,1.4,4.1-2.7,7.2-5,41.2-6.8,46.8-2,6.3,7,22.1,10.5,22.7C204.7,380.7,213.7,363.1,213,357.3Z" transform="translate(-94.36 -63.46)"/><path class="l" d="M201.6,292.9l16.9,18.4c5.2-6.2,7.3-12.7,9.2-19.9-5.2-3-7.5-6.2-8.7-11.8,0.7,15.2-36.2,17.3-34.6-.1-1.2,5.8-2.9,10-8.8,11.8,1.9,7.1,4.1,13.9,9.2,19.9Z" transform="translate(-94.36 -63.46)"/><path class="e" d="M201,291.4l17.4,16.2c5.2-4.9,6.8-11,8.7-16.7a19.63,19.63,0,0,1-8.3-11.5c0.7,15.4-36.2,16.9-34.6,0a18.81,18.81,0,0,1-8.5,11.6c1.9,5.6,3.8,11.9,8.9,16.7Z" transform="translate(-94.36 -63.46)"/><path class="e" d="M236.2,447.8c-10.8,0-25.5,6.1-31.8,19.1H254C254.3,453.7,247.1,447.8,236.2,447.8Z" transform="translate(-94.36 -63.46)"/><path class="e" d="M166.3,447.8c10.8,0,25.5,6.1,31.8,19.1H148.5C148.2,453.7,155.5,447.8,166.3,447.8Z" transform="translate(-94.36 -63.46)"/><circle class="m" cx="150.14" cy="155.24" r="17.4"/><ellipse class="e" cx="105.74" cy="141.54" rx="78.5" ry="77"/><circle class="d" cx="62.04" cy="146.54" r="17.4"/><path class="m" d="M192.1,263.4c0.5,3.5,14,3.2,13.7,0A17.6,17.6,0,0,1,192.1,263.4Z" transform="translate(-94.36 -63.46)"/><circle class="n" cx="150.54" cy="155.14" r="6.1"/><circle class="m" cx="151.74" cy="152.84" r="2"/><circle class="n" cx="60.54" cy="155.14" r="6.1"/><circle class="m" cx="61.74" cy="152.84" r="2"/><path class="n" d="M193.9,235.6s0.3-3.5,6-3.3c6.9,0.2,7,3.6,7,3.6S200.6,231.3,193.9,235.6Z" transform="translate(-94.36 -63.46)"/><path class="m" d="M210.8,109.4h0c-14.2-.7-29.1-2.4-39.4-10.5-0.4-.3-1.3-0.2-1.3.3-0.8,4.3.6,8.1,2.6,12.1-8.9,1.1-17-2.9-24.4-6.5a0.93,0.93,0,0,0-1.2.4,13.38,13.38,0,0,0,2.5,12.2c-16.7,5.5-30.7,17.3-35.9,31.5-3.9,10.7-4.3,22.6-2.9,33.6,1.2,9.6,3.6,21.3,12.9,28.1a0.89,0.89,0,0,0,1.4-.5c0.4-9.1-.2-18.4,1.2-27.5a48.86,48.86,0,0,1,11.3-24c1.1,5.1,5.3,9.9,8.5,14.2a0.9,0.9,0,0,0,1.5-.2c1.9-7.1,4-15,9.6-21,3.7-4,8.8-6.5,14.2-8.4a24.78,24.78,0,0,0,3.2,9.6c6.7,11.3,20.8,17.1,35.5,19.4,0.7,0.1,1.2-.4.9-1a35.14,35.14,0,0,1-5.2-14.7c16.2,12.2,37.2,17.3,56.8,25.2,0.6,0.2,1.4-.2,1.2-0.7a101.3,101.3,0,0,0-7.4-13.7c8.4,4.5,14.9,10.5,17.3,18.7,2.3,7.8,2,16,2.4,24,0,0.7,1,.8,1.5.3a53.68,53.68,0,0,0,14-43.4c-3-23.1-20.3-43.2-47.3-52.1C244.3,114.9,223,108.8,210.8,109.4Z" transform="translate(-94.36 -63.46)"/><path class="m" d="M113.7,204.3a1.77,1.77,0,0,0,1.2,2,5.77,5.77,0,0,1,4.3,5.1c0.5,3.1,1.1,6.2,1.6,9.2a62.78,62.78,0,0,0,3.9,14.1c1.6,3.9,3.8,7.5,7.6,9.5a39.24,39.24,0,0,0,7.9,3.4,42.92,42.92,0,0,0,14.3,1.8c13.6-.8,25.9-7.2,32.3-19.5a109.93,109.93,0,0,0,6.4-15.5,7.35,7.35,0,0,1,14,0,109.93,109.93,0,0,0,6.4,15.5c6.4,12.4,18.7,18.8,32.3,19.5a38.32,38.32,0,0,0,14.3-1.8,39.24,39.24,0,0,0,7.9-3.4c3.8-2.1,6-5.6,7.6-9.5a62.78,62.78,0,0,0,3.9-14.1c0.5-3.1,1.1-6.2,1.6-9.2a5.75,5.75,0,0,1,4.3-5.1,1.68,1.68,0,0,0,1.2-2c0-2.1-.1-4.3-0.1-6.4,0-.5-0.1-1-0.1-1.5-0.1-2-.5-2.4-2.5-2.5-2.6-.2-5.2-0.3-7.8-0.6-3.7-.4-7.4-0.9-11.1-1.3-1.5-.1-3-0.3-4.6-0.4-2.7-.2-5.3-0.4-8-0.7l-4-.3a44.79,44.79,0,0,0-9.7.5c-2.2.3-4.3,0.4-6.5,0.7-3,.4-6,1-8.9,1.6-3.6.8-7.2,1.6-10.8,2.5a52.57,52.57,0,0,1-12.5,1.3,53.41,53.41,0,0,1-12.6-1.3c-3.6-.9-7.2-1.7-10.8-2.5-2.9-.6-5.9-1.2-8.9-1.6-2.2-.3-4.3-0.5-6.5-0.7a53,53,0,0,0-9.7-.5l-4,.3c-2.7.2-5.3,0.4-8,.7-1.5.1-3,.3-4.6,0.4-3.7.3-7.4,0.9-11.1,1.3-2.6.3-5.2,0.4-7.8,0.6-2,.2-2.4.6-2.5,2.5,0,0.5-.1,1-0.1,1.5A45.63,45.63,0,0,1,113.7,204.3ZM278.1,201h6.3c-0.3.8-1.6,1.4-3.2,1.4A3.42,3.42,0,0,1,278.1,201Zm0-.9c0.3-.8,1.6-1.4,3.1-1.4a3.62,3.62,0,0,1,3.2,1.4h-6.3Zm-6.6-1.7a22.4,22.4,0,0,0-6.2-2.5,74,74,0,0,0-19.3-2.4,67.86,67.86,0,0,0-20,2.6c-1,.3-2,0.6-2.9.9a18.58,18.58,0,0,0-4.9,2.4l-0.9.6a2.18,2.18,0,0,0-.5.4l-0.3.3-0.6.6a10.92,10.92,0,0,0-1.3,1.7c-0.2.3-.4,0.7-0.6,1a4.13,4.13,0,0,0-.7,1.1,8.25,8.25,0,0,1,1.9-3.4c-0.1,0-.1-0.1-0.2-0.1a10.1,10.1,0,0,0,1.6-1.3h0a3,3,0,0,1,.7-0.5,1.38,1.38,0,0,1,.4-0.3c0.4-.2.7-0.5,1.1-0.7,6.7-3.6,13.9-4.7,21.3-5.3a78.27,78.27,0,0,1,14.5.3,57.06,57.06,0,0,1,12.8,2.6c2.4,0.9,4.7,1.8,6.5,3.8a10.5,10.5,0,0,1,2.6,5.4c0-.1-0.1-0.1-0.1-0.2s-0.1-.3-0.2-0.5A11.88,11.88,0,0,0,271.5,198.4Zm-58.7,10.3a12.74,12.74,0,0,1,1.1-3.8,9.06,9.06,0,0,1,1.1-1.6,9.91,9.91,0,0,1,1.1-1.7c0.4-.4.8-0.7,1.2-1.1a20.45,20.45,0,0,1,3.1-2,51.77,51.77,0,0,1,17.3-4.3,82.69,82.69,0,0,1,18.6.4,39.4,39.4,0,0,1,11.8,3c2.5,1.1,4.8,2.5,5.7,5.2a28.09,28.09,0,0,1,1.2,4.8,64.82,64.82,0,0,1-1.8,24.4,15.23,15.23,0,0,1-8.1,10.4c-0.7.4-1.4,0.8-2.2,1.2s-1.8.7-2.7,1.1a21.92,21.92,0,0,1-6.8,1.7,49.67,49.67,0,0,1-10.2,0c-9.7-.9-18.9-5.8-24.1-14.2a38.61,38.61,0,0,1-4.5-10.9A38.45,38.45,0,0,1,212.8,208.7Zm-87.1-1a25.94,25.94,0,0,1,1.2-4.8c0.9-2.8,3.2-4.2,5.7-5.2a44.51,44.51,0,0,1,11.8-3,82.69,82.69,0,0,1,18.6-.4,51.77,51.77,0,0,1,17.3,4.3,15.5,15.5,0,0,1,3.2,2,6.28,6.28,0,0,1,1.2,1.1c0.4,0.5.7,1.1,1.1,1.7s0.7,1,1.1,1.6a12.74,12.74,0,0,1,1.1,3.8,42.28,42.28,0,0,1-1.7,12.7,39.86,39.86,0,0,1-4.5,10.9c-5.2,8.4-14.4,13.3-24.1,14.2a49.67,49.67,0,0,1-10.2,0,23.41,23.41,0,0,1-6.8-1.7c-0.9-.4-1.8-0.7-2.7-1.1a15.45,15.45,0,0,1-2.2-1.2,15.51,15.51,0,0,1-8.1-10.4A63.59,63.59,0,0,1,125.7,207.7Zm-1.5-2.2a9.8,9.8,0,0,1,2.6-5.4,16.42,16.42,0,0,1,6.5-3.8,54.89,54.89,0,0,1,12.8-2.6,77.91,77.91,0,0,1,14.5-.3c7.4,0.6,14.7,1.7,21.3,5.3a6.73,6.73,0,0,1,1.1.7,0.53,0.53,0,0,0,.3.2c0.3,0.2.5,0.4,0.8,0.6h0a18.26,18.26,0,0,1,1.6,1.3,0.35,0.35,0,0,0-.2.1,7.67,7.67,0,0,1,1.9,3.4,6.73,6.73,0,0,0-.7-1.1c-0.2-.3-0.4-0.7-0.6-1a10.92,10.92,0,0,0-1.3-1.7l-0.6-.6-0.3-.3c-0.2-.1-0.3-0.3-0.5-0.4l-0.9-.6a27.83,27.83,0,0,0-4.9-2.4,16.12,16.12,0,0,0-2.9-.9,67.44,67.44,0,0,0-20-2.6,74,74,0,0,0-19.3,2.4,23.72,23.72,0,0,0-6.2,2.5,11.47,11.47,0,0,0-4.8,6.4c-0.1.2-.1,0.3-0.2,0.5A0.3,0.3,0,0,1,124.2,205.5Zm-7.9-4.5h6.3c-0.3.8-1.6,1.4-3.1,1.4S116.6,201.8,116.3,201Zm0-.9c0.3-.8,1.6-1.4,3.2-1.4s2.8,0.6,3.1,1.4h-6.3Z" transform="translate(-94.36 -63.46)"/><path class="d" d="M286,200a7.65,7.65,0,0,1-2.2,5.1,3.32,3.32,0,0,1-2.5,1.2c-1.3-.2-2-1.7-3.1-2.4-2.2-1.3-2-6.3.3-7.4C281.7,194.9,285.9,196,286,200Z" transform="translate(-94.36 -63.46)"/><path class="d" d="M124.3,200a7.65,7.65,0,0,1-2.2,5.1,3.32,3.32,0,0,1-2.5,1.2c-1.3-.2-2-1.7-3.1-2.4-2.2-1.3-2-6.3.3-7.4C120,194.9,124.2,196,124.3,200Z" transform="translate(-94.36 -63.46)"/><path class="m" d="M222.1,253.2s-7.3,6.7-20.3,7.4c-16.3.9-24.8-7-24.8-7s13.1,5.6,24.2,4.8A72.33,72.33,0,0,0,222.1,253.2Z" transform="translate(-94.36 -63.46)"/><circle class="g" cx="443.43" cy="217.36" r="5.9" transform="matrix(0.14, -0.99, 0.99, 0.14, 70.66, 561.78)"/><path class="g" d="M439.7,211.8a20,20,0,0,0,9.3,1.7c0.1-.1.1-0.2,0.2-0.3,1.7-2.5.4-15.7,0-18.4-1.1-6.9-3.6-11.9-9.4-10.4C427.8,187.3,430.6,207.3,439.7,211.8Z" transform="translate(-94.36 -63.46)"/><path class="g" d="M446.2,205.8c3.4-3.1-.5-13.1-3.3-14.6-2.3-1.3-7.6,1.4-4.7,7,1.1-5.4,3.7-2,3.5,1.8-0.1,2.5-2.1,2.6.1,5.8C443,207.5,445.2,206.8,446.2,205.8Z" transform="translate(-94.36 -63.46)"/><circle class="g" cx="442.96" cy="216.68" r="4.6" transform="translate(71.02 560.78) rotate(-81.81)"/><circle class="g" cx="552.42" cy="217.29" r="5.9" transform="translate(-119.71 17.59) rotate(-8.2)"/><path class="g" d="M556.1,211.8a20,20,0,0,1-9.3,1.7c-0.1-.1-0.1-0.2-0.2-0.3-1.7-2.5-.4-15.7,0-18.4,1.1-6.9,3.6-11.9,9.4-10.4C568,187.3,565.3,207.3,556.1,211.8Z" transform="translate(-94.36 -63.46)"/><path class="g" d="M549.6,205.8c-3.4-3.1.5-13.1,3.3-14.6,2.3-1.3,7.6,1.4,4.7,7-1.1-5.4-3.7-2-3.5,1.8,0.1,2.5,2.1,2.6-.1,5.8C552.8,207.5,550.7,206.8,549.6,205.8Z" transform="translate(-94.36 -63.46)"/><circle class="g" cx="552.9" cy="216.73" r="4.6" transform="translate(-119.6 17.54) rotate(-8.19)"/><path class="g" d="M591.5,238.9a58.3,58.3,0,0,1-7.8,26.8c-15,25.9-47.4,36.9-78.9,26.6l4.7-14.4c24.6,8,49.7-.1,61-19.8a43.35,43.35,0,0,0,5.8-19.9Z" transform="translate(-94.36 -63.46)"/><path class="g" d="M474.2,290.4c-15.2,14.8-21.1,34.9-14.2,52.3a41.83,41.83,0,0,0,12.2,16.7l-10.7,11.7A56,56,0,0,1,445,348.6c-9.6-24.4-.8-52.5,21.5-71.8" transform="translate(-94.36 -63.46)"/><path class="e" d="M576,237.6c-3.5-2.4-10.8-13.3-7.8-15.2,2.4-1.5,3.4,6.4,6,4.5,2.9-2.1-1.7-17.1,1.9-17.1,4,0.1,1.2,12.5,4.3,12s-1.9-16,2.4-15.7,0.3,14.6,3.4,14.5-0.6-13.1,3.2-13c4.3,0.1-.2,15.6,1.8,15.4,3.4-.3.5-10.9,3.8-10.9,2-.1,2.1,5.6,1.2,11.8-0.8,5.5-2.5,11-5,13.6C586,242.9,582.2,241.9,576,237.6Z" transform="translate(-94.36 -63.46)"/><path class="g" d="M523.8,273.4c10.3,9.2,8.2,25.6-3.6,37.7-15.6,16-19.6,25.3-19.6,25.3s-30.3-41.3-24.2-56.9C483.7,260.6,513.4,264.2,523.8,273.4Z" transform="translate(-94.36 -63.46)"/><path class="g" d="M537.9,297.2c-0.9,4.6-3.2,8.9-4.8,14.6-3.9,13.4-2.1,29.2,7.4,53.8-5.9,2.8-39.8,2.1-43.2-15.1-0.2,16.4-37.7,16.5-37.3,15.2,7.3-22.2,17-34.3,6-58.4-5.5-12-4.1-14.5-2.5-21.7,3.3-14.8,7.3-6.9,8.8-2.6,7.6,21.5,26.4,41.4,26.4,41.4s25.8-23.3,32.2-41.3c0.9-2.4.8-5.5,1.4-6.3" transform="translate(-94.36 -63.46)"/><path class="g" d="M498.2,331.3s2.6,0.4-.7,10.5C497.6,341.8,498,341.6,498.2,331.3Z" transform="translate(-94.36 -63.46)"/><circle class="d" cx="408.54" cy="263.54" r="2.2"/><circle class="d" cx="410.74" cy="280.14" r="2.2"/><circle class="d" cx="407.94" cy="279.84" r="2.2"/><path class="g" d="M480.1,270.4c-5.2,1.4-18.7,6.2-16.7,8.7s9.5,6.3,10.3,8.1a24.65,24.65,0,0,0-4.5,2.5c-2,1.5-5.8,3.9-3.8,6,10.4,10.4,32.6,28.8,32.5,28.8-8.5-12.6-16.2-29-19.2-44.2-0.9-4.4.9-7,3.1-10.3A7,7,0,0,0,480.1,270.4Z" transform="translate(-94.36 -63.46)"/><ellipse class="h" cx="484.49" cy="270.59" rx="2" ry="1.9" transform="translate(-100.6 -51.96) rotate(-1.35)"/><path class="g" d="M529.4,289.3a23.21,23.21,0,0,1,4,3c1.8,1.8,5.1,4.6,3,6.5-11,9.8-37.8,25.6-37.8,25.6a174,174,0,0,0,21.3-30.8c3.4-6.5,8.6-15,4.2-22.3,0.7,0.2,19.4,6.7,16,10.6-2.3,2.6-9.8,5.7-10.7,7.4" transform="translate(-94.36 -63.46)"/><ellipse class="h" cx="519.89" cy="270.89" rx="2" ry="1.9" transform="translate(-100.6 -51.12) rotate(-1.35)"/><path class="g" d="M519.4,281.7A168,168,0,0,1,501.3,306c-5.9-5.5-16.4-21.8-17.9-25.8-2.8-7.5-1.1-8.1,2.9-10.3,8-4.5-.7-25.1,5.7-30.2,4.8-3.9,12.7-4.2,18.3-1.9,10.9,4.5.1,29.5,10.6,34C523,272.6,523.5,275.1,519.4,281.7Z" transform="translate(-94.36 -63.46)"/><ellipse class="h" cx="483.19" cy="271.99" rx="2" ry="1.9" transform="translate(-100.67 -51.93) rotate(-1.36)"/><ellipse class="h" cx="521.49" cy="272.99" rx="2" ry="1.9" transform="matrix(1, -0.02, 0.02, 1, -100.65, -51.09)"/><circle class="h" cx="517.31" cy="277.04" r="2.3" transform="translate(117.02 714.34) rotate(-86.75)"/><circle class="h" cx="511.95" cy="280.53" r="2.3" transform="translate(108.52 712.31) rotate(-86.75)"/><circle class="h" cx="505.07" cy="282.78" r="2.3" transform="translate(99.89 707.63) rotate(-86.77)"/><circle class="h" cx="498.18" cy="283" r="2.3" transform="translate(93.11 700.93) rotate(-86.76)"/><circle class="h" cx="485.79" cy="276.08" r="2.3" transform="translate(88.34 682.03) rotate(-86.76)"/><circle class="h" cx="491.21" cy="280.21" r="2.3" transform="translate(89.39 691.38) rotate(-86.77)"/><path class="o" d="M500.2,379.4c15.9,0,29.8-5.1,37.3-12.8q0.6,7.65.6,15.6c0,46.7-15.3,85.1-34.7,88.9,2-16,3.6-41.6,2.1-71.3v-0.1a16.06,16.06,0,0,1-5.3,1,13.86,13.86,0,0,1-5.3-1v0.1c0,29.2-.6,55,2.1,71.3-19.5-3.8-34.7-42.1-34.7-88.9q0-7.95.6-15.6C470.4,374.2,484.3,379.4,500.2,379.4Z" transform="translate(-94.36 -63.46)"/><path class="c" d="M526,458.6c-7.7,0-18.2,4.4-22.7,13.6h35.4C538.9,462.8,533.7,458.6,526,458.6Z" transform="translate(-94.36 -63.46)"/><path class="c" d="M473.2,458.1c8,0,18.9,4.6,23.6,14.1H460C459.7,462.5,465.1,458.1,473.2,458.1Z" transform="translate(-94.36 -63.46)"/><circle class="g" cx="411.14" cy="274.14" r="2.3"/><ellipse class="g" cx="513.28" cy="258.89" rx="2" ry="1.9" transform="matrix(1, -0.06, 0.06, 1, -109.55, -30.84)"/><path class="g" d="M486.4,67.7c-37.5-16.2-67.2,23.6-61,54.4,4.9,24.2-3,33.6-15,27.6,2.3,11.3,37.3,55.4,80.4,4.4S504.4,75.5,486.4,67.7Z" transform="translate(-94.36 -63.46)"/><path class="g" d="M475.6,72.8c-8.4-6.2-29.5-4.8-42.1,17.4-5.9,10.3-6.9,25.2-6.9,25.2s11.7-36.6,44.9-20.9C508,111.7,475.6,72.8,475.6,72.8Z" transform="translate(-94.36 -63.46)"/><path class="g" d="M487.3,114.5c-9.8.8-24.4-15.7-34,24.5-6.8,28.4-21.7,31.1-38.5,17.2,0,0,19.9,31.2,60.1,16.7C518.6,157,531.6,110.9,487.3,114.5Z" transform="translate(-94.36 -63.46)"/><circle class="h" cx="498.89" cy="99.3" r="12" transform="translate(-102.77 73.14) rotate(-15.46)"/><path class="g" d="M495.2,186.8c9.7-1.3,19.4-.3,28.9,1.4,9.3,1.6,22.8,30.1,27.9,24.6,12.2-13.2,31.7-110-46-116.3-88.7-7.2-86.9,117.3-48.1,117C477.7,213.4,475.5,189.4,495.2,186.8Z" transform="translate(-94.36 -63.46)"/><path class="c" d="M448.7,183.8c-0.2,1.8-.3,3.7-0.4,5.6-2.5,39.8,23.2,69.2,52.2,74.2,21.1,3.7,50.4-25.2,54.4-62.2" transform="translate(-94.36 -63.46)"/><path class="d" d="M556.7,202.5c0.3-2.2.5-4.5,0.6-6.8,1.8-42.7-11.4-69.6-52-72.4-40.3-2.7-57.4,22-61.7,61.6" transform="translate(-94.36 -63.46)"/><path class="g" d="M442.2,195a93,93,0,0,1,3.7-54" transform="translate(-94.36 -63.46)"/><path class="g" d="M442.2,195a101.32,101.32,0,0,0,8.9,24.8c-3.9-17.4-4.5-64.1,7.4-77.4s34.1-4.3,45,6a24.78,24.78,0,0,1,1.5-5.5c0.4,0.5,3.8,3.7,4.3,4.6,2.2-7.3,9.5-5,13.1.2,5.9-15.9,30-14.8,33.5,28.1" transform="translate(-94.36 -63.46)"/><path class="d" d="M441.9,160s-0.4,21.1-.2,24.5,2.2,12.5,2.8,15a4.18,4.18,0,0,0,2.5,3.1l0.7-6.5-0.1-11.7,0.9-8.8-2.1-7.3Z" transform="translate(-94.36 -63.46)"/><path class="p" d="M557.5,166.7c0.9,9.1-.2,23.8-3.2,40.3" transform="translate(-94.36 -63.46)"/><path class="g" d="M511.5,207.4s-0.1-4-6.7-4.3c-7.9-.4-8.3,3.5-8.3,3.5S504.1,201.9,511.5,207.4Z" transform="translate(-94.36 -63.46)"/><path class="g" d="M467.4,168.8c-2.7,1.6-5.3-.4-2.6-2,6.6-4,17.4-3.4,23.4,1.3,2.4,1.9-1.3,4.7-3.7,2.8C480.3,167.6,471.9,166,467.4,168.8Z" transform="translate(-94.36 -63.46)"/><path class="g" d="M543.6,171.7c2.8,1.3,5.2-1,2.4-2.3-7-3.3-17.7-1.5-23.1,3.9-2.2,2.2,1.8,4.5,3.9,2.3C530.6,172,538.7,169.5,543.6,171.7Z" transform="translate(-94.36 -63.46)"/><ellipse class="g" cx="478.29" cy="190.91" rx="9.8" ry="9.1" transform="translate(-124.18 43.63) rotate(-12.39)"/><path class="f" d="M471.1,193.3c0.8,3.7,4.7,5.9,8.6,5.1s6.5-4.5,5.7-8.2-4.7-5.9-8.6-5.1S470.3,189.6,471.1,193.3Z" transform="translate(-94.36 -63.46)"/><ellipse class="d" cx="473.89" cy="189.12" rx="2.3" ry="2.2" transform="translate(-123.9 42.65) rotate(-12.39)"/><path class="f" d="M484.3,183.6s-2.7-3-8.2-2.5-8,2.9-10.8,1.2c0,0,1.2,2.5,3.7,2.5,0,0-4.1.8-5.6,0,0,0,3,3.8,6.6,1.5a10.73,10.73,0,0,1,6.5-3.7A13.3,13.3,0,0,1,484.3,183.6Z" transform="translate(-94.36 -63.46)"/><ellipse class="g" cx="531.69" cy="190.55" rx="9.1" ry="9.8" transform="translate(144 609.75) rotate(-78.43)"/><path class="f" d="M537.9,192.8a7.09,7.09,0,0,1-8.5,5.2c-4-.8-6.6-4.5-5.8-8.1A7.31,7.31,0,0,1,537.9,192.8Z" transform="translate(-94.36 -63.46)"/><ellipse class="d" cx="535.03" cy="188.64" rx="2.2" ry="2.3" transform="translate(148.54 611.5) rotate(-78.43)"/><path class="f" d="M525.6,183.3s2.7-3.1,8.2-2.6,8.1,2.7,10.9,1.1a4.49,4.49,0,0,1-3.6,2.6s4.1,0.8,5.6-.1c0,0-3,3.8-6.6,1.6a11.34,11.34,0,0,0-6.5-3.6A12.86,12.86,0,0,0,525.6,183.3Z" transform="translate(-94.36 -63.46)"/><path class="g" d="M520.6,228.2a39.28,39.28,0,0,1-15.1,3h-2.2a39.28,39.28,0,0,1-15.1-3c3.5,7.5,9.5,10.7,15.9,11.2h0.6C511,238.9,517,235.7,520.6,228.2Z" transform="translate(-94.36 -63.46)"/><path class="g" d="M527.9,224.2c-0.2-.7-2.1-0.5-3,0.7a4.77,4.77,0,0,1-2,1.3c-2.4.6-5.5,1.2-8.2,0.6-6.5-1.4-5,.4-9,1.2a4.87,4.87,0,0,1-1.2.1h-0.6a4.87,4.87,0,0,1-1.2-.1c-3.9-.8-2.5-2.7-9-1.2-2.7.6-5.8,0-8.2-.6a4.57,4.57,0,0,1-1.9-1.3c-0.9-1.2-2.8-1.4-3-.7s1.4,1.1,2.2,1.7a0.1,0.1,0,0,1,.1.1c4.2,3.6,12.3,5.7,20.9,6.1h0.6c8.5-.3,16.7-2.4,20.9-6a0.1,0.1,0,0,0,.1-0.1C526.4,225.3,528.2,225,527.9,224.2Z" transform="translate(-94.36 -63.46)"/><ellipse class="d" cx="734.24" cy="259.14" rx="79.4" ry="75.2"/><path class="c" d="M882.3,224.9c-0.3,2.3,1.7-.4.9-1.9a3.4,3.4,0,0,0-2.6-1.8A3.39,3.39,0,0,1,882.3,224.9Z" transform="translate(-94.36 -63.46)"/><path class="c" d="M810.7,224.9c0.3,2.3-1.7-.4-0.9-1.9a3.4,3.4,0,0,1,2.6-1.8A3.25,3.25,0,0,0,810.7,224.9Z" transform="translate(-94.36 -63.46)"/><polyline class="h" points="610.64 245.24 618.44 218.94 631.04 222.84 634.24 227.74 610.64 245.24"/><polygon class="h" points="609.24 244.54 583.74 227.04 586.14 227.94 589.74 228.84 594.14 229.64 598.24 230.44 602.34 230.74 610.04 243.94 609.24 244.54"/><path class="c" d="M645.9,237.7c1.6,6.2-3.9,12.8-12.4,14.6s-16.7-1.7-18.3-7.9,3.9-12.8,12.4-14.6S644.3,231.4,645.9,237.7Z" transform="translate(-94.36 -63.46)"/><path class="c" d="M772.6,214.3c1.6,6.2-3.9,12.8-12.4,14.6s-16.7-1.7-18.3-7.9,3.9-12.8,12.4-14.6S771,208.1,772.6,214.3Z" transform="translate(-94.36 -63.46)"/><circle class="g" cx="647.39" cy="232.52" r="16.1" transform="translate(-130.74 93.99) rotate(-13.49)"/><path class="c" d="M758.7,198.5c11.6,44.1-9.2,86.4-46.4,94.4s-76.7-21.2-88.3-65.3,9.2-86.4,46.4-94.4S747.2,154.4,758.7,198.5Z" transform="translate(-94.36 -63.46)"/><circle class="f" cx="666.28" cy="226.8" r="7.3" transform="translate(-123.16 52.76) rotate(-9.76)"/><circle class="g" cx="664.28" cy="224.32" r="2.5" transform="translate(-122.77 52.39) rotate(-9.76)"/><circle class="f" cx="725.28" cy="220.91" r="7.3" transform="translate(-121.31 62.68) rotate(-9.76)"/><circle class="g" cx="723.38" cy="218.4" r="2.5" transform="translate(-120.91 62.32) rotate(-9.76)"/><path class="c" d="M729,122.4c-9-4.8-25.2-16.9-32.8-5-0.9-3.9-3.2-7.2-8.7-7-7.9.3-15.4,5.7-21.8,9.2-17.5,9.5-37,18-50,32.1-6,6.5-11.5,13.7-14.3,21.8-2.7,7.7.5,18.4,2,26.2,0.9,4.4,2.8,8.5,4.2,12.7,1.8,5.4,3.1,10.8,5.3,16.1,2.9,7.1,7.6,11.2,15.2,14.7,1.8,0.8,3.6,1.6,5.4,2.5a0.36,0.36,0,0,0,.4-0.6h0c-0.7-4.4-2.8-8.9-4.3-13.2-1.8-5-3.6-9.9-5.3-14.9-0.9-2.7-2.4-5.9-2.4-8.8,0.1-3.4,1.7-7.3,2.7-10.5,0.2-.6.4-1.3,0.6-1.9a43.46,43.46,0,0,0,1.2,15.7,6.15,6.15,0,0,0,.1,1.4c0,0.2.4,0.2,0.4,0,2.2-14,10-25.3,20.8-35.4,6.1-5.7,14.1-11.1,19.3-17.8-0.7,1.1-1.3,2.3-2.1,3.4-2.9,4.3-6.8,8.1-9.7,12.4,0,0.1,0,.2.1,0.2a1.06,1.06,0,0,1-.5.2c-0.1.1,0,.2,0.1,0.2,10-4,19.3-10.5,24.3-19.2-1.2,3.6-1.7,7.4-3.3,11h-0.1c-0.2.2,0.1,0.4,0.3,0.2a50.3,50.3,0,0,0,20.4-31,19.11,19.11,0,0,0,1.4,2.1c2.8,3.8,6.7,7.1,10.4,10.2a103.52,103.52,0,0,0,9.1,6.9c5.8,3.8,13.1,5.5,19,9.1,8.2,4.9,11.2,13.6,15.3,21.1,1.6,3,1.9,6,2.5,9.3,1.3,7.1,1.9,14.6,4.2,21.5,0,0.1,0,.2-0.1.2a0.47,0.47,0,0,0,.9.2c2.4-5.3,5.5-9.8,5.4-15.7-0.1-4.5-.4-8.9-0.6-13.4-0.7-11.6-1.3-23.4-3.8-34.8C757.1,139.1,743,129.8,729,122.4Zm-39-11.1h-0.3" transform="translate(-94.36 -63.46)"/><path class="c" d="M682.8,270.9c3.1,0.4,12.2-.6,22.7-2.6,10.2-1.9,18.8-4.1,21.9-5.6" transform="translate(-94.36 -63.46)"/><path class="q" d="M730.5,257.7c-3.5,2.9-17.3,6.3-26.1,8s-22.4,3.3-26.7,1.8c8.4,7.5,17.6,7.7,26.4,6.3a1.7,1.7,0,0,0,.7-0.1c0.3-.1.7-0.1,1-0.2s0.7-.1,1-0.2a1.45,1.45,0,0,0,.7-0.2C716.3,271.3,725.9,267.6,730.5,257.7Z" transform="translate(-94.36 -63.46)"/><path class="q" d="M698.4,278.4a37.7,37.7,0,0,0,5.8-.4,1.7,1.7,0,0,0,.7-0.1c0.3-.1.7-0.1,1-0.2s0.7-.1,1-0.2a1.45,1.45,0,0,0,.7-0.2,44.4,44.4,0,0,0,6.2-1.9" transform="translate(-94.36 -63.46)"/><path class="g" d="M658.2,213c-2.8,1.2-5-1.1-2.2-2.3,6.9-2.9,17.1-.9,22.2,4.4,2.1,2.2-1.8,4.3-3.9,2.2C670.8,213.6,662.9,211,658.2,213Z" transform="translate(-94.36 -63.46)"/><path class="g" d="M729.3,204.6c2.8,1,4.9-1.4,2.1-2.4-7.1-2.5-17.2.3-21.8,5.9-1.9,2.3,2.1,4.2,4,1.9C716.8,206.1,724.4,202.9,729.3,204.6Z" transform="translate(-94.36 -63.46)"/><path class="c" d="M708.7,243c2.1,0.9,0,5.6-7.4,7s-13.1-2.4-10.6-3.9,4.7-.7,9-1.4C704.4,243.8,706.3,241.9,708.7,243Z" transform="translate(-94.36 -63.46)"/><g class="r"><path class="s" d="M656.6,252.4c4.5-.2,16.9-1.9,23.5-3,2.9-.5,5.3-1.1,5.3-1.1s2.8-2.7.9-3.1c-1.1-.3-10.7,1.2-18.8,2.1-15.9,1.7-17.9,2.6-15.6,4A13,13,0,0,0,656.6,252.4Z" transform="translate(-94.36 -63.46)"/><path class="c" d="M683.9,244.6c-1.6.1-32.5,4.4-32.5,4.4l-1.3.8s0,0.5,1.4,1.5a9.75,9.75,0,0,0,6.2,1.2c2.5-.2,26.6-3.1,28.4-4.3,1.5-1,2.5-2.4,2.2-2.7A11.26,11.26,0,0,0,683.9,244.6Zm-3.6,4.7c-6.6,1.1-19,2.8-23.5,3a8.93,8.93,0,0,1-3.9-.8c-1.3-.6-1.2-0.9-1.2-1.6l33.1-4.3a7.79,7.79,0,0,1,2.1.4C687.4,248,684,248.7,680.3,249.3Z" transform="translate(-94.36 -63.46)"/><path class="c" d="M650.6,249.7s33.7-4.4,33.9-4.4a8.35,8.35,0,0,1,2.5.3c0.6,0.3-1.1,0-2.3-.1s-33.5,4.3-33.5,4.3-0.3,0,0,.5-0.6-.1-0.7-0.3A1,1,0,0,1,650.6,249.7Z" transform="translate(-94.36 -63.46)"/><path class="c" d="M651.6,249l-1,.7s33.2-4.5,34.2-4.5,2,0.2,2.6.2c0.8,0.1-1.7-.7-2.8-0.7S651.6,249,651.6,249Z" transform="translate(-94.36 -63.46)"/><path class="s" d="M741.9,243.2c-4.4.8-16.9,1.8-23.6,2.1-3,.2-5.4.1-5.4,0.1s-3.3-2-1.6-2.8c1.1-.5,10.7-1.1,18.8-2,15.9-1.7,18-1.2,16.1.6A13.5,13.5,0,0,1,741.9,243.2Z" transform="translate(-94.36 -63.46)"/><path class="c" d="M709.4,243.2c-0.2.3,1.1,1.5,2.8,2.1,2,0.8,26.1-1.5,28.7-1.9s4.7-1.2,5.8-2.5,1-1.7,1-1.7l-1.5-.5s-31,2.5-32.7,2.7A11.39,11.39,0,0,0,709.4,243.2Zm1.6,0.2a16.67,16.67,0,0,1,2-.8l33.3-2.8c0.2,0.7.3,0.9-.8,1.8a10.21,10.21,0,0,1-3.7,1.6c-4.4.8-17,1.8-23.6,2.1C714.4,245.4,710.9,245.5,711,243.4Z" transform="translate(-94.36 -63.46)"/><path class="c" d="M747.2,239.3s-33.9,2.9-34.1,2.9a7.44,7.44,0,0,0-2.4.8c-0.5.4,1-.3,2.2-0.5s33.7-2.9,33.7-2.9,0.3-.1.1,0.5,0.6-.2.6-0.4A0.3,0.3,0,0,0,747.2,239.3Z" transform="translate(-94.36 -63.46)"/><path class="c" d="M746.1,238.8l1.2,0.4s-33.3,2.7-34.4,2.9a18.64,18.64,0,0,0-2.5.8c-0.8.3,1.5-1,2.6-1.3C713.9,241.4,746.1,238.8,746.1,238.8Z" transform="translate(-94.36 -63.46)"/><path class="c" d="M710.3,243.9a16.27,16.27,0,0,0-22.5,2.5l0.1-.7s2.5-4.7,10.6-5.6c7.6-.8,11.8,3.2,11.8,3.2v0.6Z" transform="translate(-94.36 -63.46)"/></g><path class="s" d="M656.4,250.4c4.6,0.7,16.8-2.1,23.3-4.1a21.23,21.23,0,0,0,5.2-2.5s2.1-8.8.1-10.8c-1.2-1.2-10.7,1.3-18.8,2.2-15.9,1.6-17.7,4.5-14.9,10C653.5,249.5,656.4,250.4,656.4,250.4Z" transform="translate(-94.36 -63.46)"/><path class="c" d="M682.3,230.3c-1.6,0-32.3,6.5-32.3,6.5l-1.1,2.4a20.47,20.47,0,0,0,1.8,5.6c1.8,4,4.2,6.1,6.8,6.1s26.5-3.5,28.1-7.4c1.3-3.2,1.9-7.9,1.6-8.9S684,230.2,682.3,230.3ZM679.9,246c-6.4,2.2-18.8,4.8-23.4,4.1,0,0-2.1-.3-4.3-3.9-1.5-2.4-1.5-3.4-1.7-5.9l32.9-6.3a12.09,12.09,0,0,1,2.3,1.9C686.9,243.5,683.6,244.8,679.9,246Z" transform="translate(-94.36 -63.46)"/><g class="t"><path class="u" d="M650.3,236.9l-0.9,2.2s32.9-6.8,34-6.6,2.1,1.2,2.7,1.5c0.9,0.5-1.9-2.9-3.1-3.4C682,230.2,650.3,236.9,650.3,236.9Z" transform="translate(-94.36 -63.46)"/></g><path class="c" d="M650.3,236.9l-0.9,2.2s32.9-6.8,34-6.6,2.1,1.2,2.7,1.5c0.9,0.5-1.9-2.9-3.1-3.4C682,230.2,650.3,236.9,650.3,236.9Z" transform="translate(-94.36 -63.46)"/><path class="s" d="M741.7,241.2c-4.4,1.7-16.9,1.6-23.7,1a24.29,24.29,0,0,1-5.6-1.3s-4-8.1-2.4-10.6c0.9-1.5,10.7-1,18.8-1.9,15.9-1.8,18.2.6,16.7,6.6C744.3,239.7,741.7,241.2,741.7,241.2Z" transform="translate(-94.36 -63.46)"/><path class="c" d="M708.3,232.4c-0.1,1.1,1.5,5.6,3.4,8.4,2.3,3.5,26.5,1.8,29,1.2s4.5-3.1,5.3-7.4,0.6-5.9.6-5.9l-1.6-2.1s-31.3.2-32.9,0.5S708.4,231.4,708.3,232.4Zm1.6,0.9c0-.5,1.8-2.4,1.8-2.4l33.5-.9a9.89,9.89,0,0,1-.4,6.1c-1.3,3.9-3.3,4.7-3.3,4.7-4.4,1.7-17,1.8-23.7,1C713.9,241.5,710.4,240.9,709.9,233.3Z" transform="translate(-94.36 -63.46)"/><g class="t"><path class="v" d="M744.8,226.7l1.3,1.9s-33.6.3-34.6,0.8a7.9,7.9,0,0,0-2.3,2.1c-0.8.7,1.3-3.2,2.3-4C712.3,226.9,744.8,226.7,744.8,226.7Z" transform="translate(-94.36 -63.46)"/></g><path class="c" d="M744.8,226.7l1.3,1.9s-33.6.3-34.6,0.8a7.9,7.9,0,0,0-2.3,2.1c-0.8.7,1.3-3.2,2.3-4C712.3,226.9,744.8,226.7,744.8,226.7Z" transform="translate(-94.36 -63.46)"/><path class="c" d="M709.3,234.9s-8.7-1.3-11.6-1-11,3.4-11,3.4V235s8.3-1.6,11.1-1.9,11.3-.5,11.3-0.5Z" transform="translate(-94.36 -63.46)"/><path class="w" d="M686.3,234.3a2,2,0,0,1,.1,1.1,0.62,0.62,0,0,1-.5-0.1l-2.4-1.7-33,6.5-1-.8s29.9-6.4,33.8-6.7a4.11,4.11,0,0,1,1.2.7c0.6,0.3,1.2.8,1.4,0.9A1.58,1.58,0,0,0,686.3,234.3Z" transform="translate(-94.36 -63.46)"/><path class="w" d="M708.9,231.9a2.08,2.08,0,0,0,.1,1.1,0.59,0.59,0,0,0,.5-0.2l2-2.2,33.6-.7,0.8-1s-30.6.2-34.5,0.7a2.4,2.4,0,0,0-1,.9,9.11,9.11,0,0,1-1.2,1.1Z" transform="translate(-94.36 -63.46)"/><polygon class="d" points="558.34 162.14 585.14 156.04 568.04 152.34 558.34 162.14"/><line class="a" x1="555.74" y1="163.34" x2="558.34" y2="162.14"/><line class="j" x1="553.94" y1="163.34" x2="585.14" y2="156.04"/><path class="c" d="M789.3,383.8c12.7,6.6,30.4,10.8,49.9,10.8,26.1,0,48.8-7.3,60.9-18.2a132.63,132.63,0,0,0,9.2-49.5,141.52,141.52,0,0,0-2-23.8q2.1,4.05,4.2,8.7" transform="translate(-94.36 -63.46)"/><path class="c" d="M832.6,384.9c-29.2,0-54.7-4.2-68.5-10.5a78.33,78.33,0,0,0-1.1,12.9c0,38.5,28,70.1,63.7,73.3-3.6-13.2-6.6-34.3-3.9-58.8v-0.1a62.43,62.43,0,0,0,9.7.8,61.43,61.43,0,0,0,9.7-.8v0.1c0,24.1,1.2,45.4-3.9,58.8,35.7-3.1,63.7-34.8,63.7-73.3a78.34,78.34,0,0,0-1.1-12.9C887.3,380.7,861.8,384.9,832.6,384.9Z" transform="translate(-94.36 -63.46)"/><path class="c" d="M782.1,256c-17.2,9.1-29.3,31.1-29.3,56.8" transform="translate(-94.36 -63.46)"/><path class="c" d="M922,288.2c-9.6-16.4-23.2-29.8-43-36.3-11.2-12.3-25.4-19.7-40.9-19.7-14.8,0-28.5,6.8-39.4,18.2a69.72,69.72,0,0,0-12.4,4.3" transform="translate(-94.36 -63.46)"/><path class="c" d="M918.1,285.2c7.4,3.4,15.4,6.8,16.3,6.2,1.8-1.2,15.6-27.8,15.6-27.8l15.8,18.3s-17.8,31-24.1,34.6c-6.1,3.5-22.4,3.4-30.3-5" transform="translate(-94.36 -63.46)"/><path class="c" d="M748.2,374.8c-0.9,4.9-.3,6.7,6.3,16.2s13.2,13,14.3,6.8-1.3-29.8-5.4-29.2S748.2,374.8,748.2,374.8Z" transform="translate(-94.36 -63.46)"/><path class="c" d="M741.3,368.2l24.2-5.8,1.1,9.8s-22.6,7.9-22.9,7.7S741.3,368.2,741.3,368.2Z" transform="translate(-94.36 -63.46)"/><path class="c" d="M757.7,283.9s-13.3,30.4-13.6,57.7-0.5,27-.5,27l19.3-4.2-3.6-56.5" transform="translate(-94.36 -63.46)"/><path class="x" d="M855.1,361.9c-1.1-5.6-11-78.9-11.3-83.1a41.9,41.9,0,0,0-10-1,48.8,48.8,0,0,0-10,1c-0.4,4.2-10.2,77.6-11.3,83.1s13.5,20,18.9,27.8a2.67,2.67,0,0,0,4.8,0C841.6,381.9,856.2,367.5,855.1,361.9Z" transform="translate(-94.36 -63.46)"/><path class="c" d="M853.7,361.3c-1.1-5.6-11-78.9-11.3-83.1a41.9,41.9,0,0,0-10-1,48.8,48.8,0,0,0-10,1c-0.4,4.2-10.2,77.6-11.3,83.1s13.5,20,18.9,27.8a2.67,2.67,0,0,0,4.8,0C840.2,381.3,854.8,366.9,853.7,361.3Z" transform="translate(-94.36 -63.46)"/><path class="c" d="M846.5,278.5c0,9.1-6.7,13.4-14.5,13.4s-13.7-4.3-13.7-13.4,6.3-16.6,14.1-16.6S846.5,269.4,846.5,278.5Z" transform="translate(-94.36 -63.46)"/><path class="c" d="M846.5,278.8c0,8.3-6.7,12.1-14.5,12.1s-13.7-3.9-13.7-12.1,6.3-16.8,14.1-16.8S846.5,270.5,846.5,278.8Z" transform="translate(-94.36 -63.46)"/><path class="c" d="M777,258.7l-3.2,13.1s39.8,20.9,39.1,20.2c-0.1-.1,3.5-3.4,4.5-5.1,2.5-4.3,14.4-25.2,14.4-25.2s-27.1,3.6-42.2.5C781.8,260.5,781.8,260.4,777,258.7Z" transform="translate(-94.36 -63.46)"/><path class="c" d="M888.4,258.7l3.2,13.1s-39.8,20.9-39.1,20.2c0.1-.1-3.5-3.4-4.5-5.1-2.5-4.3-14.4-25.2-14.4-25.2s27.1,3.6,42.2.5A74.4,74.4,0,0,0,888.4,258.7Z" transform="translate(-94.36 -63.46)"/><ellipse class="c" cx="662.44" cy="151.24" rx="15.5" ry="12.6"/><ellipse class="c" cx="813.24" cy="152.34" rx="15.5" ry="12.6"/><circle class="g" cx="694.34" cy="154.64" r="17.4"/><path class="c" d="M777.1,258.4a75.88,75.88,0,0,1-22.6-54c0-42.5,35.2-77,78.5-77s78.5,34.5,78.5,77-35.2,77-78.5,77a80,80,0,0,1-55.9-23" transform="translate(-94.36 -63.46)"/><circle class="d" cx="782.44" cy="145.94" r="17.4"/><circle class="f" cx="700.44" cy="153.44" r="6.1"/><circle class="g" cx="699.24" cy="151.14" r="2"/><circle class="f" cx="776.34" cy="153.44" r="6.1"/><circle class="g" cx="775.14" cy="151.14" r="2"/><path class="f" d="M839.3,235s-0.3-3.5-6-3.3c-6.9.2-7,3.6-7,3.6S832.6,230.7,839.3,235Z" transform="translate(-94.36 -63.46)"/><path class="c" d="M909.4,139s3.6-6.2.9-9.5c-31-38.1-87.6-42.8-111.2-24.6-24.3-6.4-42.9,17.1-43.7,30.3a17.7,17.7,0,0,0,.1,4c-8.8,3.3-16.7,4.1-13.4,16.7,3.3,12.9,5.9,17.1,6.6,24.6s7.4,16.8,2.1,20.6c-1.7,1.2-3.7,5.3-.2,8,5.6,4.3-.7,5.5,2.1,5.6s0.6-1,0,3.2,2.5,2.4,2.3,3.9-0.6,2.3,1.7,3.4,6-11.5,6.2-20.4-3-17,1.6-30c3.9-11.1,4.5-15.9,3.7-19.8a6.6,6.6,0,0,0,1.4.1,12.64,12.64,0,0,0,6.2-2.2c2.7-1.9,8.7-5.3,18-4.2,5.7,3.5,13.7,8.9,23.5,13.9,14.1,7.2,26.3,6.6,28.6,6s-6-.3-11.7-4.3c-1.5-1.1-3.5-2.5-5.6-4,9.7,2.7,18.6,3.4,22.1-2.2,1.7-2.7-4.2,9.4-19.8-8.2,17.1,2.2,10.7,3.9,19.3,4.3s8.6-1.6,19.2-2.5,8.8-2,19.9,4.7a32.33,32.33,0,0,0,6.6,3.1c0.2,3.4,1.4,7.9,4,15.2,4.6,13,1.4,21.1,1.6,30s3.9,21.5,6.2,20.4,1.9-2,1.7-3.4,2.9,0.3,2.3-3.9-2.8-3.1,0-3.2-3.5-1.3,2.1-5.6c3.5-2.7,1.5-6.8-.2-8-5.3-3.7,1.4-13.2,2.1-20.6s3.3-11.7,6.6-24.6S918.3,142.4,909.4,139Z" transform="translate(-94.36 -63.46)"/><path class="g" d="M791.7,184.2c-1.8,2.4-4.9,1.5-3.1-.9,4.6-5.9,14.5-9.1,21.5-7,2.8,0.9.5,4.6-2.3,3.8C803,178.6,794.9,180.1,791.7,184.2Z" transform="translate(-94.36 -63.46)"/><path class="g" d="M857.9,184.2c-1.8,2.4-4.9,1.5-3.1-.9,4.6-5.9,14.5-9.1,21.5-7,2.8,0.9.5,4.6-2.3,3.8C869.2,178.6,861.1,180.1,857.9,184.2Z" transform="translate(-94.36 -63.46)"/><path class="c" d="M859.3,253.5a49.23,49.23,0,0,1-11.4,2.3c-4.8.2-10.1-.7-14.3-0.7-8.5,0-21.4-.4-25.2-1.6a48.21,48.21,0,0,0,24,7.3C843.8,260.8,856.3,255.8,859.3,253.5Z" transform="translate(-94.36 -63.46)"/><path class="c" d="M804.5,251.7c-0.4,1.8-1.1-.8-0.2-1.7a3,3,0,0,1,2.4-.7A2.53,2.53,0,0,0,804.5,251.7Z" transform="translate(-94.36 -63.46)"/><path class="c" d="M864.5,254.3c-0.2,1.8,1.3-.4.7-1.5a2.54,2.54,0,0,0-2-1.4A2.84,2.84,0,0,1,864.5,254.3Z" transform="translate(-94.36 -63.46)"/><path class="c" d="M917.6,191.7c-16.7-6.1-43-6.3-61.6-2.4-3.1.6-14.2,4.2-15.1,4.5a28,28,0,0,1-7.5,1.2h-2.2a24.49,24.49,0,0,1-7.5-1.2c-0.9-.3-12-3.9-15.1-4.5-18.5-3.9-44.9-3.7-61.6,2.4,0.1,4.4-1.1,10.1,0,14.6,0.5,2.2,3.3,4.8,4.5,6.9,3.9,6.8,6,17.3,11.1,22.6,6.4,6.5,21,7.1,32.9,6.4,17.7-1.1,22.2-10.2,27.9-23.4,1.9-4.5,3.4-10.4,7.8-11.2h0a4.1,4.1,0,0,1,1.1-.1,4.48,4.48,0,0,1,1.1.1h0c4.4,0.8,5.9,6.7,7.8,11.2,5.6,13.2,10.2,22.3,27.9,23.4,11.9,0.7,26.5.2,32.9-6.4,5.1-5.2,7.2-15.8,11.2-22.6,1.2-2.1,4-4.7,4.5-6.9C918.7,201.8,917.5,196.1,917.6,191.7Zm-99.3,26.8c-2.3,8-5.4,13.8-11.1,17-8.5,4.8-29.6,5.2-38,0-5.7-3.5-7.9-10.2-9.3-18.8-1-5.7-1.6-13.8.8-17.5,4.2-6.5,22.5-6.6,33.4-5.8,10.4,0.7,23.4,3.3,25.5,10.1C821,208.1,819.4,214.6,818.3,218.5Zm86.2-1.9c-1.4,8.6-3.6,15.3-9.3,18.8-8.4,5.2-29.4,4.8-38,0-5.7-3.2-8.9-8.9-11.1-17-1.1-3.9-2.7-10.4-1.3-15.1,2-6.8,15.1-9.4,25.5-10.1,11-.8,29.2-0.6,33.4,5.8C906.2,202.8,905.5,210.9,904.5,216.6Z" transform="translate(-94.36 -63.46)"/><path class="c" d="M799.4,448.7c10.8,0,25.5,6.1,31.8,19.1H781.6C781.4,454.6,788.6,448.7,799.4,448.7Z" transform="translate(-94.36 -63.46)"/><path class="c" d="M865,448.7c-10.8,0-25.5,6.1-31.8,19.1h49.6C883.1,454.6,875.8,448.7,865,448.7Z" transform="translate(-94.36 -63.46)"/><path class="p" d="M763.4,384.7a8.75,8.75,0,0,0,5.5,4.2" transform="translate(-94.36 -63.46)"/><ellipse class="h" cx="882.04" cy="311.68" rx="12.9" ry="5.1" transform="matrix(0.27, -0.96, 0.96, 0.27, 246.17, 1011.04)"/><g class="t"><path class="y" d="M880.8,302.3l-0.4.5-0.3.5a13.85,13.85,0,0,0,3.8,1.7,16.79,16.79,0,0,0,4.2.6v-1.3a22.81,22.81,0,0,1-3.8-.6A24.89,24.89,0,0,1,880.8,302.3Z" transform="translate(-94.36 -63.46)"/></g><path class="h" d="M880.8,302.3l-0.4.5-0.3.5a13.85,13.85,0,0,0,3.8,1.7,16.79,16.79,0,0,0,4.2.6v-1.3a22.81,22.81,0,0,1-3.8-.6A24.89,24.89,0,0,1,880.8,302.3Z" transform="translate(-94.36 -63.46)"/><polygon class="c" points="797.54 263.64 786.24 268.54 775.04 263.64 775.04 247.04 797.54 247.04 797.54 263.64"/><path class="c" d="M888,304.4s2,1.8,2,3.9c-0.1,3.6-3.4,5.2-2.6,5.8,1.6,1.1-.2,2.7-0.5,1.6s-0.6-1.7.1-2.5a7,7,0,0,0,2-4.8c-0.1-2.7-1.1-2.8-1.1-2.8Z" transform="translate(-94.36 -63.46)"/><path class="c" d="M992.8,223.5a1.65,1.65,0,0,0-1.8-.1,4.79,4.79,0,0,1-.8,1.1c-2.2,2.3-6.8,11.8-9,16.8a22.64,22.64,0,0,1-1.2,2.8c-0.5,1.1,0-.3,1.2-2.8,0.7-1.9,1.6-4.5,2.4-7-0.2.4-.3,0.7-0.5,1.1h0c0.2-.5.4-1.1,0.6-1.6v-0.1c0.4-1.1.7-2.3,1.1-3.4h0a9.37,9.37,0,0,0,.4-1.6v-0.2c0.3-1.1.5-2.2,0.7-3.2v-0.2a5.85,5.85,0,0,0,.2-1.3v-0.3c0.5-3.5.2-6.4-1.6-7.3-1.6-.8-3.2,0-4.7,1.8h0c-3.9,4.4-7.4,14.6-8.8,19h0c-0.2.5-.3,1-0.4,1.3h0c0,0.1,0,.2-0.1.2V239h0c0.2-.7.3-1.3,0.5-2,0-.2.1-0.3,0.1-0.5,0.2-.6.3-1.2,0.5-1.8,0.1-.2.1-0.4,0.2-0.6l0.3-1.2c3.6-12.3,7.6-20.5,1.9-22.7-2.1-.8-3.9.8-5.5,3.6h0c-0.5,1-1.1,2.1-1.6,3.2h0c-0.2.6-.5,1.2-0.7,1.8h0c-0.2.6-.4,1.2-0.6,1.9v0.1c-0.2.6-.4,1.3-0.6,1.9v0.1a10.55,10.55,0,0,0-.5,1.9v0.1c-0.2.7-.3,1.3-0.5,1.9a6.75,6.75,0,0,0,.2-1.4l-1.9,7.6a20.29,20.29,0,0,1-.7,3.2c-0.3,1.3,0-.4.7-3.2,1.2-6.7,2.9-19.5,2.9-19.5v-0.2a0.6,0.6,0,0,0-.1-0.4,4.33,4.33,0,0,0-.1-0.5,6.89,6.89,0,0,0-.3-0.8,1.47,1.47,0,0,1-.2-0.4c-0.1-.1-0.1-0.2-0.2-0.3a1.38,1.38,0,0,0-.3-0.4l-0.1-.1c-2.1-2.8-6-1.5-7.7,2.6-1.9,4.9-6.5,20.2-6.7,23.9s-1.6,2.3-1.6,2.3c-5.2-13.3-11.2-7.3-14-4.8-1.9,1.7-4.3,5,2,6.9,2.3,0.7,4,3.9,5.2,6.4,1.9,3.9,1.8,6.5,3.5,10.9,2.8,7.4,11.9,5.6,11.9,5.6,10.1,13.9,21,3.9,25.4-1S997.8,226.8,992.8,223.5Z" transform="translate(-94.36 -63.46)"/><path class="c" d="M935.7,275.8l6.5-18.9s31.3,13.3,31.4,13.6-3.3,20-3.3,20Z" transform="translate(-94.36 -63.46)"/></svg>