<svg xmlns="http://www.w3.org/2000/svg" xmlns:xlink="http://www.w3.org/1999/xlink" viewBox="0 0 481.26 451.21"><defs><style>.a,.b,.j{fill:none;}.b{clip-path:url(#a);}.c,.f,.g,.h{fill:#fff;}.c,.f,.g,.j{stroke:#c9c9c8;}.c,.d,.e,.f{stroke-miterlimit:22.93;}.d,.i{fill:#c9c9c8;}.d{stroke:#fff;opacity:0.57;}.d,.f{isolation:isolate;}.e{fill:#80ad5d;stroke:#cacaca;}.f{opacity:0.25;}.g,.j{stroke-miterlimit:10;}.k{clip-path:url(#b);}.l{fill:url(#c);}</style><clipPath id="a"><polygon class="a" points="-60.9 -31.71 -59.9 -31.71 -60.9 -30.71 -60.9 -31.71"/></clipPath><clipPath id="b" transform="translate(-2.73 -6.49)"><polygon class="b" points="-62.9 -33.71 -63.9 -33.71 -62.9 -34.71 -62.9 -33.71"/></clipPath><linearGradient id="c" x1="-108.7" y1="-336.1" x2="-99.03" y2="-334.39" gradientTransform="matrix(0.96, 0.27, -0.27, 0.96, 183.1, 607.41)" gradientUnits="userSpaceOnUse"><stop offset="0"/><stop offset="0" stop-color="#0f0f0f"/><stop offset="0" stop-color="#373737"/><stop offset="0" stop-color="#777"/><stop offset="0" stop-color="#cfcfcf"/><stop offset="0" stop-color="#fff"/><stop offset="0.18" stop-color="#fff"/><stop offset="0.21" stop-color="#fff"/><stop offset="0.27" stop-color="#fff"/><stop offset="0.32" stop-color="#fff"/><stop offset="0.48" stop-color="#fff"/><stop offset="1" stop-color="#fff"/></linearGradient></defs><title>persone4</title><ellipse class="c" cx="390.67" cy="449.31" rx="4.2" ry="1.4"/><path class="c" d="M395.2,364.7c0-1.8-1-3.2-1.8-3.2h0c-0.8,0-1.8,1.4-1.8,3.2v88.1c0,1.8,1,3.2,1.8,3.2h0c0.8,0,1.8-1.4,1.8-3.2V364.7Z" transform="translate(-2.73 -6.49)"/><ellipse class="c" cx="390.67" cy="402.31" rx="4.2" ry="5.7"/><ellipse class="c" cx="346.67" cy="452.55" rx="4.2" ry="1.4" transform="translate(-9.95 -0.87) rotate(-0.92)"/><path class="c" d="M382.1,368.6c0.7-1.7.2-3.4-.5-3.7h0c-0.7-.3-2.2.7-2.9,2.3l-32.5,81.9c-0.7,1.7-.2,3.4.5,3.7h0c0.7,0.3,2.2-.7,2.9-2.3Z" transform="translate(-2.73 -6.49)"/><ellipse class="c" cx="364.04" cy="408.74" rx="5.7" ry="4.2" transform="translate(-152.81 590.08) rotate(-68.38)"/><ellipse class="c" cx="439.85" cy="452.4" rx="1.4" ry="4.2" transform="translate(-22.28 878.44) rotate(-89.08)"/><path class="c" d="M404.6,368.6c-0.7-1.7-.2-3.4.5-3.7h0c0.7-.3,2.2.7,2.9,2.3l32.5,81.9c0.7,1.7.2,3.4-.5,3.7h0c-0.7.3-2.2-.7-2.9-2.3Z" transform="translate(-2.73 -6.49)"/><ellipse class="c" cx="422.51" cy="408.79" rx="4.2" ry="5.7" transform="translate(-123.66 178.04) rotate(-21.63)"/><path class="c" d="M387.9,47.4c0-1.8-.2-3.2-0.8-3.2h0c-0.6,0-.8,1.4-0.8,3.2v88.1c0,1.8.2,3.2,0.8,3.2h0c0.6,0,.8-1.4.8-3.2V47.4Z" transform="translate(-2.73 -6.49)"/><rect class="c" x="295.57" y="44.71" width="177.5" height="3.7"/><rect class="c" x="295.57" y="358.21" width="177.5" height="14.2"/><path class="c" d="M483.4,371.8s-47.3,5-62.2,5H311.1a128.31,128.31,0,0,1-20.5-1.8s2.9-13,2.9-18V55.9h187v293C480.6,355.9,483.4,371.8,483.4,371.8Z" transform="translate(-2.73 -6.49)"/><rect class="c" x="290.87" y="46.31" width="187" height="4.7"/><rect class="c" x="312.97" y="140.91" width="30.1" height="30.1"/><rect class="d" x="352.87" y="141.31" width="90.6" height="6"/><rect class="d" x="352.87" y="151.71" width="90.6" height="6"/><rect class="d" x="352.87" y="160.81" width="90.6" height="6"/><rect class="c" x="312.97" y="194.21" width="30.1" height="30.1"/><rect class="d" x="352.87" y="194.61" width="90.6" height="6"/><rect class="d" x="352.87" y="205.01" width="90.6" height="6"/><rect class="d" x="352.87" y="214.11" width="90.6" height="6"/><rect class="c" x="312.97" y="244.91" width="30.1" height="30.1"/><rect class="d" x="352.87" y="245.41" width="90.6" height="6"/><rect class="d" x="352.87" y="255.81" width="90.6" height="6"/><rect class="d" x="352.87" y="264.91" width="90.6" height="6"/><rect class="c" x="312.97" y="294.31" width="30.1" height="30.1"/><rect class="d" x="352.87" y="294.81" width="90.6" height="6"/><rect class="d" x="352.87" y="305.21" width="90.6" height="6"/><rect class="c" x="312.97" y="87.61" width="30.1" height="30.1"/><rect class="d" x="352.87" y="88.01" width="90.6" height="6"/><rect class="d" x="352.87" y="98.41" width="90.6" height="6"/><rect class="d" x="352.87" y="107.51" width="90.6" height="6"/><path class="e" d="M329.2,118.9l-2.4-3.5a70.4,70.4,0,0,0-5.7-7.2,2.26,2.26,0,1,1,3.3-3.1h0c1.3,1.4,2.7,3.1,3.9,4.6,1.9-3.6,5.4-8.6,10-9.4a2.28,2.28,0,1,1,.93,4.46l-0.23,0c-3.2.5-6.7,6.5-8.2,10.1Z" transform="translate(-2.73 -6.49)"/><path class="e" d="M329.2,225.5l-2.4-3.5a70.4,70.4,0,0,0-5.7-7.2,2.26,2.26,0,1,1,3.3-3.1h0c1.3,1.4,2.7,3.1,3.9,4.6,1.9-3.6,5.4-8.6,10-9.4a2.28,2.28,0,0,1,.7,4.5c-3.2.5-6.7,6.5-8.2,10.1Z" transform="translate(-2.73 -6.49)"/><path class="e" d="M329.2,276.2l-2.4-3.5a70.4,70.4,0,0,0-5.7-7.2,2.26,2.26,0,1,1,3.3-3.1c1.3,1.4,2.7,3.1,3.9,4.6,1.9-3.6,5.4-8.6,10-9.4a2.28,2.28,0,1,1,.93,4.46l-0.23,0c-3.2.5-6.7,6.5-8.2,10.1Z" transform="translate(-2.73 -6.49)"/><path class="e" d="M329.2,325.6l-2.4-3.5a70.4,70.4,0,0,0-5.7-7.2,2.26,2.26,0,1,1,3.3-3.1h0c1.3,1.4,2.7,3.1,3.9,4.6,1.9-3.6,5.4-8.6,10-9.4a2.28,2.28,0,0,1,.7,4.5c-3.2.5-6.7,6.5-8.2,10.1Z" transform="translate(-2.73 -6.49)"/><ellipse class="c" cx="39.37" cy="72.6" rx="14.3" ry="11.3"/><polygon class="c" points="34.67 207.8 19.67 239.3 14.67 264.3 19.67 343.3 76.67 360.8 155.17 358.8 183.67 323.8 197.17 272.3 205.67 253.8 215.17 231.8 188.67 212.8 135.67 203.8 34.67 207.8"/><path class="c" d="M60.9,353.59c15.2,8,36.4,12.9,59.9,12.9,31.2,0,58.5-8.8,73-21.8a160.16,160.16,0,0,0,11.1-59.3,177,177,0,0,0-2.4-28.6c1.7,3.2,3.4,6.7,5,10.5" transform="translate(-2.73 -6.49)"/><path class="c" d="M112.7,354.89c-35,0-65.6-5.1-82.1-12.6a98,98,0,0,0-1.3,15.4c0,46.2,33.6,84.1,76.4,87.8-4.3-15.8-7.9-41.1-4.7-70.5v-0.1a74.86,74.86,0,0,0,11.7,1,64.46,64.46,0,0,0,11.7-1V375c0,28.9,1.4,54.4-4.7,70.5,42.8-3.8,76.4-41.6,76.4-87.8a97,97,0,0,0-1.3-15.4C178.3,349.89,147.8,354.89,112.7,354.89Z" transform="translate(-2.73 -6.49)"/><path class="c" d="M52.2,200.49c-20.5,10.9-35.1,37.3-35.1,68.1" transform="translate(-2.73 -6.49)"/><path class="c" d="M219.9,239.09c-11.5-19.6-27.8-35.7-51.5-43.5C155,180.79,138,172,119.4,172c-17.8,0-34.1,8.1-47.2,21.8a83.13,83.13,0,0,0-14.8,5.1" transform="translate(-2.73 -6.49)"/><path class="c" d="M275.4,234.29a38.77,38.77,0,0,1,10-4.2c15.1-4.4,15.7-15.3,15.9-23.2,0.2-7.1-7.5-7.8.8-19,0.9-1.3,14.7-11.2,12.8-17.6-0.5-1.9-4.5-2.4-6.8.8-2.8,3.9-8,6.9-12.2,9.9s-7.4,6.1-9.3,7.1c-3,1.6-8.7,6.2-13.9,11.2" transform="translate(-2.73 -6.49)"/><path class="c" d="M274,235.19c-2.6,1.7-2.4,1.7-4.5-3.1-3.6-8.2-8.5-16.1-7.4-19.4" transform="translate(-2.73 -6.49)"/><path class="c" d="M308.1,217.29c-0.4-2.8-5.1-4.3-10.5-3.4s-9.3,3.9-8.9,6.6,5.1,4.3,10.5,3.4S308.6,220.09,308.1,217.29Z" transform="translate(-2.73 -6.49)"/><path class="c" d="M308.7,207.19c-0.9-2.9-6.3-3.7-11.9-1.8s-9.5,5.9-8.6,8.8,6.3,3.7,11.9,1.8S309.6,210.09,308.7,207.19Z" transform="translate(-2.73 -6.49)"/><path class="c" d="M306.4,194.69c-2.1-2.7-8.1-1.3-13.3,3.2s-7.8,10.3-5.6,13,8.1,1.3,13.3-3.2S308.5,197.39,306.4,194.69Z" transform="translate(-2.73 -6.49)"/><path class="c" d="M280,212.39a2.89,2.89,0,0,0,1.1-1.1,37.21,37.21,0,0,0,5.4-10.3c-0.7,2.7-.5,6.8,3.3,8.9,5.3,2.9,4.8-3.6,7.2-9.2,2.5-6.1-.9-9.7-5.4-10.2s-3.3.7-10.5,0c-3.4-.3-9.6,4.4-10.8,9.4l-3.4,4.3-5,5.6,12,25.2" transform="translate(-2.73 -6.49)"/><path class="c" d="M286.6,201.49a7.29,7.29,0,0,1-1.8-5.3c0-.6-0.4,2,1.9,4.6C287.2,201.29,286.6,201.49,286.6,201.49Z" transform="translate(-2.73 -6.49)"/><path class="c" d="M286.6,201.29a5.49,5.49,0,0,1,2.8-2.7,7.29,7.29,0,0,0-2.4,2.5C286.8,201.59,286.6,201.29,286.6,201.29Z" transform="translate(-2.73 -6.49)"/><path class="c" d="M215.3,232.09c7.1,6.5,14.8,13.1,16.1,12.7,2.4-.8,27.1-26.1,27.1-26.1l11.3,26.4S239.2,274,231,275.89c-8,1.9-26.2-4-32.1-16.3" transform="translate(-2.73 -6.49)"/><path class="c" d="M241.1,219.19l20.6-12.3s18.4,36.3,18.3,36.7-18.4,15.8-18.4,15.8Z" transform="translate(-2.73 -6.49)"/><path class="c" d="M11.6,342.79c-1.1,5.9-.3,8,7.6,19.4s15.8,15.6,17.1,8.2-1.6-35.7-6.5-35S11.6,342.79,11.6,342.79Z" transform="translate(-2.73 -6.49)"/><path class="c" d="M3.3,334.89l29-6.9,1.3,11.8S6.5,349.19,6.1,349,3.3,334.89,3.3,334.89Z" transform="translate(-2.73 -6.49)"/><path class="c" d="M23.1,233.79s-15.9,36.5-16.3,69.1-0.6,32.4-.6,32.4l23.1-5-4.4-67.7" transform="translate(-2.73 -6.49)"/><path class="f" d="M139.7,327.39c-1.4-6.7-13.1-94.6-13.6-99.6a56.4,56.4,0,0,0-12-1.3,49.84,49.84,0,0,0-12,1.3c-0.5,5.1-12.2,93-13.6,99.6s16.1,24,22.7,33.3a3.74,3.74,0,0,0,2.9,1.8,4.22,4.22,0,0,0,2.9-1.8C123.6,351.39,141.1,334,139.7,327.39Z" transform="translate(-2.73 -6.49)"/><path class="c" d="M138.1,326.59c-1.4-6.7-13.1-94.6-13.6-99.7a56.4,56.4,0,0,0-12-1.3,49.84,49.84,0,0,0-12,1.3c-0.5,5.1-12.2,93-13.6,99.7s16.1,24,22.7,33.3a3.74,3.74,0,0,0,2.9,1.8,4.22,4.22,0,0,0,2.9-1.8C121.9,350.59,139.4,333.29,138.1,326.59Z" transform="translate(-2.73 -6.49)"/><path class="c" d="M129.4,227.39c0,11-8,16.1-17.3,16.1s-16.4-5.1-16.4-16.1,7.6-19.8,16.9-19.8S129.4,216.49,129.4,227.39Z" transform="translate(-2.73 -6.49)"/><path class="c" d="M129.4,227.79c0,9.9-8,14.5-17.3,14.5s-16.4-4.6-16.4-14.5,7.6-20.2,16.9-20.2S129.4,217.89,129.4,227.79Z" transform="translate(-2.73 -6.49)"/><path class="c" d="M46.1,203.59l-3.9,15.7s47.7,25.1,46.9,24.2c-0.1-.1,4.2-4,5.4-6.1,3-5.1,17.3-30.2,17.3-30.2s-32.4,4.3-50.6.6C51.9,205.89,52,205.79,46.1,203.59Z" transform="translate(-2.73 -6.49)"/><path class="c" d="M179.6,203.59l3.9,15.7s-47.7,25.1-46.9,24.2c0.1-.1-4.2-4-5.4-6.1-3-5.1-17.3-30.2-17.3-30.2s32.4,4.3,50.6.6C173.8,205.89,173.8,205.79,179.6,203.59Z" transform="translate(-2.73 -6.49)"/><ellipse class="c" cx="19.27" cy="144.5" rx="18.6" ry="15"/><ellipse class="c" cx="199.97" cy="145.8" rx="18.6" ry="15"/><circle class="g" cx="57.37" cy="148.5" r="20.8"/><path class="c" d="M46.3,203.29a90.9,90.9,0,0,1-27.1-64.8c0-50.9,42.1-92.2,94.1-92.2s94.1,41.3,94.1,92.2-42.1,92.2-94.1,92.2a94.21,94.21,0,0,1-67-27.4" transform="translate(-2.73 -6.49)"/><circle class="h" cx="163.07" cy="138.1" r="20.8"/><circle class="i" cx="76.37" cy="148.4" r="7.3"/><circle class="g" cx="74.97" cy="145.6" r="2.5"/><circle class="i" cx="167.37" cy="147.1" r="7.3"/><circle class="g" cx="165.97" cy="144.3" r="2.5"/><path class="i" d="M120.8,175.19s-0.4-4.2-7.2-4c-8.3.2-8.4,4.3-8.4,4.3S112.7,170.09,120.8,175.19Z" transform="translate(-2.73 -6.49)"/><path class="c" d="M204.8,60.19s4.4-7.4,1.1-11.4c-37.1-45.7-105-51.3-133.3-29.5-29.1-7.6-51.4,20.5-52.3,36.3a25.3,25.3,0,0,0,.1,4.8c-10.5,3.9-20,4.9-16.1,20,4,15.4,7,20.6,7.9,29.5s8.8,20.2,2.5,24.7c-2,1.4-4.4,6.4-.2,9.6,6.7,5.1-.8,6.6,2.5,6.7s0.7-1.2,0,3.8,3,2.9,2.8,4.6-0.7,2.7,2.1,4.1,7.2-13.8,7.4-24.4-3.6-20.4,1.9-36c4.7-13.3,5.4-19,4.4-23.7a9.15,9.15,0,0,0,1.7.1,16,16,0,0,0,7.5-2.7,30.24,30.24,0,0,1,21.6-5c6.9,4.1,16.4,10.7,28.1,16.7,16.9,8.6,31.5,8,34.3,7.2s-7.2-.4-14-5.2c-1.9-1.3-4.2-2.9-6.7-4.7,11.6,3.2,22.2,4.1,26.4-2.6,2-3.3-5.1,11.3-23.7-9.8,20.5,2.6,12.8,4.7,23.1,5.1s10.3-1.9,23-3,10.5-2.4,23.9,5.7a46.22,46.22,0,0,0,7.9,3.7c0.3,4,1.6,9.5,4.7,18.2,5.5,15.6,1.7,25.3,1.9,36s4.6,25.8,7.4,24.4,2.3-2.4,2.1-4.1,3.5,0.4,2.8-4.6-3.3-3.8,0-3.8-4.2-1.5,2.5-6.7c4.2-3.2,1.8-8.2-.2-9.6-6.3-4.5,1.6-15.8,2.5-24.7s4-14,7.9-29.5S215.5,64.29,204.8,60.19Z" transform="translate(-2.73 -6.49)"/><path class="g" d="M63.8,114.39c-2.2,2.8-5.9,1.8-3.7-1.1,5.5-7.1,17.4-10.9,25.8-8.3,3.4,1.1.6,5.6-2.8,4.5C77.4,107.69,67.6,109.49,63.8,114.39Z" transform="translate(-2.73 -6.49)"/><path class="g" d="M143.1,114.39c-2.2,2.8-5.9,1.8-3.7-1.1,5.5-7.1,17.4-10.9,25.8-8.3,3.4,1.1.6,5.6-2.8,4.5C156.7,107.69,146.9,109.49,143.1,114.39Z" transform="translate(-2.73 -6.49)"/><path class="c" d="M144.8,197.39a56.75,56.75,0,0,1-13.7,2.7c-5.8.3-12.1-.8-17.1-0.8-10.2,0-25.7-.5-30.2-1.9a55.59,55.59,0,0,0,28.8,8.7C126.2,206.19,141.2,200.19,144.8,197.39Z" transform="translate(-2.73 -6.49)"/><path class="c" d="M144.8,197.49c-2.4.5-4.6,2.3-13.1,2.6-11.8.4-29-3.8-34.1-5.4-10.7-3.4-15.8,1-14.5,3.6C89.6,210.49,137.7,201.59,144.8,197.49Z" transform="translate(-2.73 -6.49)"/><path class="c" d="M79.1,195.19c-0.4,2.2-1.4-.9-0.2-2a3,3,0,0,1,2.8-.8A3.06,3.06,0,0,0,79.1,195.19Z" transform="translate(-2.73 -6.49)"/><path class="c" d="M151,198.49c-0.3,2.2,1.6-.4.9-1.8a3.08,3.08,0,0,0-2.4-1.7C149,194.89,151.4,195.39,151,198.49Z" transform="translate(-2.73 -6.49)"/><path class="c" d="M214.6,123.39c-20.1-7.3-51.6-7.5-73.8-2.9-3.8.8-17,5.1-18.1,5.4a31.26,31.26,0,0,1-9,1.4h-2.6a35.13,35.13,0,0,1-9-1.4c-1.1-.3-14.4-4.7-18.1-5.4-22.2-4.7-53.8-4.5-73.8,2.9,0.1,5.3-1.3,12.1,0,17.5,0.6,2.6,3.9,5.7,5.4,8.3,4.7,8.1,7.2,20.8,13.4,27,7.7,7.8,25.1,8.5,39.5,7.6,21.2-1.3,26.7-12.2,33.4-28,2.3-5.3,4-12.4,9.3-13.4h0a8.5,8.5,0,0,1,2.6,0h0c5.3,1,7.1,8,9.3,13.4,6.7,15.8,12.2,26.7,33.4,28,14.3,0.9,31.8.2,39.5-7.6,6.2-6.3,8.7-18.9,13.4-27,1.5-2.6,4.8-5.6,5.4-8.3C215.9,135.49,214.5,128.69,214.6,123.39Zm-119,32.1c-2.7,9.6-6.5,16.5-13.4,20.4-10.2,5.7-35.5,6.2-45.5,0-6.9-4.3-9.4-12.2-11.1-22.6-1.1-6.8-2-16.5,1-21,5-7.7,26.9-7.9,40.1-7,12.5,0.9,28.1,3.9,30.5,12.1,1.7,5.6-.2,13.4-1.6,18.1h0Zm103.4-2.2c-1.7,10.3-4.3,18.3-11.1,22.6-10,6.2-35.3,5.7-45.5,0-6.8-3.8-10.6-10.7-13.4-20.4-1.3-4.7-3.3-12.5-1.6-18.1,2.4-8.1,18.1-11.2,30.5-12.1,13.2-.9,35.1-0.7,40.1,7C201,136.69,200.2,146.39,199,153.29Z" transform="translate(-2.73 -6.49)"/><path class="c" d="M73,431.29c13,0,30.5,7.4,38.2,22.8H51.8C51.4,438.39,60.1,431.29,73,431.29Z" transform="translate(-2.73 -6.49)"/><path class="c" d="M151.6,431.29c-13,0-30.5,7.4-38.2,22.8h59.4C173.3,438.39,164.6,431.29,151.6,431.29Z" transform="translate(-2.73 -6.49)"/><path class="j" d="M29.8,354.69a10.28,10.28,0,0,0,6.6,5" transform="translate(-2.73 -6.49)"/><ellipse class="e" cx="170.49" cy="266.3" rx="15.36" ry="6.08" transform="translate(-134.75 351.84) rotate(-74.29)"/><g class="k"><path class="l" d="M170.5,255.89l-0.4.6-0.4.6a18.06,18.06,0,0,0,4.6,2.1,20.48,20.48,0,0,0,5,.7v-1.5A23,23,0,0,1,170.5,255.89Z" transform="translate(-2.73 -6.49)"/></g><path class="e" d="M170.5,255.89l-0.4.6-0.4.6a18.06,18.06,0,0,0,4.6,2.1,20.48,20.48,0,0,0,5,.7v-1.5A23,23,0,0,1,170.5,255.89Z" transform="translate(-2.73 -6.49)"/><polygon class="c" points="181.07 279.1 167.57 285 154.07 279.1 154.07 259.2 181.07 259.2 181.07 279.1"/><path class="c" d="M179.2,258.39s2.5,2.2,2.4,4.7c-0.1,4.3-4,6.3-3.1,6.9,1.9,1.3-.2,3.3-0.5,2s-0.7-2,.2-3a8.21,8.21,0,0,0,2.4-5.7c-0.1-3.2-1.3-3.3-1.3-3.3Z" transform="translate(-2.73 -6.49)"/></svg>