<svg xmlns="http://www.w3.org/2000/svg" viewBox="0 0 454 430.58"><defs><style>.a,.e,.f{fill:#fff;}.a,.b,.c,.e,.g,.i{stroke:#cbcbcb;}.a,.b,.c,.g{stroke-miterlimit:22.93;}.b,.i{fill:none;}.b{stroke-width:1.2px;}.c{fill:#82b45c;}.d{fill:#e5e5e5;}.e,.i{stroke-miterlimit:10;}.g,.h{fill:#cbcbcb;}</style></defs><title>persone1</title><path class="a" d="M41.71,316.44c3.9,3,11.9,16,8.4,18.1-2.8,1.6-3.6-7.6-6.8-5.5-3.5,2.3,1.2,20.1-3,19.8-4.7-.3-0.8-14.6-4.4-14.2s1.4,18.7-3.5,18.2,0.4-17-3.3-17.1,0.1,15.3-4.4,15c-5-.4,1-18.2-1.4-18.1-3.9.2-1.1,12.6-5,12.6-2.3,0-2.1-6.7-.8-13.8,1.2-6.3,3.4-12.7,6.5-15.6C30.41,309.74,34.71,311.14,41.71,316.44Z" transform="translate(0 0)"/><path class="a" d="M170.11,316.44c-3.9,3-11.9,16-8.4,18.1,2.8,1.6,3.6-7.6,6.8-5.5,3.5,2.3-1.2,20.1,3,19.8,4.7-.3.8-14.6,4.4-14.2s-1.4,18.7,3.5,18.2-0.4-17,3.3-17.1-0.1,15.3,4.4,15c5-.4-1-18.2,1.4-18.1,3.9,0.2,1.1,12.6,5,12.6,2.3,0,2.1-6.7.8-13.8-1.2-6.3-3.4-12.7-6.5-15.6C181.41,309.74,177.11,311.14,170.11,316.44Z" transform="translate(0 0)"/><ellipse class="a" cx="18.81" cy="136.54" rx="18.1" ry="14.6"/><ellipse class="a" cx="194.71" cy="137.84" rx="18.1" ry="14.6"/><path class="a" d="M185.61,315.34c-4.3-32.4-14-76.2-48.5-88.7-8.4-10.2-19.1-16.3-30.7-16.3-11.1,0-21.4,5.6-29.6,15-37.8,10.5-48.1,56.3-52.5,90l18.1,2.4c4-30.1,10.7-48,18-58.8a108.26,108.26,0,0,0-3,25.3,103.82,103.82,0,0,0,6.5,36.7c8.5,8,24.4,13.5,42.6,13.5s34.1-5.4,42.6-13.5a103.82,103.82,0,0,0,6.5-36.7,113.3,113.3,0,0,0-1.4-17.7c5.5,11.1,10.4,27.2,13.5,51.1Z" transform="translate(0 0)"/><rect class="a" x="85.61" y="176.64" width="40.6" height="51.8"/><path class="b" d="M106.31,334.44c-18.1,0-33.9-5.3-42.4-13.3-0.4,5.3-.7,10.7-0.7,16.2,0,48.6,17.4,88.5,39.4,92.5a414,414,0,0,1-2.4-74.2v-0.1a18,18,0,0,0,6,1,19.86,19.86,0,0,0,6-1v0.1c0,30.4.7,57.3-2.4,74.2,22.1-4,39.4-43.9,39.4-92.5,0-5.5-.2-11-0.7-16.2C140.21,329,124.41,334.44,106.31,334.44Z" transform="translate(0 0)"/><path class="c" d="M92.61,302.14c0.8-6.4,4.1-45.6,7.3-54.2,0.7-1.9-.9-3.8-1.7-4.9-6.4-7.4.2-17.5,7.7-17.5s14.2,9.8,7.8,17.2c-0.8,1.1-2.4,2.9-1.6,4.8,3.2,8.4,5.8,48,7.9,54.6,2.3,7.3-8.2,25.8-12.3,26.4C102.41,329.44,91.81,308.84,92.61,302.14Z" transform="translate(0 0)"/><path class="d" d="M106,226.94l-19.7,21.4c-6.1-7.2-8.5-14.8-10.7-23.2,6.1-3.5,8.7-7.2,10.2-13.8-0.8,17.7,42.2,20.1,40.3-.1,1.4,6.8,3.4,11.7,10.3,13.8-2.2,8.2-4.7,16.2-10.7,23.3Z" transform="translate(0 0)"/><path class="a" d="M106.61,225.24l-20.4,18.9c-6.1-5.7-8-12.9-10.2-19.5a22.56,22.56,0,0,0,9.6-13.5c-0.8,17.9,42.2,19.7,40.3-.1a22.36,22.36,0,0,0,10,13.6c-2.2,6.5-4.4,13.8-10.4,19.4Z" transform="translate(0 0)"/><path class="a" d="M65.61,407.64c12.6,0,29.7,7.2,37.1,22.2H44.91C44.51,414.54,52.91,407.64,65.61,407.64Z" transform="translate(0 0)"/><path class="a" d="M147.11,407.64c-12.6,0-29.7,7.2-37.1,22.2h57.8C168.21,414.54,159.71,407.64,147.11,407.64Z" transform="translate(0 0)"/><circle class="e" cx="55.91" cy="140.44" r="20.3"/><ellipse class="a" cx="107.71" cy="124.44" rx="91.6" ry="89.8"/><circle class="f" cx="158.71" cy="130.34" r="20.3"/><path class="g" d="M133.41,185.94c-1.7,4.8-50.3,4.3-49.4,0A166.93,166.93,0,0,0,133.41,185.94Z" transform="translate(0 0)"/><path class="g" d="M119.51,191c-0.7,3.2-21.9,2.9-21.5,0A46,46,0,0,0,119.51,191Z" transform="translate(0 0)"/><circle class="h" cx="55.41" cy="140.34" r="7.1"/><circle class="e" cx="54.01" cy="137.64" r="2.4"/><circle class="h" cx="160.51" cy="140.34" r="7.1"/><circle class="e" cx="159.11" cy="137.64" r="2.4"/><path class="h" d="M115,160.14s-0.4-4.1-7.1-3.9c-8.1.2-8.2,4.1-8.2,4.1S107.11,155.14,115,160.14Z" transform="translate(0 0)"/><path class="e" d="M95.31,13h0c16.6-.8,33.9-2.8,45.9-12.3,0.5-.4,1.5-0.3,1.6.3,0.9,5-.7,9.5-3,14.1,10.4,1.2,19.8-3.4,28.5-7.6a1.11,1.11,0,0,1,1.4.5,15.76,15.76,0,0,1-2.9,14.2c19.5,6.4,35.8,20.2,41.9,36.7,4.6,12.5,5,26.4,3.4,39.2-1.4,11.2-4.2,24.9-15.1,32.8-0.6.4-1.6,0.1-1.6-.5-0.5-10.7.2-21.4-1.4-32a55.14,55.14,0,0,0-13.2-27.9c-1.3,6-6.1,11.6-9.9,16.6a1,1,0,0,1-1.7-.2c-2.2-8.3-4.6-17.5-11.2-24.4-4.3-4.6-10.2-7.5-16.6-9.8a28,28,0,0,1-3.7,11.2c-7.8,13.2-24.3,20-41.4,22.6-0.8.1-1.4-.5-1.1-1.1,3.3-5.5,5.5-11.1,6-17.1-18.9,14.3-43.4,20.2-66.2,29.4-0.7.3-1.7-.2-1.4-0.9a117.83,117.83,0,0,1,8.6-16c-9.7,5.3-17.4,12.3-20.2,21.8-2.7,9.1-2.4,18.6-2.9,28,0,0.8-1.2,1-1.8.4C4.21,116.34-1.29,97.94,1,80.24c3.5-26.9,23.7-50.4,55.2-60.8C56.21,19.44,81,12.24,95.31,13Z" transform="translate(0 0)"/><path class="e" d="M208.31,116.14c0-.6-0.1-1.2-0.1-1.8-0.2-2.3-.6-2.8-3-3-3-.2-6-0.4-9-0.7-4.3-.4-8.6-1.1-12.9-1.5-1.8-.2-3.5-0.3-5.3-0.5-3.1-.3-6.2-0.5-9.4-0.8-1.5-.1-3.1-0.2-4.6-0.4a62.2,62.2,0,0,0-11.4.5c-2.5.3-5,.5-7.5,0.8-3.5.5-7,1.1-10.3,1.8-4.2.9-8.4,1.9-12.6,2.9a61.19,61.19,0,0,1-14.7,1.5,64.34,64.34,0,0,1-14.5-1.5c-4.2-1-8.4-2-12.6-2.9-3.4-.7-6.9-1.4-10.3-1.8-2.5-.4-5-0.6-7.6-0.8a61.81,61.81,0,0,0-11.4-.5c-1.5.1-3.1,0.2-4.6,0.4-3.1.3-6.2,0.5-9.4,0.8-1.8.2-3.5,0.3-5.3,0.5-4.3.4-8.6,1.1-12.9,1.5-3,.3-6,0.4-9.1.7-2.3.2-2.8,0.7-3,3,0,0.6-.1,1.2-0.1,1.8-0.1,2.5-.1,5-0.2,7.5,0,1.1.2,2,1.5,2.4a6.72,6.72,0,0,1,5,5.9c0.6,3.6,1.3,7.2,1.9,10.8a79.07,79.07,0,0,0,4.5,16.5c1.9,4.5,4.4,8.7,8.9,11.1a51.14,51.14,0,0,0,9.3,4,49.48,49.48,0,0,0,16.7,2.1c15.9-.9,30.3-8.4,37.7-22.8a129.65,129.65,0,0,0,7.4-18.1,8.57,8.57,0,0,1,16.3,0,129.66,129.66,0,0,0,7.4,18.1c7.4,14.4,21.8,21.9,37.7,22.8a47.09,47.09,0,0,0,16.7-2.1,54.33,54.33,0,0,0,9.3-4c4.4-2.4,7-6.6,8.9-11.1a72,72,0,0,0,4.5-16.5c0.6-3.6,1.3-7.2,1.9-10.8a6.72,6.72,0,0,1,5-5.9,2.18,2.18,0,0,0,1.5-2.4C208.41,121.14,208.41,118.64,208.31,116.14ZM13,121.44c-1.8,0-3.3-.7-3.7-1.7h7.4C16.31,120.74,14.81,121.44,13,121.44Zm-3.6-2.6c0.4-1,1.9-1.7,3.7-1.7s3.3,0.7,3.7,1.7H9.41Zm9.5,5.4c-0.1.2-.1,0.4-0.2,0.6s-0.1.1-.1,0.2a11.6,11.6,0,0,1,3-6.3c2.1-2.3,4.8-3.4,7.6-4.4a62.55,62.55,0,0,1,14.9-3,95.24,95.24,0,0,1,16.9-.4c8.6,0.7,17.1,2,24.9,6.2a9.13,9.13,0,0,1,1.3.8c0.1,0.1.3,0.2,0.4,0.3a5.55,5.55,0,0,1,.8.6h0.1c0.6,0.5,1.2,1,1.9,1.5a0.37,0.37,0,0,1-.3.1,10.1,10.1,0,0,1,2.2,3.9,3.17,3.17,0,0,0-.8-1.2c-0.2-.4-0.5-0.8-0.7-1.2a9,9,0,0,0-1.5-1.9,4.62,4.62,0,0,1-.7-0.7,1.38,1.38,0,0,0-.4-0.3c-0.2-.2-0.4-0.3-0.6-0.5-0.4-.2-0.7-0.5-1.1-0.7a30.15,30.15,0,0,0-5.7-2.8c-1.1-.4-2.3-0.8-3.4-1.1a79.84,79.84,0,0,0-23.3-3.1,85.66,85.66,0,0,0-22.5,2.8,23.91,23.91,0,0,0-7.2,3,15.94,15.94,0,0,0-5.5,7.6h0Zm72,19.4a45.6,45.6,0,0,1-5.3,12.7c-6.1,9.8-16.8,15.5-28.1,16.6a52.62,52.62,0,0,1-11.9,0,24.19,24.19,0,0,1-7.9-2c-1-.5-2.1-0.9-3.1-1.3a21.48,21.48,0,0,1-2.6-1.4c-5.1-2.6-8-6.8-9.4-12.2a73.52,73.52,0,0,1-2.1-28.4A27.25,27.25,0,0,1,22,122c1.1-3.2,3.7-4.8,6.6-6.1a50.9,50.9,0,0,1,13.8-3.5,98.34,98.34,0,0,1,21.7-.4c6.9,0.7,13.7,2,20.1,5a20.62,20.62,0,0,1,3.7,2.3,17.41,17.41,0,0,1,1.4,1.2c0.5,0.6.8,1.3,1.3,1.9a12.23,12.23,0,0,1,1.2,1.9,13.72,13.72,0,0,1,1.2,4.4,50.16,50.16,0,0,1-2.1,14.9h0ZM192.31,156a18.42,18.42,0,0,1-9.4,12.2c-0.9.4-1.7,1-2.6,1.4s-2.1.8-3.1,1.3a27,27,0,0,1-7.9,2,52.62,52.62,0,0,1-11.9,0c-11.3-1.1-22.1-6.7-28.1-16.6a47.41,47.41,0,0,1-5.3-12.7c-1.3-4.9-2.3-9.8-2-14.8a13.06,13.06,0,0,1,1.2-4.4c0.4-.6.8-1.2,1.2-1.9a7.93,7.93,0,0,1,2.7-3.1,17.62,17.62,0,0,1,3.7-2.3c6.4-3,13.2-4.3,20.1-5a98.45,98.45,0,0,1,21.7.4,50.9,50.9,0,0,1,13.8,3.5c2.9,1.3,5.5,2.9,6.6,6.1a35.55,35.55,0,0,1,1.5,5.6,75.18,75.18,0,0,1-2.2,28.3h0Zm3.8-31.2c-0.1-.2-0.1-0.4-0.2-0.6a13.46,13.46,0,0,0-5.6-7.4,30.43,30.43,0,0,0-7.2-3c-7.3-2.1-14.9-2.7-22.5-2.8a76.6,76.6,0,0,0-23.3,3.1c-1.1.3-2.3,0.7-3.4,1.1a23.24,23.24,0,0,0-5.7,2.8c-0.4.2-.7,0.5-1.1,0.7-0.2.2-.4,0.3-0.6,0.5a4,4,0,0,1-.4.3,4.62,4.62,0,0,0-.7.7c-0.6.6-1,1.3-1.5,1.9-0.2.4-.5,0.8-0.7,1.2a8.34,8.34,0,0,0-.8,1.2,9.43,9.43,0,0,1,2.2-3.9,1,1,0,0,0-.3-0.1c0.7-.5,1.3-1,1.9-1.5h0c0.3-.2.6-0.5,0.9-0.7,0.1-.1.3-0.2,0.4-0.3a5.67,5.67,0,0,1,1.3-.8c7.8-4.2,16.3-5.5,24.9-6.2a95.47,95.47,0,0,1,16.9.4,62.55,62.55,0,0,1,14.9,3,18.76,18.76,0,0,1,7.6,4.4,11.6,11.6,0,0,1,3,6.3c0.1-.2.1-0.2,0-0.3h0Zm5.7-3.4c-1.8,0-3.3-.7-3.7-1.7h7.3c-0.3,1-1.8,1.7-3.6,1.7h0Zm-3.7-2.6c0.4-1,1.9-1.7,3.7-1.7s3.3,0.7,3.7,1.7h-7.4Z" transform="translate(0 0)"/><path class="f" d="M7.61,118.64a8.44,8.44,0,0,0,2.6,5.9,3.85,3.85,0,0,0,2.9,1.4c1.5-.2,2.3-2,3.6-2.8,2.5-1.5,2.4-7.4-.4-8.7C12.61,112.74,7.71,114,7.61,118.64Z" transform="translate(0 0)"/><path class="h" d="M367.8,175.49s8.2,8,22.5,8.3c17.9,0.3,26.9-9.9,26.9-9.9s-14.2,7.6-26.4,7.1A71.29,71.29,0,0,1,367.8,175.49Z" transform="translate(0 0)"/><rect class="e" x="251.3" y="30.59" width="197.8" height="231.7"/><rect class="e" x="268.4" y="121.69" width="74.5" height="2.6"/><rect class="e" x="268.4" y="127.39" width="74.5" height="2.6"/><rect class="e" x="268.4" y="133.09" width="74.5" height="2.6"/><rect class="e" x="268.4" y="138.79" width="74.5" height="2.6"/><rect class="e" x="268.4" y="144.59" width="74.5" height="2.6"/><rect class="e" x="268.4" y="98.39" width="74.5" height="13.9"/><path class="i" d="M449.1,26.09H246.7v240.7H453.5V26.09h-4.4Zm-4.6,231.7H255.7V35.09H444.5v222.7Z" transform="translate(0 0)"/><rect class="e" x="255.8" y="35.09" width="188.7" height="31.8"/><rect class="e" x="354.5" y="209.29" width="74.5" height="2.6"/><rect class="e" x="354.5" y="214.99" width="74.5" height="2.6"/><rect class="e" x="354.5" y="220.79" width="74.5" height="2.6"/><rect class="e" x="354.5" y="226.49" width="74.5" height="2.6"/><rect class="e" x="354.5" y="232.19" width="74.5" height="2.6"/><rect class="e" x="354.5" y="186.09" width="74.5" height="13.9"/><circle class="e" cx="303.6" cy="212.09" r="31.6"/><path class="e" d="M321,238.59a32,32,0,0,0,10.8-12l-28.2-14.4Z" transform="translate(0 0)"/><path class="e" d="M331.8,226.59a31.57,31.57,0,0,0-8.6-39.3l-19.5,24.9Z" transform="translate(0 0)"/><path class="e" d="M323.1,187.19a31.52,31.52,0,0,0-19.5-6.7v31.6Z" transform="translate(0 0)"/><path class="e" d="M303.6,180.49v31.6L281.1,190A31.18,31.18,0,0,1,303.6,180.49Z" transform="translate(0 0)"/><rect class="e" x="354.5" y="158.49" width="74.5" height="3.7"/><rect class="e" x="415.8" y="81.99" width="13.2" height="76.5"/><rect class="e" x="400.4" y="110.79" width="13.2" height="47.6"/><rect class="e" x="385.1" y="126.99" width="13.2" height="31.5"/><rect class="e" x="369.8" y="112.19" width="13.2" height="46.3"/><rect class="e" x="354.5" y="125.39" width="13.2" height="33.1"/><path class="e" d="M345.6,266.79v116.3a4.5,4.5,0,0,0,9,0V266.79h-9Z" transform="translate(0 0)"/><path class="e" d="M425.7,422.09l-48.9-155.3h-9.5l23.2,73.8H309.8l23.2-73.8h-9.5l-48.8,155.3c-2.2,7.8,6.5,9.6,8.7,2.7l23.6-75.1h86.4l23.6,75.1C418.9,430.79,427.8,428.79,425.7,422.09Z" transform="translate(0 0)"/></svg>