<svg xmlns="http://www.w3.org/2000/svg" viewBox="0 0 202.4 346.7"><defs><style>.a,.b,.c{fill:#fff;stroke:#cacaca;}.a{stroke-miterlimit:22.93;}.b,.c{stroke-linecap:round;stroke-linejoin:round;}.c{stroke-width:0.5px;}</style></defs><title>05_chel_a</title><path class="a" d="M403.2,482a1.58,1.58,0,0,0,1.6,1.6h22.6A1.58,1.58,0,0,0,429,482V471.8H403.3V482h-0.1Z" transform="translate(-356.2 -137.5)"/><path class="a" d="M471.2,482a1.58,1.58,0,0,0,1.6,1.6h22.6A1.58,1.58,0,0,0,497,482v-8.1H471.3V482h-0.1Z" transform="translate(-356.2 -137.5)"/><rect class="a" x="43" y="115.1" width="101.8" height="221.3"/><rect class="a" x="47" y="122" width="93.7" height="214.4"/><rect class="a" x="47" y="202.7" width="93.7" height="26.5"/><path class="a" d="M496.9,379.7v39.2a133.64,133.64,0,0,1-93.8,0V379.7A92.26,92.26,0,0,0,450,392.4a93.71,93.71,0,0,0,46.9-12.7h0Zm0,46a139.83,139.83,0,0,1-93.8,0v48.2h93.7V425.7h0.1Z" transform="translate(-356.2 -137.5)"/><path class="a" d="M413.9,358.9a5.7,5.7,0,1,0-5.7-5.7A5.63,5.63,0,0,0,413.9,358.9Z" transform="translate(-356.2 -137.5)"/><path class="a" d="M413.9,358a4.8,4.8,0,0,0,4.8-4.8,4.74,4.74,0,0,0-4.8-4.8,4.8,4.8,0,0,0-4.8,4.8A4.74,4.74,0,0,0,413.9,358Z" transform="translate(-356.2 -137.5)"/><path class="a" d="M413.9,357.8a4.5,4.5,0,1,0-4.5-4.5A4.42,4.42,0,0,0,413.9,357.8Z" transform="translate(-356.2 -137.5)"/><rect class="a" x="47" y="139.1" width="93.7" height="19.6"/><rect class="a" x="47" y="165.9" width="93.7" height="19.6"/><path class="a" d="M412.2,289.3a1.22,1.22,0,0,0,1.2,1.2h73.5a1.22,1.22,0,0,0,1.2-1.2v-6.9a1.22,1.22,0,0,0-1.2-1.2H413.4a1.22,1.22,0,0,0-1.2,1.2v6.9Z" transform="translate(-356.2 -137.5)"/><path class="a" d="M488,282.5v0.4a1.16,1.16,0,0,0-1.2-1.2H413.3a1.22,1.22,0,0,0-1.2,1.2v-0.4a1.22,1.22,0,0,1,1.2-1.2h73.5A1.22,1.22,0,0,1,488,282.5Z" transform="translate(-356.2 -137.5)"/><path class="a" d="M488,282.9v6.4a1.22,1.22,0,0,1-1.2,1.2H413.3a1.22,1.22,0,0,1-1.2-1.2v-6.4a1.16,1.16,0,0,1,1.2-1.2h73.5A1.22,1.22,0,0,1,488,282.9Z" transform="translate(-356.2 -137.5)"/><path class="a" d="M483.4,293.5a0.47,0.47,0,0,0,.5.5h3.7a0.47,0.47,0,0,0,.5-0.5v-0.9a0.47,0.47,0,0,0-.5-0.5h-3.7a0.47,0.47,0,0,0-.5.5v0.9Z" transform="translate(-356.2 -137.5)"/><path class="a" d="M487.7,309.6V310a1.16,1.16,0,0,0-1.2-1.2H413a1.22,1.22,0,0,0-1.2,1.2v-0.4a1.22,1.22,0,0,1,1.2-1.2h73.5A1.22,1.22,0,0,1,487.7,309.6Z" transform="translate(-356.2 -137.5)"/><path class="a" d="M487.7,310v6.4a1.22,1.22,0,0,1-1.2,1.2H413a1.22,1.22,0,0,1-1.2-1.2V310a1.16,1.16,0,0,1,1.2-1.2h73.5A1.29,1.29,0,0,1,487.7,310Z" transform="translate(-356.2 -137.5)"/><path class="a" d="M483.2,320.7a0.47,0.47,0,0,0,.5.5h3.7a0.47,0.47,0,0,0,.5-0.5v-0.9a0.47,0.47,0,0,0-.5-0.5h-3.7a0.47,0.47,0,0,0-.5.5v0.9Z" transform="translate(-356.2 -137.5)"/><rect class="a" x="47" y="122" width="93.7" height="10.9"/><rect class="a" x="126" y="124.9" width="10.8" height="4.2"/><rect class="a" x="126" y="125.6" width="10.8" height="1.3"/><rect class="a" x="110.9" y="124.9" width="10.8" height="4.2"/><rect class="a" x="110.9" y="125.6" width="10.8" height="1.3"/><rect class="a" x="95.8" y="124.9" width="10.8" height="4.2"/><rect class="a" x="95.8" y="125.6" width="10.8" height="1.3"/><circle class="a" cx="69.9" cy="127.1" r="2.1"/><circle class="a" cx="69.9" cy="127.1" r="1.6"/><circle class="a" cx="62.7" cy="127.1" r="2.1"/><circle class="a" cx="62.7" cy="127.1" r="1.6"/><circle class="a" cx="55.6" cy="127.1" r="2.1"/><circle class="a" cx="55.6" cy="127.1" r="1.6"/><path class="a" d="M485.5,358.9a5.7,5.7,0,1,0-5.7-5.7A5.76,5.76,0,0,0,485.5,358.9Z" transform="translate(-356.2 -137.5)"/><path class="a" d="M485.5,358a4.8,4.8,0,0,0,4.8-4.8,4.74,4.74,0,0,0-4.8-4.8A4.8,4.8,0,1,0,485.5,358Z" transform="translate(-356.2 -137.5)"/><path class="a" d="M485.5,357.8a4.5,4.5,0,1,0-4.5-4.5A4.48,4.48,0,0,0,485.5,357.8Z" transform="translate(-356.2 -137.5)"/><path class="a" d="M428.9,482v-4.4H403.2V482a1.58,1.58,0,0,0,1.6,1.6h22.6A1.56,1.56,0,0,0,428.9,482Z" transform="translate(-356.2 -137.5)"/><path class="a" d="M471.2,477.7v4.4a1.58,1.58,0,0,0,1.6,1.6h22.6a1.58,1.58,0,0,0,1.6-1.6v-4.4H471.2Z" transform="translate(-356.2 -137.5)"/><path class="b" d="M391.8,138H521.3a5,5,0,0,1,4.8,5v85.4a4.91,4.91,0,0,1-4.8,5H391.8a5,5,0,0,1-4.8-5V143A4.91,4.91,0,0,1,391.8,138Z" transform="translate(-356.2 -137.5)"/><rect class="b" x="38" y="10.4" width="124.7" height="69.9"/><circle class="b" cx="100.4" cy="6" r="2.3"/><polygon class="b" points="30.8 96.8 170 96.8 201.9 105.4 0.5 105.4 30.8 96.8"/><path class="b" d="M356.7,242.9H558.1v5.4a3.65,3.65,0,0,1-3.7,3.5H360.5a3.59,3.59,0,0,1-3.7-3.5v-5.4h-0.1Z" transform="translate(-356.2 -137.5)"/><rect class="b" x="67.6" y="110" width="68.1" height="2.4"/><circle class="b" cx="100.4" cy="88.5" r="5.2"/><polygon class="b" points="100.4 99.8 117.5 99.8 120.9 103.7 100.4 103.7 79.9 103.7 83.3 99.8 100.4 99.8"/><rect class="b" x="46.8" y="21.7" width="103.3" height="55.8"/><rect class="c" x="49.6" y="40.5" width="3.1" height="3.1"/><rect class="c" x="49.6" y="45.1" width="3.1" height="3.1"/><rect class="c" x="49.6" y="49.9" width="3.1" height="3.1"/><rect class="c" x="53.5" y="41" width="18.7" height="1.9"/><rect class="c" x="53.5" y="45.7" width="18.7" height="1.9"/><rect class="c" x="53.5" y="50.4" width="18.7" height="1.9"/><rect class="c" x="48.8" y="71.9" width="27.2" height="2.7"/><rect class="c" x="48.9" y="68.3" width="27.2" height="2.7"/><rect class="c" x="48.9" y="64.6" width="27.2" height="2.7"/><rect class="c" x="49.3" y="24.9" width="8.6" height="8.6"/><rect class="c" x="83.3" y="69.3" width="63.9" height="4.2"/><rect class="c" x="83.3" y="69.3" width="4.3" height="4.3"/></svg>