<svg id="slogan" data-name="slogan" xmlns="http://www.w3.org/2000/svg" viewBox="0 0 164.8 31.5"><defs><style>.cls-1{fill:#b4eb71;}.cls-2{fill:#f8fbf8;}</style></defs><title>slogan1</title><path class="cls-1" d="M63.8,100.7a2.75,2.75,0,0,0,.7-1.2q0.3-1,.6-2.7a36.89,36.89,0,0,0,.5-3.7c0.2-1.4.3-2.8,0.4-4.3s0.1-2.9.2-4.4a25.5,25.5,0,0,0-.2-4,10.81,10.81,0,0,1,2.1.5,14.17,14.17,0,0,1,1.8.8,52.27,52.27,0,0,1,0,5.6c-0.1,1.8-.2,3.5-0.4,5a38.62,38.62,0,0,1-.7,4.1,24.93,24.93,0,0,1-.7,2.9,5.23,5.23,0,0,1-.7,1.2,7.47,7.47,0,0,1-1.2,1.4,7.55,7.55,0,0,1-1.4,1.1,3,3,0,0,1-1.6.5,1.59,1.59,0,0,1-1.2-.4,4.5,4.5,0,0,1-.9-1,3.51,3.51,0,0,1-.6-1.4c-0.1-.5-0.3-1-0.4-1.6l-0.3-1.5c-0.1-.5-0.1-0.9-0.2-1.3a21.72,21.72,0,0,1-.7,2.4c-0.3.8-.6,1.5-0.9,2.2a6.24,6.24,0,0,1-1,1.6,1.54,1.54,0,0,1-1.1.6,2.73,2.73,0,0,1-1.4-.4,7.1,7.1,0,0,1-1.4-1,6.79,6.79,0,0,1-1.2-1.2,4.07,4.07,0,0,1-.6-1.1,22.62,22.62,0,0,1-.1-2.7c0-1.1.1-2.2,0.2-3.4l0.3-3.6c0.1-1.2.3-2.4,0.4-3.4s0.3-2,.4-2.9,0.2-1.5.3-1.9a3,3,0,0,1,.9-0.3A5.85,5.85,0,0,1,55,81a6.15,6.15,0,0,1,1.3-.1h0.9a27.41,27.41,0,0,0-.5,2.8c-0.1.9-.4,1.9-0.5,3a32.71,32.71,0,0,0-.5,3.5c-0.1,1.3-.3,2.7-0.5,4.4a3.22,3.22,0,0,1-.1.8,4.87,4.87,0,0,1-.1,1.2V98a5.28,5.28,0,0,0,.1,1.3,3,3,0,0,0,.2,1,0.42,0.42,0,0,0,.4.4,1.42,1.42,0,0,0,.4-0.2,1.91,1.91,0,0,0,.4-0.8c0.2-.6.5-1.4,0.8-2.3s0.5-1.9.8-3,0.5-2.2.6-3.3,0.3-2.2.4-3.1V85.2a3.93,3.93,0,0,0,.6-0.2c0.3-.1.6-0.1,0.9-0.2a3.75,3.75,0,0,1,1.1-.1h1.2a11.28,11.28,0,0,0-.2,1.4c-0.1.6-.1,1.4-0.2,2.2S62.4,90,62.4,91v2.9a22.62,22.62,0,0,0,.1,2.7c0.1,0.8.1,1.6,0.2,2.3a4.58,4.58,0,0,0,.4,1.5A0.62,0.62,0,0,0,63.8,100.7Z" transform="translate(-51.2 -80.4)"/><path class="cls-1" d="M71.2,101.1a13,13,0,0,1-.3-1.3,9.63,9.63,0,0,1,0-1.7c0-.6.1-1.3,0.1-1.9a9.91,9.91,0,0,1,.2-1.8q0.15-.9.3-1.5a2.32,2.32,0,0,1,.4-1,3.74,3.74,0,0,1,.6-0.7c0.3-.2.6-0.3,0.9-0.5a3.81,3.81,0,0,1,1-.3,3.4,3.4,0,0,1,1-.1,7.77,7.77,0,0,1,1.6.2,6.66,6.66,0,0,1,1.2.6,5.72,5.72,0,0,1,.8.7,0.86,0.86,0,0,1,.3.6,4.51,4.51,0,0,1,.1,1.3,9.85,9.85,0,0,1-.2,1.7c-0.1.6-.1,1.1-0.2,1.6a3,3,0,0,1-.5,1,5.58,5.58,0,0,1-.8.5c-0.4.1-.7,0.3-1.2,0.4s-0.8.2-1.3,0.3-0.8.1-1.2,0.2v0.2a2.17,2.17,0,0,0,.5,1.4,2,2,0,0,0,1.3.6,3.08,3.08,0,0,0,1.6-.2,3.91,3.91,0,0,0,1.6-1c1.5-1.5,2.7-4.2,3.8-8.2h0.8a29.07,29.07,0,0,1-1.2,3.9,22.88,22.88,0,0,1-1.6,3.5,9.21,9.21,0,0,1-2.1,2.6,5.81,5.81,0,0,1-2.6,1.3,4.33,4.33,0,0,1-1.6-.1,6.61,6.61,0,0,1-1.5-.5,3.6,3.6,0,0,1-1.2-.8A3.74,3.74,0,0,1,71.2,101.1Zm5.2-7.9a3.42,3.42,0,0,0-.1-1.1,0.76,0.76,0,0,0-.4-0.4,0.68,0.68,0,0,0-.5.3,1.88,1.88,0,0,0-.4.9c-0.1.3-.1,0.6-0.2,1s-0.1.9-.2,1.3-0.1,1-.2,1.5a7.57,7.57,0,0,0-.1,1.5,1.69,1.69,0,0,0,1-.7,5.39,5.39,0,0,0,.7-1.3,8.33,8.33,0,0,0,.4-1.5A3.75,3.75,0,0,1,76.4,93.2Z" transform="translate(-51.2 -80.4)"/><path class="cls-1" d="M93.4,111.9a2.74,2.74,0,0,1-.4-0.5l-0.6-.9a13.39,13.39,0,0,1-.6-1.2c-0.2-.5-0.3-0.8-0.4-1.1a3.08,3.08,0,0,1,.4-0.9,6.73,6.73,0,0,1,.7-1.1,6.73,6.73,0,0,0,.7-1.1,9.25,9.25,0,0,0,.5-1l0.4-4.5a6.12,6.12,0,0,1-.5,1.2,11.73,11.73,0,0,1-.5,1.1,5.55,5.55,0,0,1-.6.8,2.09,2.09,0,0,1-.6.4H91.2c-0.3-.1-0.6-0.2-1-0.3a2.62,2.62,0,0,1-.9-0.5,1.7,1.7,0,0,1-.6-0.6,2.87,2.87,0,0,1-.2-1.2,12.75,12.75,0,0,1,.1-1.9c0.1-.7.1-1.5,0.2-2.2a22.3,22.3,0,0,1,.4-2.3c0.1-.7.3-1.4,0.4-1.9A4,4,0,0,1,90,91a1.51,1.51,0,0,1,.4-0.4,2,2,0,0,1,.9-0.2c0.3,0,.7-0.1,1.1-0.1a4.1,4.1,0,0,1,1.1.1,1.33,1.33,0,0,1,.7.3,3,3,0,0,1,.8.8,5.07,5.07,0,0,0,.2-0.9,1.45,1.45,0,0,1,.7-0.2c0.3,0,.6-0.1,1-0.1H98a3.08,3.08,0,0,1,1,.1q-0.3,1.65-.9,4.2c-0.4,1.7-.7,3.8-1,6.1h0a9.05,9.05,0,0,0,.6-1.1c0.3-.5.6-1,0.9-1.6a16.18,16.18,0,0,1,1-1.8c0.4-.6.6-1.3,0.9-1.8s0.6-1.1.8-1.5a3.38,3.38,0,0,0,.4-1l0.8,0.2c-0.2.5-.5,1-0.8,1.6s-0.6,1.3-.9,2-0.7,1.4-1.1,2.2-0.8,1.5-1.1,2.2-0.7,1.5-1.1,2.1-0.7,1.3-1,1.9a28.35,28.35,0,0,1-1.4,4.6A14.94,14.94,0,0,1,93.4,111.9Zm1.2-17.7a2.77,2.77,0,0,0-.1-0.9,6.89,6.89,0,0,0-.3-0.8,2.18,2.18,0,0,0-.4-0.5,0.6,0.6,0,0,0-.4-0.1,1.74,1.74,0,0,0-.5.9c-0.2.5-.3,1.2-0.5,1.9A15.72,15.72,0,0,0,92,97a18,18,0,0,0-.2,2.2v1.6c0.1,0.4.2,0.5,0.4,0.4a2.49,2.49,0,0,0,.5-0.7,10.74,10.74,0,0,0,.7-1.5,19.38,19.38,0,0,0,.7-2.2A20,20,0,0,0,94.6,94.2Z" transform="translate(-51.2 -80.4)"/><path class="cls-1" d="M100.7,101.1a13,13,0,0,1-.3-1.3,9.63,9.63,0,0,1,0-1.7c0-.6.1-1.3,0.1-1.9a9.91,9.91,0,0,1,.2-1.8q0.15-.9.3-1.5a2.32,2.32,0,0,1,.4-1,3.74,3.74,0,0,1,.6-0.7c0.3-.2.6-0.3,0.9-0.5a3.81,3.81,0,0,1,1-.3,3.4,3.4,0,0,1,1-.1,7.77,7.77,0,0,1,1.6.2,6.66,6.66,0,0,1,1.2.6,5.72,5.72,0,0,1,.8.7,0.86,0.86,0,0,1,.3.6,4.51,4.51,0,0,1,.1,1.3,9.85,9.85,0,0,1-.2,1.7,7.49,7.49,0,0,1-.4,1.6,3,3,0,0,1-.5,1,5.58,5.58,0,0,1-.8.5c-0.4.1-.7,0.3-1.2,0.4s-0.8.2-1.3,0.3-0.8.1-1.2,0.2v0.2a2.17,2.17,0,0,0,.5,1.4,2,2,0,0,0,1.3.6,3.08,3.08,0,0,0,1.6-.2,3.91,3.91,0,0,0,1.6-1c1.5-1.5,2.7-4.2,3.8-8.2h0.8a29.07,29.07,0,0,1-1.2,3.9,22.88,22.88,0,0,1-1.6,3.5,9.21,9.21,0,0,1-2.1,2.6,5.81,5.81,0,0,1-2.6,1.3,4.33,4.33,0,0,1-1.6-.1,6.61,6.61,0,0,1-1.5-.5,3.6,3.6,0,0,1-1.2-.8A10.38,10.38,0,0,0,100.7,101.1Zm5.2-7.9a3.42,3.42,0,0,0-.1-1.1,0.76,0.76,0,0,0-.4-0.4,0.68,0.68,0,0,0-.5.3,1.88,1.88,0,0,0-.4.9c-0.1.3-.1,0.6-0.2,1s-0.1.9-.2,1.3-0.1,1-.2,1.5a7.57,7.57,0,0,0-.1,1.5,1.69,1.69,0,0,0,1-.7,5.39,5.39,0,0,0,.7-1.3,8.33,8.33,0,0,0,.4-1.5A3.75,3.75,0,0,1,105.9,93.2Z" transform="translate(-51.2 -80.4)"/><path class="cls-1" d="M119.7,93.6c-0.2.6-.5,1.4-0.8,2.2s-0.7,1.6-1.1,2.5a26.79,26.79,0,0,1-1.2,2.4,14.19,14.19,0,0,1-1.1,1.8,1.51,1.51,0,0,1-.9.7,2.25,2.25,0,0,1-.7-0.1,7.6,7.6,0,0,1-1.1-.4,3.33,3.33,0,0,1-1-.6,1.3,1.3,0,0,1-.5-0.7V99.7c0-.7.1-1.4,0.1-2.2a22.86,22.86,0,0,1,.2-2.5l0.3-2.7c-0.5,0-.8-0.1-1-0.1V91.6a2,2,0,0,1,.1-0.7h1.1c0.1-1,.3-2,0.4-2.9a20.23,20.23,0,0,1,.4-2.6c0.1-.8.2-1.4,0.3-1.9a7.47,7.47,0,0,1,.2-1.1,4.88,4.88,0,0,1,.7-0.3,3.55,3.55,0,0,1,1-.2,4.1,4.1,0,0,1,1.1-.1H117a17.66,17.66,0,0,0-.4,2c-0.1.7-.3,1.4-0.4,2.2a22.3,22.3,0,0,1-.4,2.3q-0.15,1.2-.3,2.7h1.2l-0.1,1.3c-0.2,0-.4.1-0.6,0.1h-0.7l-0.6,4.8c0,0.2-.1.5-0.1,0.8s-0.1.8-.1,1.2v1.1a1.88,1.88,0,0,0,.2.8c0.1,0.2.2,0.2,0.4,0.1a3.88,3.88,0,0,0,.8-0.9,29.3,29.3,0,0,0,2.1-3.9c0.6-1.4,1.2-2.8,1.7-4.2l0.7,0.2A2.47,2.47,0,0,0,119.7,93.6Z" transform="translate(-51.2 -80.4)"/><path class="cls-1" d="M183.4,92.3c-0.1.3-.3,0.8-0.5,1.5s-0.5,1.4-.8,2.2-0.6,1.6-.9,2.5a12.24,12.24,0,0,1-1,2.3,8.72,8.72,0,0,1-.9,1.7,1.18,1.18,0,0,1-.8.7,5.16,5.16,0,0,1-1.1-.2c-0.4-.1-0.8-0.3-1.1-0.4a3.49,3.49,0,0,1-.9-0.6,0.72,0.72,0,0,1-.4-0.6v-0.8a3.4,3.4,0,0,1,.1-1,6.94,6.94,0,0,1-.5,1.3,6.12,6.12,0,0,0-.5,1.2l-0.6.9a1.06,1.06,0,0,1-.6.4h-0.7c-0.3-.1-0.6-0.2-1-0.3a2.62,2.62,0,0,1-.9-0.5,1.7,1.7,0,0,1-.6-0.6,2.87,2.87,0,0,1-.2-1.2,13.43,13.43,0,0,1,.1-1.9c0.1-.7.1-1.5,0.2-2.3a18.46,18.46,0,0,1,.4-2.3c0.1-.7.3-1.4,0.4-1.9a4,4,0,0,1,.4-1.2l0.4-.4a1.88,1.88,0,0,1,.8-0.2c0.3,0,.7-0.1,1-0.1a4.1,4.1,0,0,1,1.1.1,1.33,1.33,0,0,1,.7.3,6,6,0,0,1,.8.8c0.1-1.2.3-2.3,0.4-3.5s0.3-2.1.4-3,0.2-1.6.3-2.1,0.2-.8.2-0.9a6.89,6.89,0,0,1,.8-0.3,3.59,3.59,0,0,1,1.1-.2,4.1,4.1,0,0,1,1.1-.1H181c-0.1.4-.2,1-0.4,1.8s-0.3,1.6-.5,2.6-0.4,2-.6,3.1-0.4,2.2-.5,3.3-0.3,2.2-.4,3.2-0.2,2-.3,2.8a11.58,11.58,0,0,0,0,1.9c0.1,0.4.1,0.5,0.3,0.5a0.86,0.86,0,0,0,.6-0.6,10.19,10.19,0,0,0,.8-1.5c0.3-.6.6-1.3,0.9-2a18,18,0,0,0,.8-2.1,8.8,8.8,0,0,0,.6-1.7,4.18,4.18,0,0,0,.3-0.9Zm-7.8,1.9a2.77,2.77,0,0,0-.1-0.9,6.89,6.89,0,0,0-.3-0.8,2.18,2.18,0,0,0-.4-0.5,0.6,0.6,0,0,0-.4-0.1,1.74,1.74,0,0,0-.5.9c-0.2.5-.3,1.2-0.5,1.9A15.72,15.72,0,0,0,173,97a18,18,0,0,0-.2,2.2v1.6c0.1,0.4.2,0.5,0.4,0.4a2.49,2.49,0,0,0,.5-0.7,10.74,10.74,0,0,0,.7-1.5,19.38,19.38,0,0,0,.7-2.2C175.2,96,175.4,95.1,175.6,94.2Z" transform="translate(-51.2 -80.4)"/><path class="cls-1" d="M189.1,101.3a1.56,1.56,0,0,1-.6.8,6.07,6.07,0,0,1-1,.7,4.87,4.87,0,0,1-1.1.4,2.81,2.81,0,0,1-.8.1,3.29,3.29,0,0,1-1.7-.4,3.6,3.6,0,0,1-1.5-1,4,4,0,0,1-1-1.5,4,4,0,0,1-.3-1.9,10.27,10.27,0,0,1,.5-2.4c0.2-.8.4-1.6,0.6-2.3a18.88,18.88,0,0,1,.6-1.8,8.91,8.91,0,0,1,.5-1,3.53,3.53,0,0,1,1.4-.3,4.12,4.12,0,0,1,1.2.1,2.51,2.51,0,0,1,1-.2,4.87,4.87,0,0,1,1.2.1l1.1,0.3c0.4,0.1.5,0.2,0.5,0.3a3.55,3.55,0,0,1,.1.7c0,0.4.1,0.8,0.1,1.3s0.1,0.9.1,1.3v0.7a9.51,9.51,0,0,0,2-1.5,8,8,0,0,0,1.5-2.1l0.7,0.6a2.8,2.8,0,0,1-.8,1.2,13.57,13.57,0,0,1-1.2,1.2c-0.5.4-.8,0.7-1.2,1a6.42,6.42,0,0,1-1,.6q-0.15,1.5-.3,2.7A18.4,18.4,0,0,1,189.1,101.3Zm-2.4-4.4a2.58,2.58,0,0,1-1.3-.8,3.39,3.39,0,0,1-.6-1.5c-0.2.6-.4,1.3-0.6,2a17.66,17.66,0,0,0-.4,2,10.28,10.28,0,0,0-.1,1.7,1.1,1.1,0,0,0,.5,1,0.75,0.75,0,0,0,.5.1,1.42,1.42,0,0,0,.6-0.2,1.7,1.7,0,0,0,.6-0.6,3,3,0,0,0,.4-1,5,5,0,0,0,.2-1.2A3.42,3.42,0,0,0,186.7,96.9Zm-1-3.2a1.27,1.27,0,0,0,.1.6,1.42,1.42,0,0,0,.2.6,2.19,2.19,0,0,0,.3.5,1,1,0,0,0,.5.4v-1c0-.4-0.1-0.7-0.1-1.1a3,3,0,0,0-.3-1c-0.1-.2-0.2-0.3-0.3-0.2a0.68,0.68,0,0,0-.3.4A5.39,5.39,0,0,0,185.7,93.7Z" transform="translate(-51.2 -80.4)"/><path class="cls-1" d="M197.3,101.4a6.15,6.15,0,0,1,.1-1.3c0-.5.1-0.9,0.1-1.4s0.1-1,.1-1.4,0.1-.9.1-1.3a10.36,10.36,0,0,0,.1-1.6,1.1,1.1,0,0,0-.1-0.7c-0.1-.1-0.1-0.2-0.2-0.1a0.38,0.38,0,0,0-.2.2,2.81,2.81,0,0,0-.5,1.1l-0.6,1.5a7.76,7.76,0,0,0-.5,1.8c-0.2.6-.3,1.2-0.5,1.8s-0.3,1.1-.4,1.6a7.38,7.38,0,0,0-.2,1.2,1.45,1.45,0,0,1-.7.2c-0.3,0-.5.1-0.8,0.1s-0.5.1-.8,0.1h-0.6a29.94,29.94,0,0,1,0-3c0-1.1.1-2.2,0.2-3.3s0.2-2.2.3-3.2,0.3-2,.4-2.8a1.88,1.88,0,0,1,.8-0.2,3.08,3.08,0,0,1,1-.1h1.9a5.16,5.16,0,0,0-.2,1.1c-0.1.3-.1,0.7-0.2,1s-0.1.7-.2,1.1-0.1.9-.2,1.4a15.4,15.4,0,0,1,1.2-3,4.9,4.9,0,0,1,1.2-1.5,2.79,2.79,0,0,1,1-.1l1.2,0.3a3.13,3.13,0,0,1,1,.5,0.76,0.76,0,0,1,.4.5,5.38,5.38,0,0,1-.1,1.1c-0.1.6-.1,1.2-0.2,1.9L200.9,97a14.05,14.05,0,0,0-.2,1.8c-0.2,1.4-.2,2.2,0,2.3s0.6-.3,1.1-1.3a9.25,9.25,0,0,1,.5-1c0.2-.4.4-0.9,0.6-1.4s0.4-1,.6-1.6a13.14,13.14,0,0,0,.5-1.5c0.1-.5.3-0.9,0.4-1.3a4.65,4.65,0,0,1,.3-0.9l0.8,0.2a9.42,9.42,0,0,1-.6,1.8c-0.2.7-.5,1.5-0.8,2.3l-0.9,2.4c-0.3.8-.6,1.5-0.9,2.2a11.42,11.42,0,0,1-.9,1.6,1.21,1.21,0,0,1-.9.6,4.4,4.4,0,0,1-1-.2,3.7,3.7,0,0,1-1.1-.5,3.49,3.49,0,0,1-.9-0.6A0.65,0.65,0,0,1,197.3,101.4Z" transform="translate(-51.2 -80.4)"/><path class="cls-1" d="M203.8,101.1a13,13,0,0,1-.3-1.3,9.63,9.63,0,0,1,0-1.7c0-.6.1-1.3,0.1-1.9a9.91,9.91,0,0,1,.2-1.8q0.15-.9.3-1.5a2.32,2.32,0,0,1,.4-1,3.74,3.74,0,0,1,.6-0.7c0.3-.2.6-0.3,0.9-0.5a3.81,3.81,0,0,1,1-.3,3.4,3.4,0,0,1,1-.1,7.77,7.77,0,0,1,1.6.2,6.66,6.66,0,0,1,1.2.6,5.72,5.72,0,0,1,.8.7,0.86,0.86,0,0,1,.3.6,4.51,4.51,0,0,1,.1,1.3,9.85,9.85,0,0,1-.2,1.7,7.49,7.49,0,0,1-.4,1.6,3,3,0,0,1-.5,1,5.58,5.58,0,0,1-.8.5c-0.4.1-.7,0.3-1.2,0.4s-0.8.2-1.3,0.3-0.8.1-1.2,0.2v0.2a2.17,2.17,0,0,0,.5,1.4,2,2,0,0,0,1.3.6,3.08,3.08,0,0,0,1.6-.2,3.91,3.91,0,0,0,1.6-1c1.5-1.5,2.7-4.2,3.8-8.2H216a29.07,29.07,0,0,1-1.2,3.9,22.88,22.88,0,0,1-1.6,3.5,9.21,9.21,0,0,1-2.1,2.6,5.81,5.81,0,0,1-2.6,1.3,4.33,4.33,0,0,1-1.6-.1,6.61,6.61,0,0,1-1.5-.5,3.6,3.6,0,0,1-1.2-.8A10.38,10.38,0,0,0,203.8,101.1Zm5.2-7.9a3.42,3.42,0,0,0-.1-1.1,0.76,0.76,0,0,0-.4-0.4,0.68,0.68,0,0,0-.5.3,1.88,1.88,0,0,0-.4.9c-0.1.3-.1,0.6-0.2,1s-0.1.9-.2,1.3-0.1,1-.2,1.5a7.57,7.57,0,0,0-.1,1.5,1.69,1.69,0,0,0,1-.7,5.39,5.39,0,0,0,.7-1.3,8.33,8.33,0,0,0,.4-1.5A7.44,7.44,0,0,1,209,93.2Z" transform="translate(-51.2 -80.4)"/><path class="cls-2" d="M142.5,84.9c1.3-.3,2.6-0.6,4.1-0.9s3.1-.6,4.9-0.8,3.8-.5,6-0.7,4.6-.4,7.3-0.6a2.65,2.65,0,0,1-.3,1c-0.2.4-.3,0.8-0.5,1.2l-0.6,1.2c-0.2.4-.4,0.7-0.5,0.9a24.56,24.56,0,0,0-4.1-.3c-1.6,0-3.2,0-4.9.1a2.19,2.19,0,0,1,.5.3,0.85,0.85,0,0,1,.3.3q-0.15,1.2-.3,2.7c-0.1,1-.2,2.2-0.4,3.3s-0.3,2.4-.4,3.7-0.2,2.5-.3,3.7-0.1,2.4-.2,3.5v2.9a5.39,5.39,0,0,1-1-.3,8.79,8.79,0,0,1-1-.6,3.11,3.11,0,0,1-.9-0.7,4.35,4.35,0,0,1-.7-0.6,25,25,0,0,1,.2-2.5c0.1-1,.2-2.1.4-3.2s0.3-2.3.4-3.5,0.3-2.3.5-3.5,0.3-2.1.5-3.1,0.3-1.7.4-2.3c-1.6.1-3.2,0.3-4.6,0.4s-2.7.4-3.7,0.5a2.76,2.76,0,0,1-.6-0.8A2.54,2.54,0,0,1,142.5,84.9Z" transform="translate(-51.2 -80.4)"/><path class="cls-2" d="M131.3,105.5l0.1-1h0c0.1-.8.1-1.6,0.2-2.5l0.1-.7h0a10,10,0,0,1,.2-1.6c0.2-1.7.4-3.5,0.7-5.4l0.9-5.7c0.3-2,.7-3.9,1.1-5.8a4.4,4.4,0,0,0-1,.2,6.47,6.47,0,0,0-1.3.4c-0.5.1-.9,0.3-1.3,0.4a3.92,3.92,0,0,0-.9.4c-0.3,2-.6,4-0.8,6s-0.4,3.9-.5,5.7-0.3,3.4-.4,4.8-0.2,2.6-.2,3.6l0.1,0.1A8,8,0,0,0,131.3,105.5Z" transform="translate(-51.2 -80.4)"/><path class="cls-2" d="M137,105.2a2.54,2.54,0,0,1,.2-0.7l0.3-.9c0.1-.3.2-0.7,0.3-1l0.3-.9h-1.3c-0.2,0-.4.1-0.6,0.1a2.27,2.27,0,0,0-.4.1,1.48,1.48,0,0,0-.1.7c0,0.3-.1.6-0.1,0.9s-0.1.6-.1,0.9v0.8H137Z" transform="translate(-51.2 -80.4)"/><path class="cls-2" d="M162,105.2a2.54,2.54,0,0,1,.2-0.7l0.3-.9c0.1-.3.2-0.7,0.3-1l0.3-.9h-1.3c-0.2,0-.4.1-0.6,0.1a2.27,2.27,0,0,0-.4.1,1.48,1.48,0,0,0-.1.7c0,0.3-.1.6-0.1,0.9s-0.1.6-.1,0.9v0.8H162Z" transform="translate(-51.2 -80.4)"/></svg>